<svg width="1440" height="775" viewBox="0 0 1440 775" fill="none" xmlns="http://www.w3.org/2000/svg">
<rect width="1440" height="775" fill="#F5F5F5"/>
<g clip-path="url(#clip0_0_1)">
<mask id="mask0_0_1" style="mask-type:luminance" maskUnits="userSpaceOnUse" x="0" y="0" width="1440" height="775">
<path d="M1440 0H0V775H1440V0Z" fill="white"/>
</mask>
<g mask="url(#mask0_0_1)">
<path d="M1440 0H0V775H1440V0Z" fill="black"/>
<path d="M199.813 -43.8018L81.1084 -100.492L-37.5961 -43.8018V69.5778L81.1084 126.268M199.813 -43.8018V69.5778M199.813 -43.8018L318.518 -100.492L437.205 -43.8018M199.813 69.5778L81.1084 126.268M199.813 69.5778L318.518 126.268M81.1084 126.268V239.647L199.813 296.337M318.518 126.268V239.647M318.518 126.268L437.205 69.5778M318.518 239.647L199.813 296.337M318.518 239.647L437.205 296.337V409.717L318.518 466.407L199.813 409.717V296.337M199.813 636.476L81.1084 579.786L-37.5961 636.476V749.856L81.1084 806.545M199.813 636.476V749.856M199.813 636.476L318.518 579.786L437.205 636.476M199.813 749.856L81.1084 806.545M199.813 749.856L318.518 806.545M81.1084 806.545V919.925L199.813 976.615L318.518 919.925V806.545M318.518 806.545L437.205 749.856M437.205 -43.8018V69.5778M437.205 -43.8018L555.909 -100.492L674.614 -43.8018M437.205 69.5778L555.909 126.268M437.205 636.476V749.856M437.205 636.476L555.909 579.786M437.205 749.856L555.909 806.545L674.614 749.856M674.614 -43.8018V69.5778M674.614 -43.8018L793.319 -100.492L912.023 -43.8018M674.614 69.5778L555.909 126.268M674.614 69.5778L793.319 126.268M555.909 126.268V239.647L674.614 296.337M793.319 126.268V239.647M793.319 126.268L912.023 69.5778M793.319 239.647L674.614 296.337M793.319 239.647L912.023 296.337V409.717L793.319 466.407M674.614 296.337V409.717M674.614 409.717L793.319 466.407M674.614 409.717L555.909 466.407V579.786M793.319 466.407V579.786M793.319 579.786L674.614 636.476M793.319 579.786L912.023 636.476V749.856L793.319 806.545L674.614 749.856M674.614 636.476L555.909 579.786M674.614 636.476V749.856M912.023 -43.8018V69.5778M912.023 -43.8018L1030.71 -100.492L1149.41 -43.8018M912.023 69.5778L1030.71 126.268L1149.41 69.5778M1149.41 -43.8018V69.5778M1149.41 -43.8018L1268.12 -100.492L1386.82 -43.8018V69.5778M1149.41 69.5778L1268.12 126.268M1386.82 69.5778L1268.12 126.268M1386.82 69.5778L1505.53 126.268M1268.12 126.268V239.647L1386.82 296.337L1505.53 239.647M1505.53 126.268V239.647M1505.53 126.268L1624.22 69.5778L1742.92 126.268V239.647L1624.22 296.337L1505.53 239.647M1149.41 409.717L1268.12 466.407V579.786L1149.41 636.476L1030.71 579.786V466.407L1149.41 409.717ZM1149.41 749.856L1268.12 806.545V919.925L1149.41 976.615L1030.71 919.925V806.545L1149.41 749.856Z" stroke="#7A2182" stroke-opacity="0.75" stroke-width="2.87037"/>
<path d="M67.4024 -100.492C67.4024 -99.0027 67.7569 -97.5284 68.4457 -96.1528C69.1345 -94.7772 70.1441 -93.5273 71.4168 -92.4745C72.6895 -91.4217 74.2005 -90.5865 75.8634 -90.0167C77.5262 -89.447 79.3085 -89.1537 81.1084 -89.1537C82.9083 -89.1537 84.6906 -89.447 86.3535 -90.0167C88.0164 -90.5865 89.5273 -91.4217 90.8001 -92.4745C92.0728 -93.5273 93.0824 -94.7772 93.7712 -96.1528C94.4599 -97.5284 94.8145 -99.0027 94.8145 -100.492C94.8145 -101.981 94.4599 -103.455 93.7712 -104.831C93.0824 -106.206 92.0728 -107.456 90.8001 -108.509C89.5273 -109.562 88.0164 -110.397 86.3535 -110.967C84.6906 -111.536 82.9083 -111.83 81.1084 -111.83C79.3085 -111.83 77.5262 -111.536 75.8634 -110.967C74.2005 -110.397 72.6895 -109.562 71.4168 -108.509C70.1441 -107.456 69.1345 -106.206 68.4457 -104.831C67.7569 -103.455 67.4024 -101.981 67.4024 -100.492ZM186.107 -43.8019C186.107 -40.7948 187.551 -37.911 190.121 -35.7847C192.692 -33.6584 196.178 -32.4639 199.813 -32.4639C203.448 -32.4639 206.934 -33.6584 209.505 -35.7847C212.075 -37.911 213.519 -40.7948 213.519 -43.8019C213.519 -46.8089 212.075 -49.6927 209.505 -51.819C206.934 -53.9453 203.448 -55.1398 199.813 -55.1398C196.178 -55.1398 192.692 -53.9453 190.121 -51.819C187.551 -49.6927 186.107 -46.8089 186.107 -43.8019ZM186.107 69.5778C186.107 72.5848 187.551 75.4686 190.121 77.5949C192.692 79.7212 196.178 80.9157 199.813 80.9157C203.448 80.9157 206.934 79.7212 209.505 77.5949C212.075 75.4686 213.519 72.5848 213.519 69.5778C213.519 66.5707 212.075 63.6869 209.505 61.5606C206.934 59.4343 203.448 58.2398 199.813 58.2398C196.178 58.2398 192.692 59.4343 190.121 61.5606C187.551 63.6869 186.107 66.5707 186.107 69.5778ZM67.4024 126.268C67.4024 127.756 67.7569 129.231 68.4457 130.606C69.1345 131.982 70.1441 133.232 71.4168 134.285C72.6895 135.338 74.2005 136.173 75.8634 136.742C77.5262 137.312 79.3085 137.606 81.1084 137.606C82.9083 137.606 84.6906 137.312 86.3535 136.742C88.0164 136.173 89.5273 135.338 90.8001 134.285C92.0728 133.232 93.0824 131.982 93.7712 130.606C94.4599 129.231 94.8145 127.756 94.8145 126.268C94.8145 124.779 94.4599 123.304 93.7712 121.929C93.0824 120.553 92.0728 119.303 90.8001 118.25C89.5273 117.198 88.0164 116.362 86.3535 115.793C84.6906 115.223 82.9083 114.93 81.1084 114.93C79.3085 114.93 77.5262 115.223 75.8634 115.793C74.2005 116.362 72.6895 117.198 71.4168 118.25C70.1441 119.303 69.1345 120.553 68.4457 121.929C67.7569 123.304 67.4024 124.779 67.4024 126.268ZM-51.3022 69.5778C-51.3022 71.0667 -50.9477 72.541 -50.2589 73.9166C-49.5701 75.2922 -48.5605 76.5421 -47.2878 77.5949C-46.0151 78.6478 -44.5041 79.4829 -42.8412 80.0527C-41.1783 80.6225 -39.3961 80.9157 -37.5962 80.9157C-35.7963 80.9157 -34.014 80.6225 -32.3511 80.0527C-30.6882 79.4829 -29.1773 78.6478 -27.9045 77.5949C-26.6318 76.5421 -25.6222 75.2922 -24.9334 73.9166C-24.2447 72.541 -23.8901 71.0667 -23.8901 69.5778C-23.8901 68.0888 -24.2447 66.6145 -24.9334 65.2389C-25.6222 63.8633 -26.6318 62.6135 -27.9045 61.5606C-29.1773 60.5078 -30.6882 59.6726 -32.3511 59.1029C-34.014 58.5331 -35.7963 58.2398 -37.5962 58.2398C-39.3961 58.2398 -41.1783 58.5331 -42.8412 59.1029C-44.5041 59.6726 -46.0151 60.5078 -47.2878 61.5606C-48.5605 62.6135 -49.5701 63.8633 -50.2589 65.2389C-50.9477 66.6145 -51.3022 68.0888 -51.3022 69.5778ZM-51.3022 -43.8019C-51.3022 -42.3129 -50.9477 -40.8386 -50.2589 -39.463C-49.5701 -38.0874 -48.5605 -36.8375 -47.2878 -35.7847C-46.0151 -34.7319 -44.5041 -33.8967 -42.8412 -33.3269C-41.1783 -32.7572 -39.3961 -32.4639 -37.5962 -32.4639C-35.7963 -32.4639 -34.014 -32.7572 -32.3511 -33.3269C-30.6882 -33.8967 -29.1773 -34.7319 -27.9045 -35.7847C-26.6318 -36.8375 -25.6222 -38.0874 -24.9334 -39.463C-24.2447 -40.8386 -23.8901 -42.3129 -23.8901 -43.8019C-23.8901 -45.2908 -24.2447 -46.7651 -24.9334 -48.1407C-25.6222 -49.5163 -26.6318 -50.7662 -27.9045 -51.819C-29.1773 -52.8718 -30.6882 -53.707 -32.3511 -54.2768C-34.014 -54.8465 -35.7963 -55.1398 -37.5962 -55.1398C-39.3961 -55.1398 -41.1783 -54.8465 -42.8412 -54.2768C-44.5041 -53.707 -46.0151 -52.8718 -47.2878 -51.819C-48.5605 -50.7662 -49.5701 -49.5163 -50.2589 -48.1407C-50.9477 -46.7651 -51.3022 -45.2908 -51.3022 -43.8019ZM304.812 126.268C304.812 129.275 306.256 132.158 308.826 134.285C311.396 136.411 314.883 137.606 318.518 137.606C322.153 137.606 325.639 136.411 328.209 134.285C330.78 132.158 332.224 129.275 332.224 126.268C332.224 123.261 330.78 120.377 328.209 118.25C325.639 116.124 322.153 114.93 318.518 114.93C314.883 114.93 311.396 116.124 308.826 118.25C306.256 120.377 304.812 123.261 304.812 126.268ZM304.812 239.647C304.812 242.654 306.256 245.538 308.826 247.664C311.396 249.791 314.883 250.985 318.518 250.985C322.153 250.985 325.639 249.791 328.209 247.664C330.78 245.538 332.224 242.654 332.224 239.647C332.224 236.64 330.78 233.756 328.209 231.63C325.639 229.504 322.153 228.309 318.518 228.309C314.883 228.309 311.396 229.504 308.826 231.63C306.256 233.756 304.812 236.64 304.812 239.647ZM186.107 296.337C186.107 299.344 187.551 302.228 190.121 304.354C192.692 306.48 196.178 307.675 199.813 307.675C203.448 307.675 206.934 306.48 209.505 304.354C212.075 302.228 213.519 299.344 213.519 296.337C213.519 293.33 212.075 290.446 209.505 288.32C206.934 286.194 203.448 284.999 199.813 284.999C196.178 284.999 192.692 286.194 190.121 288.32C187.551 290.446 186.107 293.33 186.107 296.337ZM67.4024 239.647C67.4024 241.136 67.7569 242.61 68.4457 243.986C69.1345 245.362 70.1441 246.612 71.4168 247.664C72.6895 248.717 74.2005 249.552 75.8634 250.122C77.5262 250.692 79.3085 250.985 81.1084 250.985C82.9083 250.985 84.6906 250.692 86.3535 250.122C88.0164 249.552 89.5273 248.717 90.8001 247.664C92.0728 246.612 93.0824 245.362 93.7712 243.986C94.4599 242.61 94.8145 241.136 94.8145 239.647C94.8145 238.158 94.4599 236.684 93.7712 235.308C93.0824 233.933 92.0728 232.683 90.8001 231.63C89.5273 230.577 88.0164 229.742 86.3535 229.172C84.6906 228.603 82.9083 228.309 81.1084 228.309C79.3085 228.309 77.5262 228.603 75.8634 229.172C74.2005 229.742 72.6895 230.577 71.4168 231.63C70.1441 232.683 69.1345 233.933 68.4457 235.308C67.7569 236.684 67.4024 238.158 67.4024 239.647ZM67.4024 579.786C67.4024 581.275 67.7569 582.749 68.4457 584.125C69.1345 585.501 70.1441 586.75 71.4168 587.803C72.6895 588.856 74.2005 589.691 75.8634 590.261C77.5262 590.831 79.3085 591.124 81.1084 591.124C82.9083 591.124 84.6906 590.831 86.3535 590.261C88.0164 589.691 89.5273 588.856 90.8001 587.803C92.0728 586.75 93.0824 585.501 93.7712 584.125C94.4599 582.749 94.8145 581.275 94.8145 579.786C94.8145 578.297 94.4599 576.823 93.7712 575.447C93.0824 574.072 92.0728 572.822 90.8001 571.769C89.5273 570.716 88.0164 569.881 86.3535 569.311C84.6906 568.741 82.9083 568.448 81.1084 568.448C79.3085 568.448 77.5262 568.741 75.8634 569.311C74.2005 569.881 72.6895 570.716 71.4168 571.769C70.1441 572.822 69.1345 574.072 68.4457 575.447C67.7569 576.823 67.4024 578.297 67.4024 579.786ZM186.107 636.476C186.107 639.483 187.551 642.367 190.121 644.493C192.692 646.619 196.178 647.814 199.813 647.814C203.448 647.814 206.934 646.619 209.505 644.493C212.075 642.367 213.519 639.483 213.519 636.476C213.519 633.469 212.075 630.585 209.505 628.459C206.934 626.332 203.448 625.138 199.813 625.138C196.178 625.138 192.692 626.332 190.121 628.459C187.551 630.585 186.107 633.469 186.107 636.476ZM186.107 749.855C186.107 752.862 187.551 755.746 190.121 757.873C192.692 759.999 196.178 761.193 199.813 761.193C203.448 761.193 206.934 759.999 209.505 757.873C212.075 755.746 213.519 752.862 213.519 749.855C213.519 746.848 212.075 743.965 209.505 741.838C206.934 739.712 203.448 738.518 199.813 738.518C196.178 738.518 192.692 739.712 190.121 741.838C187.551 743.965 186.107 746.848 186.107 749.855ZM67.4024 806.545C67.4024 808.034 67.7569 809.509 68.4457 810.884C69.1345 812.26 70.1441 813.51 71.4168 814.562C72.6895 815.615 74.2005 816.45 75.8634 817.02C77.5262 817.59 79.3085 817.883 81.1084 817.883C82.9083 817.883 84.6906 817.59 86.3535 817.02C88.0164 816.45 89.5273 815.615 90.8001 814.562C92.0728 813.51 93.0824 812.26 93.7712 810.884C94.4599 809.509 94.8145 808.034 94.8145 806.545C94.8145 805.056 94.4599 803.582 93.7712 802.206C93.0824 800.831 92.0728 799.581 90.8001 798.528C89.5273 797.475 88.0164 796.64 86.3535 796.07C84.6906 795.501 82.9083 795.207 81.1084 795.207C79.3085 795.207 77.5262 795.501 75.8634 796.07C74.2005 796.64 72.6895 797.475 71.4168 798.528C70.1441 799.581 69.1345 800.831 68.4457 802.206C67.7569 803.582 67.4024 805.056 67.4024 806.545ZM-51.3022 749.855C-51.3022 751.344 -50.9477 752.819 -50.2589 754.194C-49.5701 755.57 -48.5605 756.82 -47.2878 757.873C-46.0151 758.925 -44.5041 759.761 -42.8412 760.33C-41.1783 760.9 -39.3961 761.193 -37.5962 761.193C-35.7963 761.193 -34.014 760.9 -32.3511 760.33C-30.6882 759.761 -29.1773 758.925 -27.9045 757.873C-26.6318 756.82 -25.6222 755.57 -24.9334 754.194C-24.2447 752.819 -23.8901 751.344 -23.8901 749.855C-23.8901 748.367 -24.2447 746.892 -24.9334 745.517C-25.6222 744.141 -26.6318 742.891 -27.9045 741.838C-29.1773 740.786 -30.6882 739.95 -32.3511 739.381C-34.014 738.811 -35.7963 738.518 -37.5962 738.518C-39.3961 738.518 -41.1783 738.811 -42.8412 739.381C-44.5041 739.95 -46.0151 740.786 -47.2878 741.838C-48.5605 742.891 -49.5701 744.141 -50.2589 745.517C-50.9477 746.892 -51.3022 748.367 -51.3022 749.855ZM-51.3022 636.476C-51.3022 637.965 -50.9477 639.439 -50.2589 640.815C-49.5701 642.19 -48.5605 643.44 -47.2878 644.493C-46.0151 645.546 -44.5041 646.381 -42.8412 646.951C-41.1783 647.521 -39.3961 647.814 -37.5962 647.814C-35.7963 647.814 -34.014 647.521 -32.3511 646.951C-30.6882 646.381 -29.1773 645.546 -27.9045 644.493C-26.6318 643.44 -25.6222 642.19 -24.9334 640.815C-24.2447 639.439 -23.8901 637.965 -23.8901 636.476C-23.8901 634.987 -24.2447 633.513 -24.9334 632.137C-25.6222 630.761 -26.6318 629.512 -27.9045 628.459C-29.1773 627.406 -30.6882 626.571 -32.3511 626.001C-34.014 625.431 -35.7963 625.138 -37.5962 625.138C-39.3961 625.138 -41.1783 625.431 -42.8412 626.001C-44.5041 626.571 -46.0151 627.406 -47.2878 628.459C-48.5605 629.512 -49.5701 630.761 -50.2589 632.137C-50.9477 633.513 -51.3022 634.987 -51.3022 636.476ZM304.812 806.545C304.812 809.552 306.256 812.436 308.826 814.562C311.396 816.689 314.883 817.883 318.518 817.883C322.153 817.883 325.639 816.689 328.209 814.562C330.78 812.436 332.224 809.552 332.224 806.545C332.224 803.538 330.78 800.654 328.209 798.528C325.639 796.402 322.153 795.207 318.518 795.207C314.883 795.207 311.396 796.402 308.826 798.528C306.256 800.654 304.812 803.538 304.812 806.545ZM304.812 919.925C304.812 922.932 306.256 925.816 308.826 927.942C311.396 930.068 314.883 931.263 318.518 931.263C322.153 931.263 325.639 930.068 328.209 927.942C330.78 925.816 332.224 922.932 332.224 919.925C332.224 916.918 330.78 914.034 328.209 911.908C325.639 909.781 322.153 908.587 318.518 908.587C314.883 908.587 311.396 909.781 308.826 911.908C306.256 914.034 304.812 916.918 304.812 919.925ZM186.107 976.615C186.107 979.622 187.551 982.506 190.121 984.632C192.692 986.758 196.178 987.953 199.813 987.953C203.448 987.953 206.934 986.758 209.505 984.632C212.075 982.506 213.519 979.622 213.519 976.615C213.519 973.608 212.075 970.724 209.505 968.598C206.934 966.471 203.448 965.277 199.813 965.277C196.178 965.277 192.692 966.471 190.121 968.598C187.551 970.724 186.107 973.608 186.107 976.615ZM67.4024 919.925C67.4024 921.414 67.7569 922.888 68.4457 924.264C69.1345 925.639 70.1441 926.889 71.4168 927.942C72.6895 928.995 74.2005 929.83 75.8634 930.4C77.5262 930.97 79.3085 931.263 81.1084 931.263C82.9083 931.263 84.6906 930.97 86.3535 930.4C88.0164 929.83 89.5273 928.995 90.8001 927.942C92.0728 926.889 93.0824 925.639 93.7712 924.264C94.4599 922.888 94.8145 921.414 94.8145 919.925C94.8145 918.436 94.4599 916.962 93.7712 915.586C93.0824 914.21 92.0728 912.961 90.8001 911.908C89.5273 910.855 88.0164 910.02 86.3535 909.45C84.6906 908.88 82.9083 908.587 81.1084 908.587C79.3085 908.587 77.5262 908.88 75.8634 909.45C74.2005 910.02 72.6895 910.855 71.4168 911.908C70.1441 912.961 69.1345 914.21 68.4457 915.586C67.7569 916.962 67.4024 918.436 67.4024 919.925ZM304.812 -100.492C304.812 -97.4846 306.256 -94.6008 308.826 -92.4745C311.396 -90.3482 314.883 -89.1537 318.518 -89.1537C322.153 -89.1537 325.639 -90.3482 328.209 -92.4745C330.78 -94.6008 332.224 -97.4846 332.224 -100.492C332.224 -103.499 330.78 -106.383 328.209 -108.509C325.639 -110.635 322.153 -111.83 318.518 -111.83C314.883 -111.83 311.396 -110.635 308.826 -108.509C306.256 -106.383 304.812 -103.499 304.812 -100.492ZM423.499 -43.8019C423.499 -42.3129 423.853 -40.8386 424.542 -39.463C425.231 -38.0874 426.241 -36.8375 427.513 -35.7847C428.786 -34.7319 430.297 -33.8967 431.96 -33.3269C433.623 -32.7572 435.405 -32.4639 437.205 -32.4639C439.005 -32.4639 440.787 -32.7572 442.45 -33.3269C444.113 -33.8967 445.624 -34.7319 446.897 -35.7847C448.169 -36.8375 449.179 -38.0874 449.868 -39.463C450.556 -40.8386 450.911 -42.3129 450.911 -43.8019C450.911 -46.8089 449.467 -49.6927 446.897 -51.819C444.326 -53.9453 440.84 -55.1398 437.205 -55.1398C433.57 -55.1398 430.084 -53.9453 427.513 -51.819C424.943 -49.6927 423.499 -46.8089 423.499 -43.8019ZM423.499 69.5778C423.499 71.0667 423.853 72.541 424.542 73.9166C425.231 75.2922 426.241 76.5421 427.513 77.5949C428.786 78.6478 430.297 79.4829 431.96 80.0527C433.623 80.6225 435.405 80.9157 437.205 80.9157C439.005 80.9157 440.787 80.6225 442.45 80.0527C444.113 79.4829 445.624 78.6478 446.897 77.5949C448.169 76.5421 449.179 75.2922 449.868 73.9166C450.556 72.541 450.911 71.0667 450.911 69.5778C450.911 66.5707 449.467 63.6869 446.897 61.5606C444.326 59.4343 440.84 58.2398 437.205 58.2398C433.57 58.2398 430.084 59.4343 427.513 61.5606C424.943 63.6869 423.499 66.5707 423.499 69.5778ZM423.499 296.337C423.499 297.826 423.853 299.3 424.542 300.676C425.231 302.051 426.241 303.301 427.513 304.354C428.786 305.407 430.297 306.242 431.96 306.812C433.623 307.382 435.405 307.675 437.205 307.675C439.005 307.675 440.787 307.382 442.45 306.812C444.113 306.242 445.624 305.407 446.897 304.354C448.169 303.301 449.179 302.051 449.868 300.676C450.556 299.3 450.911 297.826 450.911 296.337C450.911 293.33 449.467 290.446 446.897 288.32C444.326 286.194 440.84 284.999 437.205 284.999C433.57 284.999 430.084 286.194 427.513 288.32C424.943 290.446 423.499 293.33 423.499 296.337ZM423.499 409.717C423.499 411.206 423.853 412.68 424.542 414.056C425.231 415.431 426.241 416.681 427.513 417.734C428.786 418.787 430.297 419.622 431.96 420.192C433.623 420.761 435.405 421.055 437.205 421.055C439.005 421.055 440.787 420.761 442.45 420.192C444.113 419.622 445.624 418.787 446.897 417.734C448.169 416.681 449.179 415.431 449.868 414.056C450.556 412.68 450.911 411.206 450.911 409.717C450.911 406.71 449.467 403.826 446.897 401.699C444.326 399.573 440.84 398.379 437.205 398.379C433.57 398.379 430.084 399.573 427.513 401.699C424.943 403.826 423.499 406.71 423.499 409.717ZM304.812 466.406C304.812 469.413 306.256 472.297 308.826 474.424C311.396 476.55 314.883 477.744 318.518 477.744C322.153 477.744 325.639 476.55 328.209 474.424C330.78 472.297 332.224 469.413 332.224 466.406C332.224 463.399 330.78 460.516 328.209 458.389C325.639 456.263 322.153 455.068 318.518 455.068C314.883 455.068 311.396 456.263 308.826 458.389C306.256 460.516 304.812 463.399 304.812 466.406ZM186.107 409.717C186.107 412.724 187.551 415.608 190.121 417.734C192.692 419.86 196.178 421.055 199.813 421.055C203.448 421.055 206.934 419.86 209.505 417.734C212.075 415.608 213.519 412.724 213.519 409.717C213.519 406.71 212.075 403.826 209.505 401.699C206.934 399.573 203.448 398.379 199.813 398.379C196.178 398.379 192.692 399.573 190.121 401.699C187.551 403.826 186.107 406.71 186.107 409.717ZM304.812 579.786C304.812 582.793 306.256 585.677 308.826 587.803C311.396 589.929 314.883 591.124 318.518 591.124C322.153 591.124 325.639 589.929 328.209 587.803C330.78 585.677 332.224 582.793 332.224 579.786C332.224 576.779 330.78 573.895 328.209 571.769C325.639 569.643 322.153 568.448 318.518 568.448C314.883 568.448 311.396 569.643 308.826 571.769C306.256 573.895 304.812 576.779 304.812 579.786ZM423.499 636.476C423.499 637.965 423.853 639.439 424.542 640.815C425.231 642.19 426.241 643.44 427.513 644.493C428.786 645.546 430.297 646.381 431.96 646.951C433.623 647.521 435.405 647.814 437.205 647.814C439.005 647.814 440.787 647.521 442.45 646.951C444.113 646.381 445.624 645.546 446.897 644.493C448.169 643.44 449.179 642.19 449.868 640.815C450.556 639.439 450.911 637.965 450.911 636.476C450.911 633.469 449.467 630.585 446.897 628.459C444.326 626.332 440.84 625.138 437.205 625.138C433.57 625.138 430.084 626.332 427.513 628.459C424.943 630.585 423.499 633.469 423.499 636.476ZM423.499 749.855C423.499 751.344 423.853 752.819 424.542 754.194C425.231 755.57 426.241 756.82 427.513 757.873C428.786 758.925 430.297 759.761 431.96 760.33C433.623 760.9 435.405 761.193 437.205 761.193C439.005 761.193 440.787 760.9 442.45 760.33C444.113 759.761 445.624 758.925 446.897 757.873C448.169 756.82 449.179 755.57 449.868 754.194C450.556 752.819 450.911 751.344 450.911 749.855C450.911 746.848 449.467 743.965 446.897 741.838C444.326 739.712 440.84 738.518 437.205 738.518C433.57 738.518 430.084 739.712 427.513 741.838C424.943 743.965 423.499 746.848 423.499 749.855ZM542.203 -100.492C542.203 -97.4846 543.647 -94.6008 546.218 -92.4745C548.788 -90.3482 552.274 -89.1537 555.909 -89.1537C559.545 -89.1537 563.031 -90.3482 565.601 -92.4745C568.171 -94.6008 569.615 -97.4846 569.615 -100.492C569.615 -103.499 568.171 -106.383 565.601 -108.509C563.031 -110.635 559.545 -111.83 555.909 -111.83C552.274 -111.83 548.788 -110.635 546.218 -108.509C543.647 -106.383 542.203 -103.499 542.203 -100.492ZM660.908 -43.8019C660.908 -40.7948 662.352 -37.911 664.922 -35.7847C667.493 -33.6584 670.979 -32.4639 674.614 -32.4639C678.249 -32.4639 681.735 -33.6584 684.306 -35.7847C686.876 -37.911 688.32 -40.7948 688.32 -43.8019C688.32 -46.8089 686.876 -49.6927 684.306 -51.819C681.735 -53.9453 678.249 -55.1398 674.614 -55.1398C670.979 -55.1398 667.493 -53.9453 664.922 -51.819C662.352 -49.6927 660.908 -46.8089 660.908 -43.8019ZM660.908 69.5778C660.908 72.5848 662.352 75.4686 664.922 77.5949C667.493 79.7212 670.979 80.9157 674.614 80.9157C678.249 80.9157 681.735 79.7212 684.306 77.5949C686.876 75.4686 688.32 72.5848 688.32 69.5778C688.32 66.5707 686.876 63.6869 684.306 61.5606C681.735 59.4343 678.249 58.2398 674.614 58.2398C670.979 58.2398 667.493 59.4343 664.922 61.5606C662.352 63.6869 660.908 66.5707 660.908 69.5778ZM542.203 126.268C542.203 129.275 543.647 132.158 546.218 134.285C548.788 136.411 552.274 137.606 555.909 137.606C559.545 137.606 563.031 136.411 565.601 134.285C568.171 132.158 569.615 129.275 569.615 126.268C569.615 123.261 568.171 120.377 565.601 118.25C563.031 116.124 559.545 114.93 555.909 114.93C552.274 114.93 548.788 116.124 546.218 118.25C543.647 120.377 542.203 123.261 542.203 126.268ZM779.613 126.268C779.613 129.275 781.057 132.158 783.627 134.285C786.197 136.411 789.684 137.606 793.319 137.606C796.954 137.606 800.44 136.411 803.01 134.285C805.581 132.158 807.025 129.275 807.025 126.268C807.025 123.261 805.581 120.377 803.01 118.25C800.44 116.124 796.954 114.93 793.319 114.93C789.684 114.93 786.197 116.124 783.627 118.25C781.057 120.377 779.613 123.261 779.613 126.268ZM779.613 239.647C779.613 242.654 781.057 245.538 783.627 247.664C786.197 249.791 789.684 250.985 793.319 250.985C796.954 250.985 800.44 249.791 803.01 247.664C805.581 245.538 807.025 242.654 807.025 239.647C807.025 236.64 805.581 233.756 803.01 231.63C800.44 229.504 796.954 228.309 793.319 228.309C789.684 228.309 786.197 229.504 783.627 231.63C781.057 233.756 779.613 236.64 779.613 239.647ZM660.908 296.337C660.908 299.344 662.352 302.228 664.922 304.354C667.493 306.48 670.979 307.675 674.614 307.675C678.249 307.675 681.735 306.48 684.306 304.354C686.876 302.228 688.32 299.344 688.32 296.337C688.32 293.33 686.876 290.446 684.306 288.32C681.735 286.194 678.249 284.999 674.614 284.999C670.979 284.999 667.493 286.194 664.922 288.32C662.352 290.446 660.908 293.33 660.908 296.337ZM542.203 239.647C542.203 242.654 543.647 245.538 546.218 247.664C548.788 249.791 552.274 250.985 555.909 250.985C559.545 250.985 563.031 249.791 565.601 247.664C568.171 245.538 569.615 242.654 569.615 239.647C569.615 236.64 568.171 233.756 565.601 231.63C563.031 229.504 559.545 228.309 555.909 228.309C552.274 228.309 548.788 229.504 546.218 231.63C543.647 233.756 542.203 236.64 542.203 239.647ZM660.908 409.717C660.908 412.724 662.352 415.608 664.922 417.734C667.493 419.86 670.979 421.055 674.614 421.055C678.249 421.055 681.735 419.86 684.306 417.734C686.876 415.608 688.32 412.724 688.32 409.717C688.32 406.71 686.876 403.826 684.306 401.699C681.735 399.573 678.249 398.379 674.614 398.379C670.979 398.379 667.493 399.573 664.922 401.699C662.352 403.826 660.908 406.71 660.908 409.717ZM779.613 466.406C779.613 469.413 781.057 472.297 783.627 474.424C786.197 476.55 789.684 477.744 793.319 477.744C796.954 477.744 800.44 476.55 803.01 474.424C805.581 472.297 807.025 469.413 807.025 466.406C807.025 463.399 805.581 460.516 803.01 458.389C800.44 456.263 796.954 455.068 793.319 455.068C789.684 455.068 786.197 456.263 783.627 458.389C781.057 460.516 779.613 463.399 779.613 466.406ZM779.613 579.786C779.613 582.793 781.057 585.677 783.627 587.803C786.197 589.929 789.684 591.124 793.319 591.124C796.954 591.124 800.44 589.929 803.01 587.803C805.581 585.677 807.025 582.793 807.025 579.786C807.025 576.779 805.581 573.895 803.01 571.769C800.44 569.643 796.954 568.448 793.319 568.448C789.684 568.448 786.197 569.643 783.627 571.769C781.057 573.895 779.613 576.779 779.613 579.786ZM660.908 636.476C660.908 639.483 662.352 642.367 664.922 644.493C667.493 646.619 670.979 647.814 674.614 647.814C678.249 647.814 681.735 646.619 684.306 644.493C686.876 642.367 688.32 639.483 688.32 636.476C688.32 633.469 686.876 630.585 684.306 628.459C681.735 626.332 678.249 625.138 674.614 625.138C670.979 625.138 667.493 626.332 664.922 628.459C662.352 630.585 660.908 633.469 660.908 636.476ZM542.203 579.786C542.203 582.793 543.647 585.677 546.218 587.803C548.788 589.929 552.274 591.124 555.909 591.124C559.545 591.124 563.031 589.929 565.601 587.803C568.171 585.677 569.615 582.793 569.615 579.786C569.615 576.779 568.171 573.895 565.601 571.769C563.031 569.643 559.545 568.448 555.909 568.448C552.274 568.448 548.788 569.643 546.218 571.769C543.647 573.895 542.203 576.779 542.203 579.786ZM542.203 466.406C542.203 469.413 543.647 472.297 546.218 474.424C548.788 476.55 552.274 477.744 555.909 477.744C559.545 477.744 563.031 476.55 565.601 474.424C568.171 472.297 569.615 469.413 569.615 466.406C569.615 463.399 568.171 460.516 565.601 458.389C563.031 456.263 559.545 455.068 555.909 455.068C552.274 455.068 548.788 456.263 546.218 458.389C543.647 460.516 542.203 463.399 542.203 466.406ZM660.908 749.855C660.908 752.862 662.352 755.746 664.922 757.873C667.493 759.999 670.979 761.193 674.614 761.193C678.249 761.193 681.735 759.999 684.306 757.873C686.876 755.746 688.32 752.862 688.32 749.855C688.32 746.848 686.876 743.965 684.306 741.838C681.735 739.712 678.249 738.518 674.614 738.518C670.979 738.518 667.493 739.712 664.922 741.838C662.352 743.965 660.908 746.848 660.908 749.855ZM542.203 806.545C542.203 809.552 543.647 812.436 546.218 814.562C548.788 816.689 552.274 817.883 555.909 817.883C559.545 817.883 563.031 816.689 565.601 814.562C568.171 812.436 569.615 809.552 569.615 806.545C569.615 803.538 568.171 800.654 565.601 798.528C563.031 796.402 559.545 795.207 555.909 795.207C552.274 795.207 548.788 796.402 546.218 798.528C543.647 800.654 542.203 803.538 542.203 806.545ZM779.613 -100.492C779.613 -97.4846 781.057 -94.6008 783.627 -92.4745C786.197 -90.3482 789.684 -89.1537 793.319 -89.1537C796.954 -89.1537 800.44 -90.3482 803.01 -92.4745C805.581 -94.6008 807.025 -97.4846 807.025 -100.492C807.025 -103.499 805.581 -106.383 803.01 -108.509C800.44 -110.635 796.954 -111.83 793.319 -111.83C789.684 -111.83 786.197 -110.635 783.627 -108.509C781.057 -106.383 779.613 -103.499 779.613 -100.492ZM898.317 -43.8019C898.317 -42.3129 898.672 -40.8386 899.361 -39.463C900.049 -38.0874 901.059 -36.8375 902.332 -35.7847C903.604 -34.7319 905.115 -33.8967 906.778 -33.3269C908.441 -32.7572 910.223 -32.4639 912.023 -32.4639C913.823 -32.4639 915.605 -32.7572 917.268 -33.3269C918.931 -33.8967 920.442 -34.7319 921.715 -35.7847C922.988 -36.8375 923.997 -38.0874 924.686 -39.463C925.375 -40.8386 925.729 -42.3129 925.729 -43.8019C925.729 -45.2908 925.375 -46.7651 924.686 -48.1407C923.997 -49.5163 922.988 -50.7662 921.715 -51.819C920.442 -52.8718 918.931 -53.707 917.268 -54.2768C915.605 -54.8465 913.823 -55.1398 912.023 -55.1398C910.223 -55.1398 908.441 -54.8465 906.778 -54.2768C905.115 -53.707 903.604 -52.8718 902.332 -51.819C901.059 -50.7662 900.049 -49.5163 899.361 -48.1407C898.672 -46.7651 898.317 -45.2908 898.317 -43.8019ZM898.317 69.5778C898.317 71.0667 898.672 72.541 899.361 73.9166C900.049 75.2922 901.059 76.5421 902.332 77.5949C903.604 78.6478 905.115 79.4829 906.778 80.0527C908.441 80.6225 910.223 80.9157 912.023 80.9157C913.823 80.9157 915.605 80.6225 917.268 80.0527C918.931 79.4829 920.442 78.6478 921.715 77.5949C922.988 76.5421 923.997 75.2922 924.686 73.9166C925.375 72.541 925.729 71.0667 925.729 69.5778C925.729 68.0888 925.375 66.6145 924.686 65.2389C923.997 63.8633 922.988 62.6135 921.715 61.5606C920.442 60.5078 918.931 59.6726 917.268 59.1029C915.605 58.5331 913.823 58.2398 912.023 58.2398C910.223 58.2398 908.441 58.5331 906.778 59.1029C905.115 59.6726 903.604 60.5078 902.332 61.5606C901.059 62.6135 900.049 63.8633 899.361 65.2389C898.672 66.6145 898.317 68.0888 898.317 69.5778ZM898.317 296.337C898.317 297.826 898.672 299.3 899.361 300.676C900.049 302.051 901.059 303.301 902.332 304.354C903.604 305.407 905.115 306.242 906.778 306.812C908.441 307.382 910.223 307.675 912.023 307.675C913.823 307.675 915.605 307.382 917.268 306.812C918.931 306.242 920.442 305.407 921.715 304.354C922.988 303.301 923.997 302.051 924.686 300.676C925.375 299.3 925.729 297.826 925.729 296.337C925.729 294.848 925.375 293.374 924.686 291.998C923.997 290.623 922.988 289.373 921.715 288.32C920.442 287.267 918.931 286.432 917.268 285.862C915.605 285.292 913.823 284.999 912.023 284.999C910.223 284.999 908.441 285.292 906.778 285.862C905.115 286.432 903.604 287.267 902.332 288.32C901.059 289.373 900.049 290.623 899.361 291.998C898.672 293.374 898.317 294.848 898.317 296.337ZM898.317 409.717C898.317 411.206 898.672 412.68 899.361 414.056C900.049 415.431 901.059 416.681 902.332 417.734C903.604 418.787 905.115 419.622 906.778 420.192C908.441 420.761 910.223 421.055 912.023 421.055C913.823 421.055 915.605 420.761 917.268 420.192C918.931 419.622 920.442 418.787 921.715 417.734C922.988 416.681 923.997 415.431 924.686 414.056C925.375 412.68 925.729 411.206 925.729 409.717C925.729 408.228 925.375 406.753 924.686 405.378C923.997 404.002 922.988 402.752 921.715 401.699C920.442 400.647 918.931 399.812 917.268 399.242C915.605 398.672 913.823 398.379 912.023 398.379C910.223 398.379 908.441 398.672 906.778 399.242C905.115 399.812 903.604 400.647 902.332 401.699C901.059 402.752 900.049 404.002 899.361 405.378C898.672 406.753 898.317 408.228 898.317 409.717ZM898.317 636.476C898.317 637.965 898.672 639.439 899.361 640.815C900.049 642.19 901.059 643.44 902.332 644.493C903.604 645.546 905.115 646.381 906.778 646.951C908.441 647.521 910.223 647.814 912.023 647.814C913.823 647.814 915.605 647.521 917.268 646.951C918.931 646.381 920.442 645.546 921.715 644.493C922.988 643.44 923.997 642.19 924.686 640.815C925.375 639.439 925.729 637.965 925.729 636.476C925.729 634.987 925.375 633.513 924.686 632.137C923.997 630.761 922.988 629.512 921.715 628.459C920.442 627.406 918.931 626.571 917.268 626.001C915.605 625.431 913.823 625.138 912.023 625.138C910.223 625.138 908.441 625.431 906.778 626.001C905.115 626.571 903.604 627.406 902.332 628.459C901.059 629.512 900.049 630.761 899.361 632.137C898.672 633.513 898.317 634.987 898.317 636.476ZM898.317 749.855C898.317 751.344 898.672 752.819 899.361 754.194C900.049 755.57 901.059 756.82 902.332 757.873C903.604 758.925 905.115 759.761 906.778 760.33C908.441 760.9 910.223 761.193 912.023 761.193C913.823 761.193 915.605 760.9 917.268 760.33C918.931 759.761 920.442 758.925 921.715 757.873C922.988 756.82 923.997 755.57 924.686 754.194C925.375 752.819 925.729 751.344 925.729 749.855C925.729 748.367 925.375 746.892 924.686 745.517C923.997 744.141 922.988 742.891 921.715 741.838C920.442 740.786 918.931 739.95 917.268 739.381C915.605 738.811 913.823 738.518 912.023 738.518C910.223 738.518 908.441 738.811 906.778 739.381C905.115 739.95 903.604 740.786 902.332 741.838C901.059 742.891 900.049 744.141 899.361 745.517C898.672 746.892 898.317 748.367 898.317 749.855ZM779.613 806.545C779.613 809.552 781.057 812.436 783.627 814.562C786.197 816.689 789.684 817.883 793.319 817.883C796.954 817.883 800.44 816.689 803.01 814.562C805.581 812.436 807.025 809.552 807.025 806.545C807.025 803.538 805.581 800.654 803.01 798.528C800.44 796.402 796.954 795.207 793.319 795.207C789.684 795.207 786.197 796.402 783.627 798.528C781.057 800.654 779.613 803.538 779.613 806.545ZM1017 -100.492C1017 -97.4846 1018.45 -94.6008 1021.02 -92.4745C1023.59 -90.3482 1027.08 -89.1537 1030.71 -89.1537C1034.35 -89.1537 1037.83 -90.3482 1040.4 -92.4745C1042.97 -94.6008 1044.42 -97.4846 1044.42 -100.492C1044.42 -103.499 1042.97 -106.383 1040.4 -108.509C1037.83 -110.635 1034.35 -111.83 1030.71 -111.83C1027.08 -111.83 1023.59 -110.635 1021.02 -108.509C1018.45 -106.383 1017 -103.499 1017 -100.492ZM1135.71 -43.8019C1135.71 -40.7948 1137.15 -37.911 1139.72 -35.7847C1142.29 -33.6584 1145.78 -32.4639 1149.42 -32.4639C1153.05 -32.4639 1156.54 -33.6584 1159.11 -35.7847C1161.68 -37.911 1163.12 -40.7948 1163.12 -43.8019C1163.12 -46.8089 1161.68 -49.6927 1159.11 -51.819C1156.54 -53.9453 1153.05 -55.1398 1149.42 -55.1398C1145.78 -55.1398 1142.29 -53.9453 1139.72 -51.819C1137.15 -49.6927 1135.71 -46.8089 1135.71 -43.8019ZM1135.71 69.5778C1135.71 72.5848 1137.15 75.4686 1139.72 77.5949C1142.29 79.7212 1145.78 80.9157 1149.42 80.9157C1153.05 80.9157 1156.54 79.7212 1159.11 77.5949C1161.68 75.4686 1163.12 72.5848 1163.12 69.5778C1163.12 66.5707 1161.68 63.6869 1159.11 61.5606C1156.54 59.4343 1153.05 58.2398 1149.42 58.2398C1145.78 58.2398 1142.29 59.4343 1139.72 61.5606C1137.15 63.6869 1135.71 66.5707 1135.71 69.5778ZM1017 126.268C1017 129.275 1018.45 132.158 1021.02 134.285C1023.59 136.411 1027.08 137.606 1030.71 137.606C1034.35 137.606 1037.83 136.411 1040.4 134.285C1042.97 132.158 1044.42 129.275 1044.42 126.268C1044.42 123.261 1042.97 120.377 1040.4 118.25C1037.83 116.124 1034.35 114.93 1030.71 114.93C1027.08 114.93 1023.59 116.124 1021.02 118.25C1018.45 120.377 1017 123.261 1017 126.268ZM1135.71 409.717C1135.71 412.724 1137.15 415.608 1139.72 417.734C1142.29 419.86 1145.78 421.055 1149.42 421.055C1153.05 421.055 1156.54 419.86 1159.11 417.734C1161.68 415.608 1163.12 412.724 1163.12 409.717C1163.12 406.71 1161.68 403.826 1159.11 401.699C1156.54 399.573 1153.05 398.379 1149.42 398.379C1145.78 398.379 1142.29 399.573 1139.72 401.699C1137.15 403.826 1135.71 406.71 1135.71 409.717ZM1254.41 466.406C1254.41 467.895 1254.77 469.37 1255.46 470.745C1256.15 472.121 1257.16 473.371 1258.43 474.424C1259.7 475.476 1261.21 476.312 1262.87 476.881C1264.54 477.451 1266.32 477.744 1268.12 477.744C1269.92 477.744 1271.7 477.451 1273.36 476.881C1275.03 476.312 1276.54 475.476 1277.81 474.424C1279.08 473.371 1280.09 472.121 1280.78 470.745C1281.47 469.37 1281.83 467.895 1281.83 466.406C1281.83 464.918 1281.47 463.443 1280.78 462.068C1280.09 460.692 1279.08 459.442 1277.81 458.389C1276.54 457.336 1275.03 456.501 1273.36 455.932C1271.7 455.362 1269.92 455.068 1268.12 455.068C1266.32 455.068 1264.54 455.362 1262.87 455.932C1261.21 456.501 1259.7 457.336 1258.43 458.389C1257.16 459.442 1256.15 460.692 1255.46 462.068C1254.77 463.443 1254.41 464.918 1254.41 466.406ZM1254.41 579.786C1254.41 581.275 1254.77 582.749 1255.46 584.125C1256.15 585.501 1257.16 586.75 1258.43 587.803C1259.7 588.856 1261.21 589.691 1262.87 590.261C1264.54 590.831 1266.32 591.124 1268.12 591.124C1269.92 591.124 1271.7 590.831 1273.36 590.261C1275.03 589.691 1276.54 588.856 1277.81 587.803C1279.08 586.75 1280.09 585.501 1280.78 584.125C1281.47 582.749 1281.83 581.275 1281.83 579.786C1281.83 578.297 1281.47 576.823 1280.78 575.447C1280.09 574.072 1279.08 572.822 1277.81 571.769C1276.54 570.716 1275.03 569.881 1273.36 569.311C1271.7 568.741 1269.92 568.448 1268.12 568.448C1266.32 568.448 1264.54 568.741 1262.87 569.311C1261.21 569.881 1259.7 570.716 1258.43 571.769C1257.16 572.822 1256.15 574.072 1255.46 575.447C1254.77 576.823 1254.41 578.297 1254.41 579.786ZM1135.71 636.476C1135.71 639.483 1137.15 642.367 1139.72 644.493C1142.29 646.619 1145.78 647.814 1149.42 647.814C1153.05 647.814 1156.54 646.619 1159.11 644.493C1161.68 642.367 1163.12 639.483 1163.12 636.476C1163.12 633.469 1161.68 630.585 1159.11 628.459C1156.54 626.332 1153.05 625.138 1149.42 625.138C1145.78 625.138 1142.29 626.332 1139.72 628.459C1137.15 630.585 1135.71 633.469 1135.71 636.476ZM1017 579.786C1017 582.793 1018.45 585.677 1021.02 587.803C1023.59 589.929 1027.08 591.124 1030.71 591.124C1034.35 591.124 1037.83 589.929 1040.4 587.803C1042.97 585.677 1044.42 582.793 1044.42 579.786C1044.42 576.779 1042.97 573.895 1040.4 571.769C1037.83 569.643 1034.35 568.448 1030.71 568.448C1027.08 568.448 1023.59 569.643 1021.02 571.769C1018.45 573.895 1017 576.779 1017 579.786ZM1017 466.406C1017 469.413 1018.45 472.297 1021.02 474.424C1023.59 476.55 1027.08 477.744 1030.71 477.744C1034.35 477.744 1037.83 476.55 1040.4 474.424C1042.97 472.297 1044.42 469.413 1044.42 466.406C1044.42 463.399 1042.97 460.516 1040.4 458.389C1037.83 456.263 1034.35 455.068 1030.71 455.068C1027.08 455.068 1023.59 456.263 1021.02 458.389C1018.45 460.516 1017 463.399 1017 466.406ZM1135.71 749.855C1135.71 752.862 1137.15 755.746 1139.72 757.873C1142.29 759.999 1145.78 761.193 1149.42 761.193C1153.05 761.193 1156.54 759.999 1159.11 757.873C1161.68 755.746 1163.12 752.862 1163.12 749.855C1163.12 746.848 1161.68 743.965 1159.11 741.838C1156.54 739.712 1153.05 738.518 1149.42 738.518C1145.78 738.518 1142.29 739.712 1139.72 741.838C1137.15 743.965 1135.71 746.848 1135.71 749.855ZM1254.41 806.545C1254.41 808.034 1254.77 809.509 1255.46 810.884C1256.15 812.26 1257.16 813.51 1258.43 814.562C1259.7 815.615 1261.21 816.45 1262.87 817.02C1264.54 817.59 1266.32 817.883 1268.12 817.883C1269.92 817.883 1271.7 817.59 1273.36 817.02C1275.03 816.45 1276.54 815.615 1277.81 814.562C1279.08 813.51 1280.09 812.26 1280.78 810.884C1281.47 809.509 1281.83 808.034 1281.83 806.545C1281.83 805.056 1281.47 803.582 1280.78 802.206C1280.09 800.831 1279.08 799.581 1277.81 798.528C1276.54 797.475 1275.03 796.64 1273.36 796.07C1271.7 795.501 1269.92 795.207 1268.12 795.207C1266.32 795.207 1264.54 795.501 1262.87 796.07C1261.21 796.64 1259.7 797.475 1258.43 798.528C1257.16 799.581 1256.15 800.831 1255.46 802.206C1254.77 803.582 1254.41 805.056 1254.41 806.545ZM1254.41 919.925C1254.41 921.414 1254.77 922.888 1255.46 924.264C1256.15 925.639 1257.16 926.889 1258.43 927.942C1259.7 928.995 1261.21 929.83 1262.87 930.4C1264.54 930.97 1266.32 931.263 1268.12 931.263C1269.92 931.263 1271.7 930.97 1273.36 930.4C1275.03 929.83 1276.54 928.995 1277.81 927.942C1279.08 926.889 1280.09 925.639 1280.78 924.264C1281.47 922.888 1281.83 921.414 1281.83 919.925C1281.83 918.436 1281.47 916.962 1280.78 915.586C1280.09 914.21 1279.08 912.961 1277.81 911.908C1276.54 910.855 1275.03 910.02 1273.36 909.45C1271.7 908.88 1269.92 908.587 1268.12 908.587C1266.32 908.587 1264.54 908.88 1262.87 909.45C1261.21 910.02 1259.7 910.855 1258.43 911.908C1257.16 912.961 1256.15 914.21 1255.46 915.586C1254.77 916.962 1254.41 918.436 1254.41 919.925ZM1135.71 976.615C1135.71 979.622 1137.15 982.506 1139.72 984.632C1142.29 986.758 1145.78 987.953 1149.42 987.953C1153.05 987.953 1156.54 986.758 1159.11 984.632C1161.68 982.506 1163.12 979.622 1163.12 976.615C1163.12 973.608 1161.68 970.724 1159.11 968.598C1156.54 966.471 1153.05 965.277 1149.42 965.277C1145.78 965.277 1142.29 966.471 1139.72 968.598C1137.15 970.724 1135.71 973.608 1135.71 976.615ZM1017 919.925C1017 922.932 1018.45 925.816 1021.02 927.942C1023.59 930.068 1027.08 931.263 1030.71 931.263C1034.35 931.263 1037.83 930.068 1040.4 927.942C1042.97 925.816 1044.42 922.932 1044.42 919.925C1044.42 916.918 1042.97 914.034 1040.4 911.908C1037.83 909.781 1034.35 908.587 1030.71 908.587C1027.08 908.587 1023.59 909.781 1021.02 911.908C1018.45 914.034 1017 916.918 1017 919.925ZM1017 806.545C1017 809.552 1018.45 812.436 1021.02 814.562C1023.59 816.689 1027.08 817.883 1030.71 817.883C1034.35 817.883 1037.83 816.689 1040.4 814.562C1042.97 812.436 1044.42 809.552 1044.42 806.545C1044.42 803.538 1042.97 800.654 1040.4 798.528C1037.83 796.402 1034.35 795.207 1030.71 795.207C1027.08 795.207 1023.59 796.402 1021.02 798.528C1018.45 800.654 1017 803.538 1017 806.545ZM1254.41 -100.492C1254.41 -99.0027 1254.77 -97.5284 1255.46 -96.1528C1256.15 -94.7772 1257.16 -93.5273 1258.43 -92.4745C1259.7 -91.4217 1261.21 -90.5865 1262.87 -90.0167C1264.54 -89.447 1266.32 -89.1537 1268.12 -89.1537C1269.92 -89.1537 1271.7 -89.447 1273.36 -90.0167C1275.03 -90.5865 1276.54 -91.4217 1277.81 -92.4745C1279.08 -93.5273 1280.09 -94.7772 1280.78 -96.1528C1281.47 -97.5284 1281.83 -99.0027 1281.83 -100.492C1281.83 -101.981 1281.47 -103.455 1280.78 -104.831C1280.09 -106.206 1279.08 -107.456 1277.81 -108.509C1276.54 -109.562 1275.03 -110.397 1273.36 -110.967C1271.7 -111.536 1269.92 -111.83 1268.12 -111.83C1266.32 -111.83 1264.54 -111.536 1262.87 -110.967C1261.21 -110.397 1259.7 -109.562 1258.43 -108.509C1257.16 -107.456 1256.15 -106.206 1255.46 -104.831C1254.77 -103.455 1254.41 -101.981 1254.41 -100.492ZM1373.12 -43.8019C1373.12 -42.3129 1373.47 -40.8386 1374.16 -39.463C1374.85 -38.0874 1375.86 -36.8375 1377.13 -35.7847C1378.41 -34.7319 1379.92 -33.8967 1381.58 -33.3269C1383.24 -32.7572 1385.02 -32.4639 1386.82 -32.4639C1388.62 -32.4639 1390.41 -32.7572 1392.07 -33.3269C1393.73 -33.8967 1395.24 -34.7319 1396.52 -35.7847C1397.79 -36.8375 1398.8 -38.0874 1399.49 -39.463C1400.18 -40.8386 1400.53 -42.3129 1400.53 -43.8019C1400.53 -45.2908 1400.18 -46.7651 1399.49 -48.1407C1398.8 -49.5163 1397.79 -50.7662 1396.52 -51.819C1395.24 -52.8718 1393.73 -53.707 1392.07 -54.2768C1390.41 -54.8465 1388.62 -55.1398 1386.82 -55.1398C1385.02 -55.1398 1383.24 -54.8465 1381.58 -54.2768C1379.92 -53.707 1378.41 -52.8718 1377.13 -51.819C1375.86 -50.7662 1374.85 -49.5163 1374.16 -48.1407C1373.47 -46.7651 1373.12 -45.2908 1373.12 -43.8019ZM1373.12 69.5778C1373.12 71.0667 1373.47 72.541 1374.16 73.9166C1374.85 75.2922 1375.86 76.5421 1377.13 77.5949C1378.41 78.6478 1379.92 79.4829 1381.58 80.0527C1383.24 80.6225 1385.02 80.9157 1386.82 80.9157C1388.62 80.9157 1390.41 80.6225 1392.07 80.0527C1393.73 79.4829 1395.24 78.6478 1396.52 77.5949C1397.79 76.5421 1398.8 75.2922 1399.49 73.9166C1400.18 72.541 1400.53 71.0667 1400.53 69.5778C1400.53 68.0888 1400.18 66.6145 1399.49 65.2389C1398.8 63.8633 1397.79 62.6135 1396.52 61.5606C1395.24 60.5078 1393.73 59.6726 1392.07 59.1029C1390.41 58.5331 1388.62 58.2398 1386.82 58.2398C1385.02 58.2398 1383.24 58.5331 1381.58 59.1029C1379.92 59.6726 1378.41 60.5078 1377.13 61.5606C1375.86 62.6135 1374.85 63.8633 1374.16 65.2389C1373.47 66.6145 1373.12 68.0888 1373.12 69.5778ZM1254.41 126.268C1254.41 127.756 1254.77 129.231 1255.46 130.606C1256.15 131.982 1257.16 133.232 1258.43 134.285C1259.7 135.338 1261.21 136.173 1262.87 136.742C1264.54 137.312 1266.32 137.606 1268.12 137.606C1269.92 137.606 1271.7 137.312 1273.36 136.742C1275.03 136.173 1276.54 135.338 1277.81 134.285C1279.08 133.232 1280.09 131.982 1280.78 130.606C1281.47 129.231 1281.83 127.756 1281.83 126.268C1281.83 124.779 1281.47 123.304 1280.78 121.929C1280.09 120.553 1279.08 119.303 1277.81 118.25C1276.54 117.198 1275.03 116.362 1273.36 115.793C1271.7 115.223 1269.92 114.93 1268.12 114.93C1266.32 114.93 1264.54 115.223 1262.87 115.793C1261.21 116.362 1259.7 117.198 1258.43 118.25C1257.16 119.303 1256.15 120.553 1255.46 121.929C1254.77 123.304 1254.41 124.779 1254.41 126.268ZM1491.82 126.268C1491.82 127.756 1492.18 129.231 1492.87 130.606C1493.55 131.982 1494.56 133.232 1495.84 134.285C1497.11 135.338 1498.62 136.173 1500.28 136.742C1501.95 137.312 1503.73 137.606 1505.53 137.606C1507.33 137.606 1509.11 137.312 1510.77 136.742C1512.44 136.173 1513.95 135.338 1515.22 134.285C1516.49 133.232 1517.5 131.982 1518.19 130.606C1518.88 129.231 1519.23 127.756 1519.23 126.268C1519.23 124.779 1518.88 123.304 1518.19 121.929C1517.5 120.553 1516.49 119.303 1515.22 118.25C1513.95 117.198 1512.44 116.362 1510.77 115.793C1509.11 115.223 1507.33 114.93 1505.53 114.93C1503.73 114.93 1501.95 115.223 1500.28 115.793C1498.62 116.362 1497.11 117.198 1495.84 118.25C1494.56 119.303 1493.55 120.553 1492.87 121.929C1492.18 123.304 1491.82 124.779 1491.82 126.268ZM1491.82 239.647C1491.82 241.136 1492.18 242.61 1492.87 243.986C1493.55 245.362 1494.56 246.612 1495.84 247.664C1497.11 248.717 1498.62 249.552 1500.28 250.122C1501.95 250.692 1503.73 250.985 1505.53 250.985C1507.33 250.985 1509.11 250.692 1510.77 250.122C1512.44 249.552 1513.95 248.717 1515.22 247.664C1516.49 246.612 1517.5 245.362 1518.19 243.986C1518.88 242.61 1519.23 241.136 1519.23 239.647C1519.23 238.158 1518.88 236.684 1518.19 235.308C1517.5 233.933 1516.49 232.683 1515.22 231.63C1513.95 230.577 1512.44 229.742 1510.77 229.172C1509.11 228.603 1507.33 228.309 1505.53 228.309C1503.73 228.309 1501.95 228.603 1500.28 229.172C1498.62 229.742 1497.11 230.577 1495.84 231.63C1494.56 232.683 1493.55 233.933 1492.87 235.308C1492.18 236.684 1491.82 238.158 1491.82 239.647ZM1373.12 296.337C1373.12 297.826 1373.47 299.3 1374.16 300.676C1374.85 302.051 1375.86 303.301 1377.13 304.354C1378.41 305.407 1379.92 306.242 1381.58 306.812C1383.24 307.382 1385.02 307.675 1386.82 307.675C1388.62 307.675 1390.41 307.382 1392.07 306.812C1393.73 306.242 1395.24 305.407 1396.52 304.354C1397.79 303.301 1398.8 302.051 1399.49 300.676C1400.18 299.3 1400.53 297.826 1400.53 296.337C1400.53 294.848 1400.18 293.374 1399.49 291.998C1398.8 290.623 1397.79 289.373 1396.52 288.32C1395.24 287.267 1393.73 286.432 1392.07 285.862C1390.41 285.292 1388.62 284.999 1386.82 284.999C1385.02 284.999 1383.24 285.292 1381.58 285.862C1379.92 286.432 1378.41 287.267 1377.13 288.32C1375.86 289.373 1374.85 290.623 1374.16 291.998C1373.47 293.374 1373.12 294.848 1373.12 296.337ZM1254.41 239.647C1254.41 241.136 1254.77 242.61 1255.46 243.986C1256.15 245.362 1257.16 246.612 1258.43 247.664C1259.7 248.717 1261.21 249.552 1262.87 250.122C1264.54 250.692 1266.32 250.985 1268.12 250.985C1269.92 250.985 1271.7 250.692 1273.36 250.122C1275.03 249.552 1276.54 248.717 1277.81 247.664C1279.08 246.612 1280.09 245.362 1280.78 243.986C1281.47 242.61 1281.83 241.136 1281.83 239.647C1281.83 238.158 1281.47 236.684 1280.78 235.308C1280.09 233.933 1279.08 232.683 1277.81 231.63C1276.54 230.577 1275.03 229.742 1273.36 229.172C1271.7 228.603 1269.92 228.309 1268.12 228.309C1266.32 228.309 1264.54 228.603 1262.87 229.172C1261.21 229.742 1259.7 230.577 1258.43 231.63C1257.16 232.683 1256.15 233.933 1255.46 235.308C1254.77 236.684 1254.41 238.158 1254.41 239.647ZM1610.51 69.5778C1610.51 72.5848 1611.95 75.4686 1614.52 77.5949C1617.09 79.7212 1620.58 80.9157 1624.22 80.9157C1627.85 80.9157 1631.34 79.7212 1633.91 77.5949C1636.48 75.4686 1637.92 72.5848 1637.92 69.5778C1637.92 66.5707 1636.48 63.6869 1633.91 61.5606C1631.34 59.4343 1627.85 58.2398 1624.22 58.2398C1620.58 58.2398 1617.09 59.4343 1614.52 61.5606C1611.95 63.6869 1610.51 66.5707 1610.51 69.5778ZM1729.21 126.268C1729.21 129.275 1730.66 132.158 1733.23 134.285C1735.8 136.411 1739.29 137.606 1742.92 137.606C1746.56 137.606 1750.04 136.411 1752.61 134.285C1755.18 132.158 1756.63 129.275 1756.63 126.268C1756.63 123.261 1755.18 120.377 1752.61 118.25C1750.04 116.124 1746.56 114.93 1742.92 114.93C1739.29 114.93 1735.8 116.124 1733.23 118.25C1730.66 120.377 1729.21 123.261 1729.21 126.268ZM1729.21 239.647C1729.21 242.654 1730.66 245.538 1733.23 247.664C1735.8 249.791 1739.29 250.985 1742.92 250.985C1746.56 250.985 1750.04 249.791 1752.61 247.664C1755.18 245.538 1756.63 242.654 1756.63 239.647C1756.63 236.64 1755.18 233.756 1752.61 231.63C1750.04 229.504 1746.56 228.309 1742.92 228.309C1739.29 228.309 1735.8 229.504 1733.23 231.63C1730.66 233.756 1729.21 236.64 1729.21 239.647ZM1610.51 296.337C1610.51 299.344 1611.95 302.228 1614.52 304.354C1617.09 306.48 1620.58 307.675 1624.22 307.675C1627.85 307.675 1631.34 306.48 1633.91 304.354C1636.48 302.228 1637.92 299.344 1637.92 296.337C1637.92 293.33 1636.48 290.446 1633.91 288.32C1631.34 286.194 1627.85 284.999 1624.22 284.999C1620.58 284.999 1617.09 286.194 1614.52 288.32C1611.95 290.446 1610.51 293.33 1610.51 296.337Z" fill="#7A2182" fill-opacity="0.75"/>
<path d="M88.2911 400.689L145.388 427.958M88.2911 400.689L31.1942 427.958V482.495M88.2911 400.689V346.152L145.388 318.884L202.485 346.152V400.689L145.388 427.958M145.388 427.958V482.495L88.2911 509.763M88.2911 509.763L31.1942 482.495M88.2911 509.763V564.3L31.1942 591.569L-25.9026 564.3V509.763L31.1942 482.495M202.485 73.4671V18.9301L145.388 -8.33844L88.2911 18.9301V73.4671L145.388 100.736M202.485 73.4671L145.388 100.736M202.485 73.4671L259.582 100.736V155.273M145.388 100.736V155.273M259.582 155.273L202.485 182.541M259.582 155.273L316.679 182.541V237.078L259.582 264.347L202.485 237.078M202.485 182.541L145.388 155.273M202.485 182.541V237.078M145.388 155.273L88.2911 182.541V237.078L145.388 264.347L202.485 237.078M259.582 591.569L202.485 564.3L145.388 591.569V646.106L202.485 673.374M259.582 591.569V646.106M259.582 591.569L316.679 564.3L373.775 591.569M259.582 646.106L202.485 673.374M259.582 646.106L316.679 673.374M202.485 673.374V727.912L259.582 755.18M373.775 591.569V646.106M373.775 591.569L430.872 564.3M373.775 646.106L316.679 673.374M373.775 646.106L430.872 673.374M316.679 673.374V727.912M316.679 727.912L259.582 755.18M316.679 727.912L373.775 755.18V809.717L316.679 836.986L259.582 809.717V755.18M430.872 73.4671L487.969 100.736M430.872 73.4671L373.775 100.736V155.273L430.872 182.541M430.872 73.4671V18.9301L487.969 -8.33844L545.066 18.9301M487.969 100.736V155.273M487.969 100.736L545.066 73.4671M487.969 155.273L430.872 182.541M487.969 155.273L545.066 182.541V237.078L487.969 264.347M430.872 182.541V237.078M430.872 237.078L487.969 264.347M430.872 237.078L373.775 264.347V318.884L430.872 346.152L487.969 318.884V264.347M430.872 564.3L487.969 591.569M430.872 564.3V509.763L487.969 482.495L545.066 509.763V564.3M487.969 591.569V646.106M487.969 591.569L545.066 564.3M487.969 646.106L430.872 673.374M487.969 646.106L545.066 673.374M430.872 673.374V727.912L487.969 755.18M545.066 18.9301V73.4671M545.066 18.9301L602.163 -8.33844L659.26 18.9301V73.4671L602.163 100.736L545.066 73.4671M545.066 564.3L602.163 591.569V646.106L545.066 673.374M545.066 673.374V727.912M545.066 727.912L487.969 755.18M545.066 727.912L602.163 755.18V809.717L545.066 836.986L487.969 809.717V755.18M773.454 400.689L830.55 427.958M773.454 400.689L716.357 427.958V482.495L773.454 509.763M773.454 400.689V346.152L830.55 318.884M830.55 427.958V482.495M830.55 427.958L887.647 400.689M830.55 482.495L773.454 509.763M830.55 482.495L887.647 509.763M773.454 509.763V564.3M773.454 564.3L830.55 591.569M773.454 564.3L716.357 591.569V646.106M830.55 591.569V646.106L773.454 673.374M830.55 591.569L887.647 564.3M773.454 673.374L716.357 646.106M773.454 673.374V727.912L716.357 755.18L659.26 727.912V673.374L716.357 646.106M944.744 318.884V264.347L887.647 237.078L830.55 264.347V318.884M944.744 318.884L887.647 346.152M944.744 318.884L1001.84 346.152M887.647 346.152L830.55 318.884M887.647 346.152V400.689M887.647 400.689L944.744 427.958L1001.84 400.689M887.647 509.763V564.3M887.647 509.763L944.744 482.495L1001.84 509.763V564.3M887.647 564.3L944.744 591.569M887.647 727.912L944.744 755.18M887.647 727.912L830.55 755.18V809.717L887.647 836.986L944.744 809.717M887.647 727.912V673.374L944.744 646.106M944.744 755.18V809.717M944.744 755.18L1001.84 727.912M944.744 809.717L1001.84 836.986L1058.94 809.717V755.18L1001.84 727.912M1001.84 346.152V400.689M1001.84 346.152L1058.94 318.884M1001.84 400.689L1058.94 427.958M1001.84 564.3L944.744 591.569M1001.84 564.3L1058.94 591.569V646.106L1001.84 673.374M944.744 591.569V646.106M1001.84 673.374L944.744 646.106M1001.84 673.374V727.912M1116.03 346.152L1173.13 318.884V264.347L1116.03 237.078L1058.94 264.347V318.884M1116.03 346.152L1058.94 318.884M1116.03 346.152V400.689M1116.03 400.689L1058.94 427.958M1116.03 400.689L1173.13 427.958V482.495L1116.03 509.763L1058.94 482.495V427.958M1287.33 591.569L1230.23 564.3L1173.13 591.569V646.106L1230.23 673.374L1287.33 646.106M1287.33 591.569V646.106M1287.33 591.569L1344.42 564.3M1287.33 646.106L1344.42 673.374M1287.33 755.18L1230.23 727.912L1173.13 755.18V809.717L1230.23 836.986L1287.33 809.717M1287.33 755.18V809.717M1287.33 755.18L1344.42 727.912M1287.33 809.717L1344.42 836.986L1401.52 809.717M1401.52 427.958L1344.42 400.689L1287.33 427.958V482.495L1344.42 509.763M1401.52 427.958V482.495M1401.52 427.958L1458.62 400.689L1515.71 427.958V482.495L1458.62 509.763M1401.52 482.495L1344.42 509.763M1401.52 482.495L1458.62 509.763M1344.42 509.763V564.3M1344.42 564.3L1401.52 591.569M1401.52 591.569V646.106M1401.52 591.569L1458.62 564.3M1401.52 646.106L1344.42 673.374M1401.52 646.106L1458.62 673.374M1344.42 673.374V727.912M1344.42 727.912L1401.52 755.18M1401.52 755.18V809.717M1401.52 755.18L1458.62 727.912M1401.52 809.717L1458.62 836.986L1515.71 809.717V755.18L1458.62 727.912M1458.62 509.763V564.3M1458.62 564.3L1515.71 591.569V646.106L1458.62 673.374M1458.62 673.374V727.912M31.1942 646.106L88.2911 673.374V727.912L31.1942 755.18L-25.9026 727.912V673.374L31.1942 646.106ZM316.679 400.689L373.775 427.958V482.495L316.679 509.763L259.582 482.495V427.958L316.679 400.689ZM773.454 73.4671L830.55 100.736V155.273L773.454 182.541L716.357 155.273V100.736L773.454 73.4671ZM1401.52 -8.33844L1458.62 18.9301V73.4671L1401.52 100.736L1344.42 73.4671V18.9301L1401.52 -8.33844ZM1458.62 237.078L1515.71 264.347V318.884L1458.62 346.152L1401.52 318.884V264.347L1458.62 237.078Z" stroke="#B300C2" stroke-opacity="0.75" stroke-width="2.87037"/>
</g>
</g>
<defs>
<clipPath id="clip0_0_1">
<rect width="1440" height="775" fill="white"/>
</clipPath>
</defs>
</svg>
