<svg width="480" height="800" viewBox="0 0 480 800" fill="none" xmlns="http://www.w3.org/2000/svg">
<g clip-path="url(#clip0_6_29)">
<mask id="mask0_6_29" style="mask-type:luminance" maskUnits="userSpaceOnUse" x="0" y="0" width="480" height="800">
<path d="M480 0H0V800H480V0Z" fill="white"/>
</mask>
<g mask="url(#mask0_6_29)">
<path d="M480 0H0V800H480V0Z" fill="black"/>
<path d="M69.27 294L134.23 331.5M69.27 294L4.32001 331.5V406.5L69.27 444M69.27 294V219L134.23 181.5M134.23 331.5V406.5M134.23 331.5L199.18 294M134.23 406.5L69.27 444M134.23 406.5L199.18 444M69.27 444V519L134.23 556.5M264.13 181.5V106.5L199.18 69L134.23 106.5V181.5M264.13 181.5L199.18 219M264.13 181.5L329.09 219M199.18 219L134.23 181.5M199.18 219V294M199.18 294L264.13 331.5M264.13 331.5V406.5L199.18 444M264.13 331.5L329.09 294M199.18 444V519M199.18 519L134.23 556.5M199.18 519L264.13 556.5M134.23 556.5V631.5M264.13 556.5V631.5M264.13 556.5L329.09 519L394.04 556.5M264.13 631.5L199.18 669M264.13 631.5L329.09 669L394.04 631.5M199.18 669L134.23 631.5M199.18 669V744L134.23 781.5L69.27 744V669L134.23 631.5M329.09 219V294M329.09 219L394.04 181.5L459 219V294L394.04 331.5L329.09 294M394.04 556.5V631.5M394.04 556.5L459 519L523.95 556.5V631.5L459 669L394.04 631.5M394.04 781.5L329.09 744L264.13 781.5V856.5L329.09 894L394.04 856.5M394.04 781.5V856.5M394.04 781.5L459 744L523.95 781.5V856.5L459 894L394.04 856.5M394.04 -43.5L459 -6V69L394.04 106.5L329.09 69V-6L394.04 -43.5Z" stroke="#7A2182" stroke-opacity="0.75" stroke-width="2"/>
<path d="M61.77 294C61.77 295.989 62.5602 297.897 63.9667 299.303C65.3732 300.71 67.2809 301.5 69.27 301.5C71.2591 301.5 73.1668 300.71 74.5733 299.303C75.9798 297.897 76.77 295.989 76.77 294C76.77 292.011 75.9798 290.103 74.5733 288.697C73.1668 287.29 71.2591 286.5 69.27 286.5C67.2809 286.5 65.3732 287.29 63.9667 288.697C62.5602 290.103 61.77 292.011 61.77 294ZM126.73 331.5C126.73 333.489 127.52 335.397 128.927 336.803C130.333 338.21 132.241 339 134.23 339C136.219 339 138.127 338.21 139.533 336.803C140.94 335.397 141.73 333.489 141.73 331.5C141.73 329.511 140.94 327.603 139.533 326.197C138.127 324.79 136.219 324 134.23 324C132.241 324 130.333 324.79 128.927 326.197C127.52 327.603 126.73 329.511 126.73 331.5ZM126.73 406.5C126.73 408.489 127.52 410.397 128.927 411.803C130.333 413.21 132.241 414 134.23 414C136.219 414 138.127 413.21 139.533 411.803C140.94 410.397 141.73 408.489 141.73 406.5C141.73 404.511 140.94 402.603 139.533 401.197C138.127 399.79 136.219 399 134.23 399C132.241 399 130.333 399.79 128.927 401.197C127.52 402.603 126.73 404.511 126.73 406.5ZM61.77 444C61.77 445.989 62.5602 447.897 63.9667 449.303C65.3732 450.71 67.2809 451.5 69.27 451.5C71.2591 451.5 73.1668 450.71 74.5733 449.303C75.9798 447.897 76.77 445.989 76.77 444C76.77 442.011 75.9798 440.103 74.5733 438.697C73.1668 437.29 71.2591 436.5 69.27 436.5C67.2809 436.5 65.3732 437.29 63.9667 438.697C62.5602 440.103 61.77 442.011 61.77 444ZM-3.17999 406.5C-3.17999 408.489 -2.38982 410.397 -0.983294 411.803C0.423229 413.21 2.33088 414 4.32001 414C6.30913 414 8.21679 413.21 9.62331 411.803C11.0298 410.397 11.82 408.489 11.82 406.5C11.82 404.511 11.0298 402.603 9.62331 401.197C8.21679 399.79 6.30913 399 4.32001 399C2.33088 399 0.423229 399.79 -0.983294 401.197C-2.38982 402.603 -3.17999 404.511 -3.17999 406.5ZM-3.17999 331.5C-3.17999 333.489 -2.38982 335.397 -0.983294 336.803C0.423229 338.21 2.33088 339 4.32001 339C6.30913 339 8.21679 338.21 9.62331 336.803C11.0298 335.397 11.82 333.489 11.82 331.5C11.82 329.511 11.0298 327.603 9.62331 326.197C8.21679 324.79 6.30913 324 4.32001 324C2.33088 324 0.423229 324.79 -0.983294 326.197C-2.38982 327.603 -3.17999 329.511 -3.17999 331.5ZM191.68 69C191.68 70.9891 192.47 72.8968 193.877 74.3033C195.283 75.7098 197.191 76.5 199.18 76.5C201.169 76.5 203.077 75.7098 204.483 74.3033C205.89 72.8968 206.68 70.9891 206.68 69C206.68 67.0109 205.89 65.1032 204.483 63.6967C203.077 62.2902 201.169 61.5 199.18 61.5C197.191 61.5 195.283 62.2902 193.877 63.6967C192.47 65.1032 191.68 67.0109 191.68 69ZM256.63 106.5C256.63 108.489 257.42 110.397 258.827 111.803C260.233 113.21 262.141 114 264.13 114C266.119 114 268.027 113.21 269.433 111.803C270.84 110.397 271.63 108.489 271.63 106.5C271.63 104.511 270.84 102.603 269.433 101.197C268.027 99.7902 266.119 99 264.13 99C262.141 99 260.233 99.7902 258.827 101.197C257.42 102.603 256.63 104.511 256.63 106.5ZM256.63 181.5C256.63 183.489 257.42 185.397 258.827 186.803C260.233 188.21 262.141 189 264.13 189C266.119 189 268.027 188.21 269.433 186.803C270.84 185.397 271.63 183.489 271.63 181.5C271.63 179.511 270.84 177.603 269.433 176.197C268.027 174.79 266.119 174 264.13 174C262.141 174 260.233 174.79 258.827 176.197C257.42 177.603 256.63 179.511 256.63 181.5ZM191.68 219C191.68 220.989 192.47 222.897 193.877 224.303C195.283 225.71 197.191 226.5 199.18 226.5C201.169 226.5 203.077 225.71 204.483 224.303C205.89 222.897 206.68 220.989 206.68 219C206.68 217.011 205.89 215.103 204.483 213.697C203.077 212.29 201.169 211.5 199.18 211.5C197.191 211.5 195.283 212.29 193.877 213.697C192.47 215.103 191.68 217.011 191.68 219ZM126.73 181.5C126.73 183.489 127.52 185.397 128.927 186.803C130.333 188.21 132.241 189 134.23 189C136.219 189 138.127 188.21 139.533 186.803C140.94 185.397 141.73 183.489 141.73 181.5C141.73 179.511 140.94 177.603 139.533 176.197C138.127 174.79 136.219 174 134.23 174C132.241 174 130.333 174.79 128.927 176.197C127.52 177.603 126.73 179.511 126.73 181.5ZM126.73 106.5C126.73 108.489 127.52 110.397 128.927 111.803C130.333 113.21 132.241 114 134.23 114C136.219 114 138.127 113.21 139.533 111.803C140.94 110.397 141.73 108.489 141.73 106.5C141.73 104.511 140.94 102.603 139.533 101.197C138.127 99.7902 136.219 99 134.23 99C132.241 99 130.333 99.7902 128.927 101.197C127.52 102.603 126.73 104.511 126.73 106.5ZM191.68 294C191.68 295.989 192.47 297.897 193.877 299.303C195.283 300.71 197.191 301.5 199.18 301.5C201.169 301.5 203.077 300.71 204.483 299.303C205.89 297.897 206.68 295.989 206.68 294C206.68 292.011 205.89 290.103 204.483 288.697C203.077 287.29 201.169 286.5 199.18 286.5C197.191 286.5 195.283 287.29 193.877 288.697C192.47 290.103 191.68 292.011 191.68 294ZM61.77 219C61.77 220.989 62.5602 222.897 63.9667 224.303C65.3732 225.71 67.2809 226.5 69.27 226.5C71.2591 226.5 73.1668 225.71 74.5733 224.303C75.9798 222.897 76.77 220.989 76.77 219C76.77 217.011 75.9798 215.103 74.5733 213.697C73.1668 212.29 71.2591 211.5 69.27 211.5C67.2809 211.5 65.3732 212.29 63.9667 213.697C62.5602 215.103 61.77 217.011 61.77 219ZM256.63 331.5C256.63 333.489 257.42 335.397 258.827 336.803C260.233 338.21 262.141 339 264.13 339C266.119 339 268.027 338.21 269.433 336.803C270.84 335.397 271.63 333.489 271.63 331.5C271.63 329.511 270.84 327.603 269.433 326.197C268.027 324.79 266.119 324 264.13 324C262.141 324 260.233 324.79 258.827 326.197C257.42 327.603 256.63 329.511 256.63 331.5ZM256.63 406.5C256.63 408.489 257.42 410.397 258.827 411.803C260.233 413.21 262.141 414 264.13 414C266.119 414 268.027 413.21 269.433 411.803C270.84 410.397 271.63 408.489 271.63 406.5C271.63 404.511 270.84 402.603 269.433 401.197C268.027 399.79 266.119 399 264.13 399C262.141 399 260.233 399.79 258.827 401.197C257.42 402.603 256.63 404.511 256.63 406.5ZM191.68 444C191.68 445.989 192.47 447.897 193.877 449.303C195.283 450.71 197.191 451.5 199.18 451.5C201.169 451.5 203.077 450.71 204.483 449.303C205.89 447.897 206.68 445.989 206.68 444C206.68 442.011 205.89 440.103 204.483 438.697C203.077 437.29 201.169 436.5 199.18 436.5C197.191 436.5 195.283 437.29 193.877 438.697C192.47 440.103 191.68 442.011 191.68 444ZM191.68 519C191.68 520.989 192.47 522.897 193.877 524.303C195.283 525.71 197.191 526.5 199.18 526.5C201.169 526.5 203.077 525.71 204.483 524.303C205.89 522.897 206.68 520.989 206.68 519C206.68 517.011 205.89 515.103 204.483 513.697C203.077 512.29 201.169 511.5 199.18 511.5C197.191 511.5 195.283 512.29 193.877 513.697C192.47 515.103 191.68 517.011 191.68 519ZM126.73 556.5C126.73 558.489 127.52 560.397 128.927 561.803C130.333 563.21 132.241 564 134.23 564C136.219 564 138.127 563.21 139.533 561.803C140.94 560.397 141.73 558.489 141.73 556.5C141.73 554.511 140.94 552.603 139.533 551.197C138.127 549.79 136.219 549 134.23 549C132.241 549 130.333 549.79 128.927 551.197C127.52 552.603 126.73 554.511 126.73 556.5ZM61.77 519C61.77 520.989 62.5602 522.897 63.9667 524.303C65.3732 525.71 67.2809 526.5 69.27 526.5C71.2591 526.5 73.1668 525.71 74.5733 524.303C75.9798 522.897 76.77 520.989 76.77 519C76.77 517.011 75.9798 515.103 74.5733 513.697C73.1668 512.29 71.2591 511.5 69.27 511.5C67.2809 511.5 65.3732 512.29 63.9667 513.697C62.5602 515.103 61.77 517.011 61.77 519ZM256.63 556.5C256.63 558.489 257.42 560.397 258.827 561.803C260.233 563.21 262.141 564 264.13 564C266.119 564 268.027 563.21 269.433 561.803C270.84 560.397 271.63 558.489 271.63 556.5C271.63 554.511 270.84 552.603 269.433 551.197C268.027 549.79 266.119 549 264.13 549C262.141 549 260.233 549.79 258.827 551.197C257.42 552.603 256.63 554.511 256.63 556.5ZM256.63 631.5C256.63 633.489 257.42 635.397 258.827 636.803C260.233 638.21 262.141 639 264.13 639C266.119 639 268.027 638.21 269.433 636.803C270.84 635.397 271.63 633.489 271.63 631.5C271.63 629.511 270.84 627.603 269.433 626.197C268.027 624.79 266.119 624 264.13 624C262.141 624 260.233 624.79 258.827 626.197C257.42 627.603 256.63 629.511 256.63 631.5ZM191.68 669C191.68 670.989 192.47 672.897 193.877 674.303C195.283 675.71 197.191 676.5 199.18 676.5C201.169 676.5 203.077 675.71 204.483 674.303C205.89 672.897 206.68 670.989 206.68 669C206.68 667.011 205.89 665.103 204.483 663.697C203.077 662.29 201.169 661.5 199.18 661.5C197.191 661.5 195.283 662.29 193.877 663.697C192.47 665.103 191.68 667.011 191.68 669ZM126.73 631.5C126.73 633.489 127.52 635.397 128.927 636.803C130.333 638.21 132.241 639 134.23 639C136.219 639 138.127 638.21 139.533 636.803C140.94 635.397 141.73 633.489 141.73 631.5C141.73 629.511 140.94 627.603 139.533 626.197C138.127 624.79 136.219 624 134.23 624C132.241 624 130.333 624.79 128.927 626.197C127.52 627.603 126.73 629.511 126.73 631.5ZM191.68 744C191.68 745.989 192.47 747.897 193.877 749.303C195.283 750.71 197.191 751.5 199.18 751.5C201.169 751.5 203.077 750.71 204.483 749.303C205.89 747.897 206.68 745.989 206.68 744C206.68 742.011 205.89 740.103 204.483 738.697C203.077 737.29 201.169 736.5 199.18 736.5C197.191 736.5 195.283 737.29 193.877 738.697C192.47 740.103 191.68 742.011 191.68 744ZM126.73 781.5C126.73 783.489 127.52 785.397 128.927 786.803C130.333 788.21 132.241 789 134.23 789C136.219 789 138.127 788.21 139.533 786.803C140.94 785.397 141.73 783.489 141.73 781.5C141.73 779.511 140.94 777.603 139.533 776.197C138.127 774.79 136.219 774 134.23 774C132.241 774 130.333 774.79 128.927 776.197C127.52 777.603 126.73 779.511 126.73 781.5ZM61.77 744C61.77 745.989 62.5602 747.897 63.9667 749.303C65.3732 750.71 67.2809 751.5 69.27 751.5C71.2591 751.5 73.1668 750.71 74.5733 749.303C75.9798 747.897 76.77 745.989 76.77 744C76.77 742.011 75.9798 740.103 74.5733 738.697C73.1668 737.29 71.2591 736.5 69.27 736.5C67.2809 736.5 65.3732 737.29 63.9667 738.697C62.5602 740.103 61.77 742.011 61.77 744ZM61.77 669C61.77 670.989 62.5602 672.897 63.9667 674.303C65.3732 675.71 67.2809 676.5 69.27 676.5C71.2591 676.5 73.1668 675.71 74.5733 674.303C75.9798 672.897 76.77 670.989 76.77 669C76.77 667.011 75.9798 665.103 74.5733 663.697C73.1668 662.29 71.2591 661.5 69.27 661.5C67.2809 661.5 65.3732 662.29 63.9667 663.697C62.5602 665.103 61.77 667.011 61.77 669ZM321.59 219C321.59 220.989 322.38 222.897 323.787 224.303C325.193 225.71 327.101 226.5 329.09 226.5C331.079 226.5 332.987 225.71 334.393 224.303C335.8 222.897 336.59 220.989 336.59 219C336.59 217.011 335.8 215.103 334.393 213.697C332.987 212.29 331.079 211.5 329.09 211.5C327.101 211.5 325.193 212.29 323.787 213.697C322.38 215.103 321.59 217.011 321.59 219ZM321.59 294C321.59 295.989 322.38 297.897 323.787 299.303C325.193 300.71 327.101 301.5 329.09 301.5C331.079 301.5 332.987 300.71 334.393 299.303C335.8 297.897 336.59 295.989 336.59 294C336.59 292.011 335.8 290.103 334.393 288.697C332.987 287.29 331.079 286.5 329.09 286.5C327.101 286.5 325.193 287.29 323.787 288.697C322.38 290.103 321.59 292.011 321.59 294ZM321.59 519C321.59 520.989 322.38 522.897 323.787 524.303C325.193 525.71 327.101 526.5 329.09 526.5C331.079 526.5 332.987 525.71 334.393 524.303C335.8 522.897 336.59 520.989 336.59 519C336.59 517.011 335.8 515.103 334.393 513.697C332.987 512.29 331.079 511.5 329.09 511.5C327.101 511.5 325.193 512.29 323.787 513.697C322.38 515.103 321.59 517.011 321.59 519ZM386.54 556.5C386.54 558.489 387.33 560.397 388.737 561.803C390.143 563.21 392.051 564 394.04 564C396.029 564 397.937 563.21 399.343 561.803C400.75 560.397 401.54 558.489 401.54 556.5C401.54 554.511 400.75 552.603 399.343 551.197C397.937 549.79 396.029 549 394.04 549C392.051 549 390.143 549.79 388.737 551.197C387.33 552.603 386.54 554.511 386.54 556.5ZM386.54 631.5C386.54 633.489 387.33 635.397 388.737 636.803C390.143 638.21 392.051 639 394.04 639C396.029 639 397.937 638.21 399.343 636.803C400.75 635.397 401.54 633.489 401.54 631.5C401.54 629.511 400.75 627.603 399.343 626.197C397.937 624.79 396.029 624 394.04 624C392.051 624 390.143 624.79 388.737 626.197C387.33 627.603 386.54 629.511 386.54 631.5ZM321.59 669C321.59 670.989 322.38 672.897 323.787 674.303C325.193 675.71 327.101 676.5 329.09 676.5C331.079 676.5 332.987 675.71 334.393 674.303C335.8 672.897 336.59 670.989 336.59 669C336.59 667.011 335.8 665.103 334.393 663.697C332.987 662.29 331.079 661.5 329.09 661.5C327.101 661.5 325.193 662.29 323.787 663.697C322.38 665.103 321.59 667.011 321.59 669ZM321.59 744C321.59 745.989 322.38 747.897 323.787 749.303C325.193 750.71 327.101 751.5 329.09 751.5C331.079 751.5 332.987 750.71 334.393 749.303C335.8 747.897 336.59 745.989 336.59 744C336.59 742.011 335.8 740.103 334.393 738.697C332.987 737.29 331.079 736.5 329.09 736.5C327.101 736.5 325.193 737.29 323.787 738.697C322.38 740.103 321.59 742.011 321.59 744ZM386.54 781.5C386.54 783.489 387.33 785.397 388.737 786.803C390.143 788.21 392.051 789 394.04 789C396.029 789 397.937 788.21 399.343 786.803C400.75 785.397 401.54 783.489 401.54 781.5C401.54 779.511 400.75 777.603 399.343 776.197C397.937 774.79 396.029 774 394.04 774C392.051 774 390.143 774.79 388.737 776.197C387.33 777.603 386.54 779.511 386.54 781.5ZM386.54 856.5C386.54 858.489 387.33 860.397 388.737 861.803C390.143 863.21 392.051 864 394.04 864C396.029 864 397.937 863.21 399.343 861.803C400.75 860.397 401.54 858.489 401.54 856.5C401.54 854.511 400.75 852.603 399.343 851.197C397.937 849.79 396.029 849 394.04 849C392.051 849 390.143 849.79 388.737 851.197C387.33 852.603 386.54 854.511 386.54 856.5ZM321.59 894C321.59 895.989 322.38 897.897 323.787 899.303C325.193 900.71 327.101 901.5 329.09 901.5C331.079 901.5 332.987 900.71 334.393 899.303C335.8 897.897 336.59 895.989 336.59 894C336.59 892.011 335.8 890.103 334.393 888.697C332.987 887.29 331.079 886.5 329.09 886.5C327.101 886.5 325.193 887.29 323.787 888.697C322.38 890.103 321.59 892.011 321.59 894ZM256.63 856.5C256.63 858.489 257.42 860.397 258.827 861.803C260.233 863.21 262.141 864 264.13 864C266.119 864 268.027 863.21 269.433 861.803C270.84 860.397 271.63 858.489 271.63 856.5C271.63 854.511 270.84 852.603 269.433 851.197C268.027 849.79 266.119 849 264.13 849C262.141 849 260.233 849.79 258.827 851.197C257.42 852.603 256.63 854.511 256.63 856.5ZM256.63 781.5C256.63 783.489 257.42 785.397 258.827 786.803C260.233 788.21 262.141 789 264.13 789C266.119 789 268.027 788.21 269.433 786.803C270.84 785.397 271.63 783.489 271.63 781.5C271.63 779.511 270.84 777.603 269.433 776.197C268.027 774.79 266.119 774 264.13 774C262.141 774 260.233 774.79 258.827 776.197C257.42 777.603 256.63 779.511 256.63 781.5ZM386.54 -43.5C386.54 -41.5109 387.33 -39.6032 388.737 -38.1967C390.143 -36.7902 392.051 -36 394.04 -36C396.029 -36 397.937 -36.7902 399.343 -38.1967C400.75 -39.6032 401.54 -41.5109 401.54 -43.5C401.54 -45.4891 400.75 -47.3968 399.343 -48.8033C397.937 -50.2098 396.029 -51 394.04 -51C392.051 -51 390.143 -50.2098 388.737 -48.8033C387.33 -47.3968 386.54 -45.4891 386.54 -43.5ZM451.5 -6C451.5 -4.01088 452.29 -2.10322 453.697 -0.696701C455.103 0.709822 457.011 1.5 459 1.5C460.989 1.5 462.897 0.709822 464.303 -0.696701C465.71 -2.10322 466.5 -4.01088 466.5 -6C466.5 -7.98912 465.71 -9.89678 464.303 -11.3033C462.897 -12.7098 460.989 -13.5 459 -13.5C457.011 -13.5 455.103 -12.7098 453.697 -11.3033C452.29 -9.89678 451.5 -7.98912 451.5 -6ZM451.5 69C451.5 70.9891 452.29 72.8968 453.697 74.3033C455.103 75.7098 457.011 76.5 459 76.5C460.989 76.5 462.897 75.7098 464.303 74.3033C465.71 72.8968 466.5 70.9891 466.5 69C466.5 67.0109 465.71 65.1032 464.303 63.6967C462.897 62.2902 460.989 61.5 459 61.5C457.011 61.5 455.103 62.2902 453.697 63.6967C452.29 65.1032 451.5 67.0109 451.5 69ZM386.54 106.5C386.54 108.489 387.33 110.397 388.737 111.803C390.143 113.21 392.051 114 394.04 114C396.029 114 397.937 113.21 399.343 111.803C400.75 110.397 401.54 108.489 401.54 106.5C401.54 104.511 400.75 102.603 399.343 101.197C397.937 99.7902 396.029 99 394.04 99C392.051 99 390.143 99.7902 388.737 101.197C387.33 102.603 386.54 104.511 386.54 106.5ZM321.59 69C321.59 70.9891 322.38 72.8968 323.787 74.3033C325.193 75.7098 327.101 76.5 329.09 76.5C331.079 76.5 332.987 75.7098 334.393 74.3033C335.8 72.8968 336.59 70.9891 336.59 69C336.59 67.0109 335.8 65.1032 334.393 63.6967C332.987 62.2902 331.079 61.5 329.09 61.5C327.101 61.5 325.193 62.2902 323.787 63.6967C322.38 65.1032 321.59 67.0109 321.59 69ZM321.59 -6C321.59 -4.01088 322.38 -2.10322 323.787 -0.696701C325.193 0.709822 327.101 1.5 329.09 1.5C331.079 1.5 332.987 0.709822 334.393 -0.696701C335.8 -2.10322 336.59 -4.01088 336.59 -6C336.59 -7.98912 335.8 -9.89678 334.393 -11.3033C332.987 -12.7098 331.079 -13.5 329.09 -13.5C327.101 -13.5 325.193 -12.7098 323.787 -11.3033C322.38 -9.89678 321.59 -7.98912 321.59 -6ZM386.54 181.5C386.54 183.489 387.33 185.397 388.737 186.803C390.143 188.21 392.051 189 394.04 189C396.029 189 397.937 188.21 399.343 186.803C400.75 185.397 401.54 183.489 401.54 181.5C401.54 179.511 400.75 177.603 399.343 176.197C397.937 174.79 396.029 174 394.04 174C392.051 174 390.143 174.79 388.737 176.197C387.33 177.603 386.54 179.511 386.54 181.5ZM451.5 219C451.5 220.989 452.29 222.897 453.697 224.303C455.103 225.71 457.011 226.5 459 226.5C460.989 226.5 462.897 225.71 464.303 224.303C465.71 222.897 466.5 220.989 466.5 219C466.5 217.011 465.71 215.103 464.303 213.697C462.897 212.29 460.989 211.5 459 211.5C457.011 211.5 455.103 212.29 453.697 213.697C452.29 215.103 451.5 217.011 451.5 219ZM451.5 294C451.5 295.989 452.29 297.897 453.697 299.303C455.103 300.71 457.011 301.5 459 301.5C460.989 301.5 462.897 300.71 464.303 299.303C465.71 297.897 466.5 295.989 466.5 294C466.5 292.011 465.71 290.103 464.303 288.697C462.897 287.29 460.989 286.5 459 286.5C457.011 286.5 455.103 287.29 453.697 288.697C452.29 290.103 451.5 292.011 451.5 294ZM386.54 331.5C386.54 333.489 387.33 335.397 388.737 336.803C390.143 338.21 392.051 339 394.04 339C396.029 339 397.937 338.21 399.343 336.803C400.75 335.397 401.54 333.489 401.54 331.5C401.54 329.511 400.75 327.603 399.343 326.197C397.937 324.79 396.029 324 394.04 324C392.051 324 390.143 324.79 388.737 326.197C387.33 327.603 386.54 329.511 386.54 331.5ZM451.5 519C451.5 520.989 452.29 522.897 453.697 524.303C455.103 525.71 457.011 526.5 459 526.5C460.989 526.5 462.897 525.71 464.303 524.303C465.71 522.897 466.5 520.989 466.5 519C466.5 517.011 465.71 515.103 464.303 513.697C462.897 512.29 460.989 511.5 459 511.5C457.011 511.5 455.103 512.29 453.697 513.697C452.29 515.103 451.5 517.011 451.5 519ZM516.45 556.5C516.45 558.489 517.24 560.397 518.647 561.803C520.053 563.21 521.961 564 523.95 564C525.939 564 527.847 563.21 529.253 561.803C530.66 560.397 531.45 558.489 531.45 556.5C531.45 554.511 530.66 552.603 529.253 551.197C527.847 549.79 525.939 549 523.95 549C521.961 549 520.053 549.79 518.647 551.197C517.24 552.603 516.45 554.511 516.45 556.5ZM516.45 631.5C516.45 633.489 517.24 635.397 518.647 636.803C520.053 638.21 521.961 639 523.95 639C525.939 639 527.847 638.21 529.253 636.803C530.66 635.397 531.45 633.489 531.45 631.5C531.45 629.511 530.66 627.603 529.253 626.197C527.847 624.79 525.939 624 523.95 624C521.961 624 520.053 624.79 518.647 626.197C517.24 627.603 516.45 629.511 516.45 631.5ZM451.5 669C451.5 670.989 452.29 672.897 453.697 674.303C455.103 675.71 457.011 676.5 459 676.5C460.989 676.5 462.897 675.71 464.303 674.303C465.71 672.897 466.5 670.989 466.5 669C466.5 667.011 465.71 665.103 464.303 663.697C462.897 662.29 460.989 661.5 459 661.5C457.011 661.5 455.103 662.29 453.697 663.697C452.29 665.103 451.5 667.011 451.5 669ZM451.5 744C451.5 745.989 452.29 747.897 453.697 749.303C455.103 750.71 457.011 751.5 459 751.5C460.989 751.5 462.897 750.71 464.303 749.303C465.71 747.897 466.5 745.989 466.5 744C466.5 742.011 465.71 740.103 464.303 738.697C462.897 737.29 460.989 736.5 459 736.5C457.011 736.5 455.103 737.29 453.697 738.697C452.29 740.103 451.5 742.011 451.5 744ZM516.45 781.5C516.45 783.489 517.24 785.397 518.647 786.803C520.053 788.21 521.961 789 523.95 789C525.939 789 527.847 788.21 529.253 786.803C530.66 785.397 531.45 783.489 531.45 781.5C531.45 779.511 530.66 777.603 529.253 776.197C527.847 774.79 525.939 774 523.95 774C521.961 774 520.053 774.79 518.647 776.197C517.24 777.603 516.45 779.511 516.45 781.5ZM516.45 856.5C516.45 858.489 517.24 860.397 518.647 861.803C520.053 863.21 521.961 864 523.95 864C525.939 864 527.847 863.21 529.253 861.803C530.66 860.397 531.45 858.489 531.45 856.5C531.45 854.511 530.66 852.603 529.253 851.197C527.847 849.79 525.939 849 523.95 849C521.961 849 520.053 849.79 518.647 851.197C517.24 852.603 516.45 854.511 516.45 856.5ZM451.5 894C451.5 895.989 452.29 897.897 453.697 899.303C455.103 900.71 457.011 901.5 459 901.5C460.989 901.5 462.897 900.71 464.303 899.303C465.71 897.897 466.5 895.989 466.5 894C466.5 892.011 465.71 890.103 464.303 888.697C462.897 887.29 460.989 886.5 459 886.5C457.011 886.5 455.103 887.29 453.697 888.697C452.29 890.103 451.5 892.011 451.5 894Z" fill="#7A2182" fill-opacity="0.75"/>
<path d="M67.24 772.29L110.55 747.29V697.29L67.24 672.29L23.94 697.29V747.29M67.24 772.29L23.94 747.29M67.24 772.29V822.29M23.94 747.29L-19.36 772.29V822.29L23.94 847.29M67.24 822.29L23.94 847.29M67.24 822.29L110.55 847.29V897.29L67.24 922.29L23.94 897.29V847.29M153.85 372.29V322.29L110.55 297.29L67.24 322.29V372.29L110.55 397.29M153.85 372.29L110.55 397.29M153.85 372.29L197.15 397.29V447.29L153.85 472.29L110.55 447.29V397.29M240.45 772.29L283.75 747.29V697.29L240.45 672.29L197.15 697.29V747.29M240.45 772.29L197.15 747.29M240.45 772.29V822.29L197.15 847.29L153.85 822.29V772.29L197.15 747.29M370.36 847.29L327.06 822.29L283.75 847.29V897.29L327.06 922.29L370.36 897.29M370.36 847.29V897.29M370.36 847.29L413.66 822.29L456.97 847.29V897.29L413.66 922.29L370.36 897.29M197.15 -2.70996L240.45 22.29V72.29L197.15 97.29L153.85 72.29V22.29L197.15 -2.70996ZM283.75 147.29L327.06 172.29V222.29L283.75 247.29L240.45 222.29V172.29L283.75 147.29ZM327.06 372.29L370.36 397.29V447.29L327.06 472.29L283.75 447.29V397.29L327.06 372.29ZM327.06 522.29L370.36 547.29V597.29L327.06 622.29L283.75 597.29V547.29L327.06 522.29ZM456.97 -2.70996L500.27 22.29V72.29L456.97 97.29L413.66 72.29V22.29L456.97 -2.70996Z" stroke="#B300C2" stroke-opacity="0.75" stroke-width="2"/>
</g>
</g>
<defs>
<clipPath id="clip0_6_29">
<rect width="480" height="800" fill="white"/>
</clipPath>
</defs>
</svg>
