<svg width="1024" height="1366" viewBox="0 0 1024 1366" fill="none" xmlns="http://www.w3.org/2000/svg">
<g clip-path="url(#clip0_6_20)">
<mask id="mask0_6_20" style="mask-type:luminance" maskUnits="userSpaceOnUse" x="0" y="0" width="1024" height="1366">
<path d="M1024 0H0V1366H1024V0Z" fill="white"/>
</mask>
<g mask="url(#mask0_6_20)">
<path d="M1024 0H0V1366H1024V0Z" fill="black"/>
<path d="M133.44 90.9299V15.9299L68.49 -21.5701L3.53998 15.9299V90.9299L68.49 128.43M133.44 90.9299L68.49 128.43M133.44 90.9299L198.4 128.43M68.49 128.43V203.43L133.44 240.93L198.4 203.43M198.4 128.43V203.43M198.4 128.43L263.35 90.9299L328.31 128.43V203.43L263.35 240.93L198.4 203.43M133.44 465.93L68.49 428.43L3.53998 465.93V540.93L68.49 578.43M133.44 465.93V540.93M133.44 465.93L198.4 428.43M133.44 540.93L68.49 578.43M133.44 540.93L198.4 578.43M68.49 578.43V653.43L133.44 690.93M198.4 578.43V653.43M198.4 578.43L263.35 540.93M198.4 653.43L133.44 690.93M198.4 653.43L263.35 690.93M133.44 690.93V765.93M133.44 765.93L198.4 803.43M133.44 765.93L68.49 803.43V878.43L133.44 915.93L198.4 878.43V803.43M198.4 803.43L263.35 765.93M198.4 1103.43V1028.43L133.44 990.93L68.49 1028.43V1103.43M198.4 1103.43L133.44 1140.93M198.4 1103.43L263.35 1140.93V1215.93L198.4 1253.43M133.44 1140.93L68.49 1103.43M133.44 1140.93V1215.93M68.49 1103.43L3.53998 1140.93V1215.93L68.49 1253.43M133.44 1215.93L68.49 1253.43M133.44 1215.93L198.4 1253.43M68.49 1253.43V1328.43L133.44 1365.93L198.4 1328.43V1253.43M328.31 353.43L263.35 315.93L198.4 353.43V428.43M328.31 353.43V428.43M328.31 353.43L393.26 315.93L458.21 353.43M328.31 428.43L263.35 465.93M328.31 428.43L393.26 465.93L458.21 428.43M263.35 465.93L198.4 428.43M263.35 465.93V540.93M263.35 540.93L328.31 578.43V653.43M328.31 653.43L263.35 690.93M328.31 653.43L393.26 690.93V765.93L328.31 803.43L263.35 765.93M263.35 690.93V765.93M458.21 353.43V428.43M458.21 353.43L523.17 315.93L588.12 353.43V428.43M458.21 428.43L523.17 465.93M393.26 1215.93L458.21 1253.43M393.26 1215.93L328.31 1253.43V1328.43M393.26 1215.93V1140.93L458.21 1103.43M458.21 1253.43V1328.43L393.26 1365.93M458.21 1253.43L523.17 1215.93M393.26 1365.93L328.31 1328.43M393.26 1365.93V1440.93L328.31 1478.43L263.35 1440.93V1365.93L328.31 1328.43M588.12 428.43L523.17 465.93M588.12 428.43L653.07 465.93V540.93L588.12 578.43M523.17 465.93V540.93M523.17 540.93L588.12 578.43M523.17 540.93L458.21 578.43V653.43L523.17 690.93M588.12 578.43V653.43M588.12 653.43L523.17 690.93M588.12 653.43L653.07 690.93V765.93L588.12 803.43L523.17 765.93V690.93M523.17 990.93L588.12 1028.43M523.17 990.93L458.21 1028.43V1103.43M523.17 990.93V915.93L588.12 878.43L653.07 915.93V990.93L588.12 1028.43M588.12 1028.43V1103.43M588.12 1103.43L523.17 1140.93M588.12 1103.43L653.07 1140.93V1215.93L588.12 1253.43L523.17 1215.93M523.17 1140.93L458.21 1103.43M523.17 1140.93V1215.93M782.98 765.93L847.94 803.43V878.43L782.98 915.93M782.98 765.93L718.03 803.43V878.43L782.98 915.93M782.98 765.93L847.93 803.43L912.89 765.93M782.98 765.93V690.93L847.93 653.43L912.89 690.93M782.98 915.93V990.93M782.98 915.93L847.93 878.43L912.89 915.93M782.98 990.93L847.94 1028.43V1103.43L782.98 1140.93L718.03 1103.43V1028.43L782.98 990.93ZM782.98 990.93L847.93 1028.43M782.98 1365.93L847.94 1328.43V1253.43L782.98 1215.93L718.03 1253.43V1328.43M782.98 1365.93L718.03 1328.43M782.98 1365.93V1440.93L718.03 1478.43L653.07 1440.93V1365.93L718.03 1328.43M977.84 428.43V353.43L912.89 315.93L847.93 353.43V428.43L912.89 465.93M977.84 428.43L912.89 465.93M977.84 428.43L1042.8 465.93V540.93L977.84 578.43L912.89 540.93V465.93M912.89 690.93V765.93M912.89 690.93L977.84 653.43L1042.8 690.93V765.93L977.84 803.43L912.89 765.93M912.89 915.93V990.93M912.89 915.93L977.84 878.43L1042.8 915.93V990.93L977.84 1028.43M912.89 990.93L847.93 1028.43M912.89 990.93L977.84 1028.43M847.93 1028.43V1103.43L912.89 1140.93L977.84 1103.43V1028.43M718.03 203.43L782.98 240.93V315.93L718.03 353.43L653.07 315.93V240.93L718.03 203.43ZM847.93 -21.5701L912.89 15.9299V90.9299L847.93 128.43L782.98 90.9299V15.9299L847.93 -21.5701Z" stroke="#7A2182" stroke-opacity="0.75" stroke-width="2"/>
<path d="M60.99 -21.5701C60.99 -19.5809 61.7802 -17.6733 63.1867 -16.2668C64.5932 -14.8602 66.5009 -14.0701 68.49 -14.0701C70.4791 -14.0701 72.3868 -14.8602 73.7933 -16.2668C75.1998 -17.6733 75.99 -19.5809 75.99 -21.5701C75.99 -23.5592 75.1998 -25.4668 73.7933 -26.8734C72.3868 -28.2799 70.4791 -29.0701 68.49 -29.0701C66.5009 -29.0701 64.5932 -28.2799 63.1867 -26.8734C61.7802 -25.4668 60.99 -23.5592 60.99 -21.5701ZM125.94 15.9299C125.94 17.9191 126.73 19.8267 128.137 21.2332C129.543 22.6398 131.451 23.4299 133.44 23.4299C135.429 23.4299 137.337 22.6398 138.743 21.2332C140.15 19.8267 140.94 17.9191 140.94 15.9299C140.94 13.9408 140.15 12.0332 138.743 10.6266C137.337 9.22011 135.429 8.42993 133.44 8.42993C131.451 8.42993 129.543 9.22011 128.137 10.6266C126.73 12.0332 125.94 13.9408 125.94 15.9299ZM125.94 90.9299C125.94 92.9191 126.73 94.8267 128.137 96.2332C129.543 97.6398 131.451 98.4299 133.44 98.4299C135.429 98.4299 137.337 97.6398 138.743 96.2332C140.15 94.8267 140.94 92.9191 140.94 90.9299C140.94 88.9408 140.15 87.0332 138.743 85.6266C137.337 84.2201 135.429 83.4299 133.44 83.4299C131.451 83.4299 129.543 84.2201 128.137 85.6266C126.73 87.0332 125.94 88.9408 125.94 90.9299ZM60.99 128.43C60.99 130.419 61.7802 132.327 63.1867 133.733C64.5932 135.14 66.5009 135.93 68.49 135.93C70.4791 135.93 72.3868 135.14 73.7933 133.733C75.1998 132.327 75.99 130.419 75.99 128.43C75.99 126.441 75.1998 124.533 73.7933 123.127C72.3868 121.72 70.4791 120.93 68.49 120.93C66.5009 120.93 64.5932 121.72 63.1867 123.127C61.7802 124.533 60.99 126.441 60.99 128.43ZM-3.96002 90.9299C-3.96002 92.9191 -3.16985 94.8267 -1.76332 96.2332C-0.3568 97.6398 1.55085 98.4299 3.53998 98.4299C5.5291 98.4299 7.43676 97.6398 8.84328 96.2332C10.2498 94.8267 11.04 92.9191 11.04 90.9299C11.04 88.9408 10.2498 87.0332 8.84328 85.6266C7.43676 84.2201 5.5291 83.4299 3.53998 83.4299C1.55085 83.4299 -0.3568 84.2201 -1.76332 85.6266C-3.16985 87.0332 -3.96002 88.9408 -3.96002 90.9299ZM-3.96002 15.9299C-3.96002 17.9191 -3.16985 19.8267 -1.76332 21.2332C-0.3568 22.6398 1.55085 23.4299 3.53998 23.4299C5.5291 23.4299 7.43676 22.6398 8.84328 21.2332C10.2498 19.8267 11.04 17.9191 11.04 15.9299C11.04 13.9408 10.2498 12.0332 8.84328 10.6266C7.43676 9.22011 5.5291 8.42993 3.53998 8.42993C1.55085 8.42993 -0.3568 9.22011 -1.76332 10.6266C-3.16985 12.0332 -3.96002 13.9408 -3.96002 15.9299ZM190.9 128.43C190.9 130.419 191.69 132.327 193.097 133.733C194.503 135.14 196.411 135.93 198.4 135.93C200.389 135.93 202.297 135.14 203.703 133.733C205.11 132.327 205.9 130.419 205.9 128.43C205.9 126.441 205.11 124.533 203.703 123.127C202.297 121.72 200.389 120.93 198.4 120.93C196.411 120.93 194.503 121.72 193.097 123.127C191.69 124.533 190.9 126.441 190.9 128.43ZM190.9 203.43C190.9 205.419 191.69 207.327 193.097 208.733C194.503 210.14 196.411 210.93 198.4 210.93C200.389 210.93 202.297 210.14 203.703 208.733C205.11 207.327 205.9 205.419 205.9 203.43C205.9 201.441 205.11 199.533 203.703 198.127C202.297 196.72 200.389 195.93 198.4 195.93C196.411 195.93 194.503 196.72 193.097 198.127C191.69 199.533 190.9 201.441 190.9 203.43ZM125.94 240.93C125.94 242.919 126.73 244.827 128.137 246.233C129.543 247.64 131.451 248.43 133.44 248.43C135.429 248.43 137.337 247.64 138.743 246.233C140.15 244.827 140.94 242.919 140.94 240.93C140.94 238.941 140.15 237.033 138.743 235.627C137.337 234.22 135.429 233.43 133.44 233.43C131.451 233.43 129.543 234.22 128.137 235.627C126.73 237.033 125.94 238.941 125.94 240.93ZM60.99 203.43C60.99 205.419 61.7802 207.327 63.1867 208.733C64.5932 210.14 66.5009 210.93 68.49 210.93C70.4791 210.93 72.3868 210.14 73.7933 208.733C75.1998 207.327 75.99 205.419 75.99 203.43C75.99 201.441 75.1998 199.533 73.7933 198.127C72.3868 196.72 70.4791 195.93 68.49 195.93C66.5009 195.93 64.5932 196.72 63.1867 198.127C61.7802 199.533 60.99 201.441 60.99 203.43ZM60.99 428.43C60.99 430.419 61.7802 432.327 63.1867 433.733C64.5932 435.14 66.5009 435.93 68.49 435.93C70.4791 435.93 72.3868 435.14 73.7933 433.733C75.1998 432.327 75.99 430.419 75.99 428.43C75.99 426.441 75.1998 424.533 73.7933 423.127C72.3868 421.72 70.4791 420.93 68.49 420.93C66.5009 420.93 64.5932 421.72 63.1867 423.127C61.7802 424.533 60.99 426.441 60.99 428.43ZM125.94 465.93C125.94 467.919 126.73 469.827 128.137 471.233C129.543 472.64 131.451 473.43 133.44 473.43C135.429 473.43 137.337 472.64 138.743 471.233C140.15 469.827 140.94 467.919 140.94 465.93C140.94 463.941 140.15 462.033 138.743 460.627C137.337 459.22 135.429 458.43 133.44 458.43C131.451 458.43 129.543 459.22 128.137 460.627C126.73 462.033 125.94 463.941 125.94 465.93ZM125.94 540.93C125.94 542.919 126.73 544.827 128.137 546.233C129.543 547.64 131.451 548.43 133.44 548.43C135.429 548.43 137.337 547.64 138.743 546.233C140.15 544.827 140.94 542.919 140.94 540.93C140.94 538.941 140.15 537.033 138.743 535.627C137.337 534.22 135.429 533.43 133.44 533.43C131.451 533.43 129.543 534.22 128.137 535.627C126.73 537.033 125.94 538.941 125.94 540.93ZM60.99 578.43C60.99 580.419 61.7802 582.327 63.1867 583.733C64.5932 585.14 66.5009 585.93 68.49 585.93C70.4791 585.93 72.3868 585.14 73.7933 583.733C75.1998 582.327 75.99 580.419 75.99 578.43C75.99 576.441 75.1998 574.533 73.7933 573.127C72.3868 571.72 70.4791 570.93 68.49 570.93C66.5009 570.93 64.5932 571.72 63.1867 573.127C61.7802 574.533 60.99 576.441 60.99 578.43ZM-3.96002 540.93C-3.96002 542.919 -3.16985 544.827 -1.76332 546.233C-0.3568 547.64 1.55085 548.43 3.53998 548.43C5.5291 548.43 7.43676 547.64 8.84328 546.233C10.2498 544.827 11.04 542.919 11.04 540.93C11.04 538.941 10.2498 537.033 8.84328 535.627C7.43676 534.22 5.5291 533.43 3.53998 533.43C1.55085 533.43 -0.3568 534.22 -1.76332 535.627C-3.16985 537.033 -3.96002 538.941 -3.96002 540.93ZM-3.96002 465.93C-3.96002 467.919 -3.16985 469.827 -1.76332 471.233C-0.3568 472.64 1.55085 473.43 3.53998 473.43C5.5291 473.43 7.43676 472.64 8.84328 471.233C10.2498 469.827 11.04 467.919 11.04 465.93C11.04 463.941 10.2498 462.033 8.84328 460.627C7.43676 459.22 5.5291 458.43 3.53998 458.43C1.55085 458.43 -0.3568 459.22 -1.76332 460.627C-3.16985 462.033 -3.96002 463.941 -3.96002 465.93ZM190.9 578.43C190.9 580.419 191.69 582.327 193.097 583.733C194.503 585.14 196.411 585.93 198.4 585.93C200.389 585.93 202.297 585.14 203.703 583.733C205.11 582.327 205.9 580.419 205.9 578.43C205.9 576.441 205.11 574.533 203.703 573.127C202.297 571.72 200.389 570.93 198.4 570.93C196.411 570.93 194.503 571.72 193.097 573.127C191.69 574.533 190.9 576.441 190.9 578.43ZM190.9 653.43C190.9 655.419 191.69 657.327 193.097 658.733C194.503 660.14 196.411 660.93 198.4 660.93C200.389 660.93 202.297 660.14 203.703 658.733C205.11 657.327 205.9 655.419 205.9 653.43C205.9 651.441 205.11 649.533 203.703 648.127C202.297 646.72 200.389 645.93 198.4 645.93C196.411 645.93 194.503 646.72 193.097 648.127C191.69 649.533 190.9 651.441 190.9 653.43ZM125.94 690.93C125.94 692.919 126.73 694.827 128.137 696.233C129.543 697.64 131.451 698.43 133.44 698.43C135.429 698.43 137.337 697.64 138.743 696.233C140.15 694.827 140.94 692.919 140.94 690.93C140.94 688.941 140.15 687.033 138.743 685.627C137.337 684.22 135.429 683.43 133.44 683.43C131.451 683.43 129.543 684.22 128.137 685.627C126.73 687.033 125.94 688.941 125.94 690.93ZM60.99 653.43C60.99 655.419 61.7802 657.327 63.1867 658.733C64.5932 660.14 66.5009 660.93 68.49 660.93C70.4791 660.93 72.3868 660.14 73.7933 658.733C75.1998 657.327 75.99 655.419 75.99 653.43C75.99 651.441 75.1998 649.533 73.7933 648.127C72.3868 646.72 70.4791 645.93 68.49 645.93C66.5009 645.93 64.5932 646.72 63.1867 648.127C61.7802 649.533 60.99 651.441 60.99 653.43ZM125.94 765.93C125.94 767.919 126.73 769.827 128.137 771.233C129.543 772.64 131.451 773.43 133.44 773.43C135.429 773.43 137.337 772.64 138.743 771.233C140.15 769.827 140.94 767.919 140.94 765.93C140.94 763.941 140.15 762.033 138.743 760.627C137.337 759.22 135.429 758.43 133.44 758.43C131.451 758.43 129.543 759.22 128.137 760.627C126.73 762.033 125.94 763.941 125.94 765.93ZM190.9 803.43C190.9 805.419 191.69 807.327 193.097 808.733C194.503 810.14 196.411 810.93 198.4 810.93C200.389 810.93 202.297 810.14 203.703 808.733C205.11 807.327 205.9 805.419 205.9 803.43C205.9 801.441 205.11 799.533 203.703 798.127C202.297 796.72 200.389 795.93 198.4 795.93C196.411 795.93 194.503 796.72 193.097 798.127C191.69 799.533 190.9 801.441 190.9 803.43ZM190.9 878.43C190.9 880.419 191.69 882.327 193.097 883.733C194.503 885.14 196.411 885.93 198.4 885.93C200.389 885.93 202.297 885.14 203.703 883.733C205.11 882.327 205.9 880.419 205.9 878.43C205.9 876.441 205.11 874.533 203.703 873.127C202.297 871.72 200.389 870.93 198.4 870.93C196.411 870.93 194.503 871.72 193.097 873.127C191.69 874.533 190.9 876.441 190.9 878.43ZM125.94 915.93C125.94 917.919 126.73 919.827 128.137 921.233C129.543 922.64 131.451 923.43 133.44 923.43C135.429 923.43 137.337 922.64 138.743 921.233C140.15 919.827 140.94 917.919 140.94 915.93C140.94 913.941 140.15 912.033 138.743 910.627C137.337 909.22 135.429 908.43 133.44 908.43C131.451 908.43 129.543 909.22 128.137 910.627C126.73 912.033 125.94 913.941 125.94 915.93ZM60.99 878.43C60.99 880.419 61.7802 882.327 63.1867 883.733C64.5932 885.14 66.5009 885.93 68.49 885.93C70.4791 885.93 72.3868 885.14 73.7933 883.733C75.1998 882.327 75.99 880.419 75.99 878.43C75.99 876.441 75.1998 874.533 73.7933 873.127C72.3868 871.72 70.4791 870.93 68.49 870.93C66.5009 870.93 64.5932 871.72 63.1867 873.127C61.7802 874.533 60.99 876.441 60.99 878.43ZM60.99 803.43C60.99 805.419 61.7802 807.327 63.1867 808.733C64.5932 810.14 66.5009 810.93 68.49 810.93C70.4791 810.93 72.3868 810.14 73.7933 808.733C75.1998 807.327 75.99 805.419 75.99 803.43C75.99 801.441 75.1998 799.533 73.7933 798.127C72.3868 796.72 70.4791 795.93 68.49 795.93C66.5009 795.93 64.5932 796.72 63.1867 798.127C61.7802 799.533 60.99 801.441 60.99 803.43ZM125.94 990.93C125.94 992.919 126.73 994.827 128.137 996.233C129.543 997.64 131.451 998.43 133.44 998.43C135.429 998.43 137.337 997.64 138.743 996.233C140.15 994.827 140.94 992.919 140.94 990.93C140.94 988.941 140.15 987.033 138.743 985.627C137.337 984.22 135.429 983.43 133.44 983.43C131.451 983.43 129.543 984.22 128.137 985.627C126.73 987.033 125.94 988.941 125.94 990.93ZM190.9 1028.43C190.9 1030.42 191.69 1032.33 193.097 1033.73C194.503 1035.14 196.411 1035.93 198.4 1035.93C200.389 1035.93 202.297 1035.14 203.703 1033.73C205.11 1032.33 205.9 1030.42 205.9 1028.43C205.9 1026.44 205.11 1024.53 203.703 1023.13C202.297 1021.72 200.389 1020.93 198.4 1020.93C196.411 1020.93 194.503 1021.72 193.097 1023.13C191.69 1024.53 190.9 1026.44 190.9 1028.43ZM190.9 1103.43C190.9 1105.42 191.69 1107.33 193.097 1108.73C194.503 1110.14 196.411 1110.93 198.4 1110.93C200.389 1110.93 202.297 1110.14 203.703 1108.73C205.11 1107.33 205.9 1105.42 205.9 1103.43C205.9 1101.44 205.11 1099.53 203.703 1098.13C202.297 1096.72 200.389 1095.93 198.4 1095.93C196.411 1095.93 194.503 1096.72 193.097 1098.13C191.69 1099.53 190.9 1101.44 190.9 1103.43ZM125.94 1140.93C125.94 1142.92 126.73 1144.83 128.137 1146.23C129.543 1147.64 131.451 1148.43 133.44 1148.43C135.429 1148.43 137.337 1147.64 138.743 1146.23C140.15 1144.83 140.94 1142.92 140.94 1140.93C140.94 1138.94 140.15 1137.03 138.743 1135.63C137.337 1134.22 135.429 1133.43 133.44 1133.43C131.451 1133.43 129.543 1134.22 128.137 1135.63C126.73 1137.03 125.94 1138.94 125.94 1140.93ZM60.99 1103.43C60.99 1105.42 61.7802 1107.33 63.1867 1108.73C64.5932 1110.14 66.5009 1110.93 68.49 1110.93C70.4791 1110.93 72.3868 1110.14 73.7933 1108.73C75.1998 1107.33 75.99 1105.42 75.99 1103.43C75.99 1101.44 75.1998 1099.53 73.7933 1098.13C72.3868 1096.72 70.4791 1095.93 68.49 1095.93C66.5009 1095.93 64.5932 1096.72 63.1867 1098.13C61.7802 1099.53 60.99 1101.44 60.99 1103.43ZM60.99 1028.43C60.99 1030.42 61.7802 1032.33 63.1867 1033.73C64.5932 1035.14 66.5009 1035.93 68.49 1035.93C70.4791 1035.93 72.3868 1035.14 73.7933 1033.73C75.1998 1032.33 75.99 1030.42 75.99 1028.43C75.99 1026.44 75.1998 1024.53 73.7933 1023.13C72.3868 1021.72 70.4791 1020.93 68.49 1020.93C66.5009 1020.93 64.5932 1021.72 63.1867 1023.13C61.7802 1024.53 60.99 1026.44 60.99 1028.43ZM125.94 1215.93C125.94 1217.92 126.73 1219.83 128.137 1221.23C129.543 1222.64 131.451 1223.43 133.44 1223.43C135.429 1223.43 137.337 1222.64 138.743 1221.23C140.15 1219.83 140.94 1217.92 140.94 1215.93C140.94 1213.94 140.15 1212.03 138.743 1210.63C137.337 1209.22 135.429 1208.43 133.44 1208.43C131.451 1208.43 129.543 1209.22 128.137 1210.63C126.73 1212.03 125.94 1213.94 125.94 1215.93ZM60.99 1253.43C60.99 1255.42 61.7802 1257.33 63.1867 1258.73C64.5932 1260.14 66.5009 1260.93 68.49 1260.93C70.4791 1260.93 72.3868 1260.14 73.7933 1258.73C75.1998 1257.33 75.99 1255.42 75.99 1253.43C75.99 1251.44 75.1998 1249.53 73.7933 1248.13C72.3868 1246.72 70.4791 1245.93 68.49 1245.93C66.5009 1245.93 64.5932 1246.72 63.1867 1248.13C61.7802 1249.53 60.99 1251.44 60.99 1253.43ZM-3.96002 1215.93C-3.96002 1217.92 -3.16985 1219.83 -1.76332 1221.23C-0.3568 1222.64 1.55085 1223.43 3.53998 1223.43C5.5291 1223.43 7.43676 1222.64 8.84328 1221.23C10.2498 1219.83 11.04 1217.92 11.04 1215.93C11.04 1213.94 10.2498 1212.03 8.84328 1210.63C7.43676 1209.22 5.5291 1208.43 3.53998 1208.43C1.55085 1208.43 -0.3568 1209.22 -1.76332 1210.63C-3.16985 1212.03 -3.96002 1213.94 -3.96002 1215.93ZM-3.96002 1140.93C-3.96002 1142.92 -3.16985 1144.83 -1.76332 1146.23C-0.3568 1147.64 1.55085 1148.43 3.53998 1148.43C5.5291 1148.43 7.43676 1147.64 8.84328 1146.23C10.2498 1144.83 11.04 1142.92 11.04 1140.93C11.04 1138.94 10.2498 1137.03 8.84328 1135.63C7.43676 1134.22 5.5291 1133.43 3.53998 1133.43C1.55085 1133.43 -0.3568 1134.22 -1.76332 1135.63C-3.16985 1137.03 -3.96002 1138.94 -3.96002 1140.93ZM190.9 1253.43C190.9 1255.42 191.69 1257.33 193.097 1258.73C194.503 1260.14 196.411 1260.93 198.4 1260.93C200.389 1260.93 202.297 1260.14 203.703 1258.73C205.11 1257.33 205.9 1255.42 205.9 1253.43C205.9 1251.44 205.11 1249.53 203.703 1248.13C202.297 1246.72 200.389 1245.93 198.4 1245.93C196.411 1245.93 194.503 1246.72 193.097 1248.13C191.69 1249.53 190.9 1251.44 190.9 1253.43ZM190.9 1328.43C190.9 1330.42 191.69 1332.33 193.097 1333.73C194.503 1335.14 196.411 1335.93 198.4 1335.93C200.389 1335.93 202.297 1335.14 203.703 1333.73C205.11 1332.33 205.9 1330.42 205.9 1328.43C205.9 1326.44 205.11 1324.53 203.703 1323.13C202.297 1321.72 200.389 1320.93 198.4 1320.93C196.411 1320.93 194.503 1321.72 193.097 1323.13C191.69 1324.53 190.9 1326.44 190.9 1328.43ZM125.94 1365.93C125.94 1367.92 126.73 1369.83 128.137 1371.23C129.543 1372.64 131.451 1373.43 133.44 1373.43C135.429 1373.43 137.337 1372.64 138.743 1371.23C140.15 1369.83 140.94 1367.92 140.94 1365.93C140.94 1363.94 140.15 1362.03 138.743 1360.63C137.337 1359.22 135.429 1358.43 133.44 1358.43C131.451 1358.43 129.543 1359.22 128.137 1360.63C126.73 1362.03 125.94 1363.94 125.94 1365.93ZM60.99 1328.43C60.99 1330.42 61.7802 1332.33 63.1867 1333.73C64.5932 1335.14 66.5009 1335.93 68.49 1335.93C70.4791 1335.93 72.3868 1335.14 73.7933 1333.73C75.1998 1332.33 75.99 1330.42 75.99 1328.43C75.99 1326.44 75.1998 1324.53 73.7933 1323.13C72.3868 1321.72 70.4791 1320.93 68.49 1320.93C66.5009 1320.93 64.5932 1321.72 63.1867 1323.13C61.7802 1324.53 60.99 1326.44 60.99 1328.43ZM255.85 90.9299C255.85 92.9191 256.64 94.8267 258.047 96.2332C259.453 97.6398 261.361 98.4299 263.35 98.4299C265.339 98.4299 267.247 97.6398 268.653 96.2332C270.06 94.8267 270.85 92.9191 270.85 90.9299C270.85 88.9408 270.06 87.0332 268.653 85.6266C267.247 84.2201 265.339 83.4299 263.35 83.4299C261.361 83.4299 259.453 84.2201 258.047 85.6266C256.64 87.0332 255.85 88.9408 255.85 90.9299ZM320.81 128.43C320.81 130.419 321.6 132.327 323.007 133.733C324.413 135.14 326.321 135.93 328.31 135.93C330.299 135.93 332.207 135.14 333.613 133.733C335.02 132.327 335.81 130.419 335.81 128.43C335.81 126.441 335.02 124.533 333.613 123.127C332.207 121.72 330.299 120.93 328.31 120.93C326.321 120.93 324.413 121.72 323.007 123.127C321.6 124.533 320.81 126.441 320.81 128.43ZM320.81 203.43C320.81 205.419 321.6 207.327 323.007 208.733C324.413 210.14 326.321 210.93 328.31 210.93C330.299 210.93 332.207 210.14 333.613 208.733C335.02 207.327 335.81 205.419 335.81 203.43C335.81 201.441 335.02 199.533 333.613 198.127C332.207 196.72 330.299 195.93 328.31 195.93C326.321 195.93 324.413 196.72 323.007 198.127C321.6 199.533 320.81 201.441 320.81 203.43ZM255.85 240.93C255.85 242.919 256.64 244.827 258.047 246.233C259.453 247.64 261.361 248.43 263.35 248.43C265.339 248.43 267.247 247.64 268.653 246.233C270.06 244.827 270.85 242.919 270.85 240.93C270.85 238.941 270.06 237.033 268.653 235.627C267.247 234.22 265.339 233.43 263.35 233.43C261.361 233.43 259.453 234.22 258.047 235.627C256.64 237.033 255.85 238.941 255.85 240.93ZM255.85 315.93C255.85 317.919 256.64 319.827 258.047 321.233C259.453 322.64 261.361 323.43 263.35 323.43C265.339 323.43 267.247 322.64 268.653 321.233C270.06 319.827 270.85 317.919 270.85 315.93C270.85 313.941 270.06 312.033 268.653 310.627C267.247 309.22 265.339 308.43 263.35 308.43C261.361 308.43 259.453 309.22 258.047 310.627C256.64 312.033 255.85 313.941 255.85 315.93ZM320.81 353.43C320.81 355.419 321.6 357.327 323.007 358.733C324.413 360.14 326.321 360.93 328.31 360.93C330.299 360.93 332.207 360.14 333.613 358.733C335.02 357.327 335.81 355.419 335.81 353.43C335.81 351.441 335.02 349.533 333.613 348.127C332.207 346.72 330.299 345.93 328.31 345.93C326.321 345.93 324.413 346.72 323.007 348.127C321.6 349.533 320.81 351.441 320.81 353.43ZM320.81 428.43C320.81 430.419 321.6 432.327 323.007 433.733C324.413 435.14 326.321 435.93 328.31 435.93C330.299 435.93 332.207 435.14 333.613 433.733C335.02 432.327 335.81 430.419 335.81 428.43C335.81 426.441 335.02 424.533 333.613 423.127C332.207 421.72 330.299 420.93 328.31 420.93C326.321 420.93 324.413 421.72 323.007 423.127C321.6 424.533 320.81 426.441 320.81 428.43ZM255.85 465.93C255.85 467.919 256.64 469.827 258.047 471.233C259.453 472.64 261.361 473.43 263.35 473.43C265.339 473.43 267.247 472.64 268.653 471.233C270.06 469.827 270.85 467.919 270.85 465.93C270.85 463.941 270.06 462.033 268.653 460.627C267.247 459.22 265.339 458.43 263.35 458.43C261.361 458.43 259.453 459.22 258.047 460.627C256.64 462.033 255.85 463.941 255.85 465.93ZM190.9 428.43C190.9 430.419 191.69 432.327 193.097 433.733C194.503 435.14 196.411 435.93 198.4 435.93C200.389 435.93 202.297 435.14 203.703 433.733C205.11 432.327 205.9 430.419 205.9 428.43C205.9 426.441 205.11 424.533 203.703 423.127C202.297 421.72 200.389 420.93 198.4 420.93C196.411 420.93 194.503 421.72 193.097 423.127C191.69 424.533 190.9 426.441 190.9 428.43ZM190.9 353.43C190.9 355.419 191.69 357.327 193.097 358.733C194.503 360.14 196.411 360.93 198.4 360.93C200.389 360.93 202.297 360.14 203.703 358.733C205.11 357.327 205.9 355.419 205.9 353.43C205.9 351.441 205.11 349.533 203.703 348.127C202.297 346.72 200.389 345.93 198.4 345.93C196.411 345.93 194.503 346.72 193.097 348.127C191.69 349.533 190.9 351.441 190.9 353.43ZM255.85 540.93C255.85 542.919 256.64 544.827 258.047 546.233C259.453 547.64 261.361 548.43 263.35 548.43C265.339 548.43 267.247 547.64 268.653 546.233C270.06 544.827 270.85 542.919 270.85 540.93C270.85 538.941 270.06 537.033 268.653 535.627C267.247 534.22 265.339 533.43 263.35 533.43C261.361 533.43 259.453 534.22 258.047 535.627C256.64 537.033 255.85 538.941 255.85 540.93ZM320.81 578.43C320.81 580.419 321.6 582.327 323.007 583.733C324.413 585.14 326.321 585.93 328.31 585.93C330.299 585.93 332.207 585.14 333.613 583.733C335.02 582.327 335.81 580.419 335.81 578.43C335.81 576.441 335.02 574.533 333.613 573.127C332.207 571.72 330.299 570.93 328.31 570.93C326.321 570.93 324.413 571.72 323.007 573.127C321.6 574.533 320.81 576.441 320.81 578.43ZM320.81 653.43C320.81 655.419 321.6 657.327 323.007 658.733C324.413 660.14 326.321 660.93 328.31 660.93C330.299 660.93 332.207 660.14 333.613 658.733C335.02 657.327 335.81 655.419 335.81 653.43C335.81 651.441 335.02 649.533 333.613 648.127C332.207 646.72 330.299 645.93 328.31 645.93C326.321 645.93 324.413 646.72 323.007 648.127C321.6 649.533 320.81 651.441 320.81 653.43ZM255.85 690.93C255.85 692.919 256.64 694.827 258.047 696.233C259.453 697.64 261.361 698.43 263.35 698.43C265.339 698.43 267.247 697.64 268.653 696.233C270.06 694.827 270.85 692.919 270.85 690.93C270.85 688.941 270.06 687.033 268.653 685.627C267.247 684.22 265.339 683.43 263.35 683.43C261.361 683.43 259.453 684.22 258.047 685.627C256.64 687.033 255.85 688.941 255.85 690.93ZM255.85 765.93C255.85 767.919 256.64 769.827 258.047 771.233C259.453 772.64 261.361 773.43 263.35 773.43C265.339 773.43 267.247 772.64 268.653 771.233C270.06 769.827 270.85 767.919 270.85 765.93C270.85 763.941 270.06 762.033 268.653 760.627C267.247 759.22 265.339 758.43 263.35 758.43C261.361 758.43 259.453 759.22 258.047 760.627C256.64 762.033 255.85 763.941 255.85 765.93ZM255.85 1140.93C255.85 1142.92 256.64 1144.83 258.047 1146.23C259.453 1147.64 261.361 1148.43 263.35 1148.43C265.339 1148.43 267.247 1147.64 268.653 1146.23C270.06 1144.83 270.85 1142.92 270.85 1140.93C270.85 1138.94 270.06 1137.03 268.653 1135.63C267.247 1134.22 265.339 1133.43 263.35 1133.43C261.361 1133.43 259.453 1134.22 258.047 1135.63C256.64 1137.03 255.85 1138.94 255.85 1140.93ZM255.85 1215.93C255.85 1217.92 256.64 1219.83 258.047 1221.23C259.453 1222.64 261.361 1223.43 263.35 1223.43C265.339 1223.43 267.247 1222.64 268.653 1221.23C270.06 1219.83 270.85 1217.92 270.85 1215.93C270.85 1213.94 270.06 1212.03 268.653 1210.63C267.247 1209.22 265.339 1208.43 263.35 1208.43C261.361 1208.43 259.453 1209.22 258.047 1210.63C256.64 1212.03 255.85 1213.94 255.85 1215.93ZM385.76 315.93C385.76 317.919 386.55 319.827 387.957 321.233C389.363 322.64 391.271 323.43 393.26 323.43C395.249 323.43 397.157 322.64 398.563 321.233C399.97 319.827 400.76 317.919 400.76 315.93C400.76 313.941 399.97 312.033 398.563 310.627C397.157 309.22 395.249 308.43 393.26 308.43C391.271 308.43 389.363 309.22 387.957 310.627C386.55 312.033 385.76 313.941 385.76 315.93ZM450.71 353.43C450.71 355.419 451.5 357.327 452.907 358.733C454.313 360.14 456.221 360.93 458.21 360.93C460.199 360.93 462.107 360.14 463.513 358.733C464.92 357.327 465.71 355.419 465.71 353.43C465.71 351.441 464.92 349.533 463.513 348.127C462.107 346.72 460.199 345.93 458.21 345.93C456.221 345.93 454.313 346.72 452.907 348.127C451.5 349.533 450.71 351.441 450.71 353.43ZM450.71 428.43C450.71 430.419 451.5 432.327 452.907 433.733C454.313 435.14 456.221 435.93 458.21 435.93C460.199 435.93 462.107 435.14 463.513 433.733C464.92 432.327 465.71 430.419 465.71 428.43C465.71 426.441 464.92 424.533 463.513 423.127C462.107 421.72 460.199 420.93 458.21 420.93C456.221 420.93 454.313 421.72 452.907 423.127C451.5 424.533 450.71 426.441 450.71 428.43ZM385.76 465.93C385.76 467.919 386.55 469.827 387.957 471.233C389.363 472.64 391.271 473.43 393.26 473.43C395.249 473.43 397.157 472.64 398.563 471.233C399.97 469.827 400.76 467.919 400.76 465.93C400.76 463.941 399.97 462.033 398.563 460.627C397.157 459.22 395.249 458.43 393.26 458.43C391.271 458.43 389.363 459.22 387.957 460.627C386.55 462.033 385.76 463.941 385.76 465.93ZM385.76 690.93C385.76 692.919 386.55 694.827 387.957 696.233C389.363 697.64 391.271 698.43 393.26 698.43C395.249 698.43 397.157 697.64 398.563 696.233C399.97 694.827 400.76 692.919 400.76 690.93C400.76 688.941 399.97 687.033 398.563 685.627C397.157 684.22 395.249 683.43 393.26 683.43C391.271 683.43 389.363 684.22 387.957 685.627C386.55 687.033 385.76 688.941 385.76 690.93ZM385.76 765.93C385.76 767.919 386.55 769.827 387.957 771.233C389.363 772.64 391.271 773.43 393.26 773.43C395.249 773.43 397.157 772.64 398.563 771.233C399.97 769.827 400.76 767.919 400.76 765.93C400.76 763.941 399.97 762.033 398.563 760.627C397.157 759.22 395.249 758.43 393.26 758.43C391.271 758.43 389.363 759.22 387.957 760.627C386.55 762.033 385.76 763.941 385.76 765.93ZM320.81 803.43C320.81 805.419 321.6 807.327 323.007 808.733C324.413 810.14 326.321 810.93 328.31 810.93C330.299 810.93 332.207 810.14 333.613 808.733C335.02 807.327 335.81 805.419 335.81 803.43C335.81 801.441 335.02 799.533 333.613 798.127C332.207 796.72 330.299 795.93 328.31 795.93C326.321 795.93 324.413 796.72 323.007 798.127C321.6 799.533 320.81 801.441 320.81 803.43ZM385.76 1215.93C385.76 1217.92 386.55 1219.83 387.957 1221.23C389.363 1222.64 391.271 1223.43 393.26 1223.43C395.249 1223.43 397.157 1222.64 398.563 1221.23C399.97 1219.83 400.76 1217.92 400.76 1215.93C400.76 1213.94 399.97 1212.03 398.563 1210.63C397.157 1209.22 395.249 1208.43 393.26 1208.43C391.271 1208.43 389.363 1209.22 387.957 1210.63C386.55 1212.03 385.76 1213.94 385.76 1215.93ZM450.71 1253.43C450.71 1255.42 451.5 1257.33 452.907 1258.73C454.313 1260.14 456.221 1260.93 458.21 1260.93C460.199 1260.93 462.107 1260.14 463.513 1258.73C464.92 1257.33 465.71 1255.42 465.71 1253.43C465.71 1251.44 464.92 1249.53 463.513 1248.13C462.107 1246.72 460.199 1245.93 458.21 1245.93C456.221 1245.93 454.313 1246.72 452.907 1248.13C451.5 1249.53 450.71 1251.44 450.71 1253.43ZM450.71 1328.43C450.71 1330.42 451.5 1332.33 452.907 1333.73C454.313 1335.14 456.221 1335.93 458.21 1335.93C460.199 1335.93 462.107 1335.14 463.513 1333.73C464.92 1332.33 465.71 1330.42 465.71 1328.43C465.71 1326.44 464.92 1324.53 463.513 1323.13C462.107 1321.72 460.199 1320.93 458.21 1320.93C456.221 1320.93 454.313 1321.72 452.907 1323.13C451.5 1324.53 450.71 1326.44 450.71 1328.43ZM385.76 1365.93C385.76 1367.92 386.55 1369.83 387.957 1371.23C389.363 1372.64 391.271 1373.43 393.26 1373.43C395.249 1373.43 397.157 1372.64 398.563 1371.23C399.97 1369.83 400.76 1367.92 400.76 1365.93C400.76 1363.94 399.97 1362.03 398.563 1360.63C397.157 1359.22 395.249 1358.43 393.26 1358.43C391.271 1358.43 389.363 1359.22 387.957 1360.63C386.55 1362.03 385.76 1363.94 385.76 1365.93ZM320.81 1328.43C320.81 1330.42 321.6 1332.33 323.007 1333.73C324.413 1335.14 326.321 1335.93 328.31 1335.93C330.299 1335.93 332.207 1335.14 333.613 1333.73C335.02 1332.33 335.81 1330.42 335.81 1328.43C335.81 1326.44 335.02 1324.53 333.613 1323.13C332.207 1321.72 330.299 1320.93 328.31 1320.93C326.321 1320.93 324.413 1321.72 323.007 1323.13C321.6 1324.53 320.81 1326.44 320.81 1328.43ZM320.81 1253.43C320.81 1255.42 321.6 1257.33 323.007 1258.73C324.413 1260.14 326.321 1260.93 328.31 1260.93C330.299 1260.93 332.207 1260.14 333.613 1258.73C335.02 1257.33 335.81 1255.42 335.81 1253.43C335.81 1251.44 335.02 1249.53 333.613 1248.13C332.207 1246.72 330.299 1245.93 328.31 1245.93C326.321 1245.93 324.413 1246.72 323.007 1248.13C321.6 1249.53 320.81 1251.44 320.81 1253.43ZM385.76 1440.93C385.76 1442.92 386.55 1444.83 387.957 1446.23C389.363 1447.64 391.271 1448.43 393.26 1448.43C395.249 1448.43 397.157 1447.64 398.563 1446.23C399.97 1444.83 400.76 1442.92 400.76 1440.93C400.76 1438.94 399.97 1437.03 398.563 1435.63C397.157 1434.22 395.249 1433.43 393.26 1433.43C391.271 1433.43 389.363 1434.22 387.957 1435.63C386.55 1437.03 385.76 1438.94 385.76 1440.93ZM320.81 1478.43C320.81 1480.42 321.6 1482.33 323.007 1483.73C324.413 1485.14 326.321 1485.93 328.31 1485.93C330.299 1485.93 332.207 1485.14 333.613 1483.73C335.02 1482.33 335.81 1480.42 335.81 1478.43C335.81 1476.44 335.02 1474.53 333.613 1473.13C332.207 1471.72 330.299 1470.93 328.31 1470.93C326.321 1470.93 324.413 1471.72 323.007 1473.13C321.6 1474.53 320.81 1476.44 320.81 1478.43ZM255.85 1440.93C255.85 1442.92 256.64 1444.83 258.047 1446.23C259.453 1447.64 261.361 1448.43 263.35 1448.43C265.339 1448.43 267.247 1447.64 268.653 1446.23C270.06 1444.83 270.85 1442.92 270.85 1440.93C270.85 1438.94 270.06 1437.03 268.653 1435.63C267.247 1434.22 265.339 1433.43 263.35 1433.43C261.361 1433.43 259.453 1434.22 258.047 1435.63C256.64 1437.03 255.85 1438.94 255.85 1440.93ZM255.85 1365.93C255.85 1367.92 256.64 1369.83 258.047 1371.23C259.453 1372.64 261.361 1373.43 263.35 1373.43C265.339 1373.43 267.247 1372.64 268.653 1371.23C270.06 1369.83 270.85 1367.92 270.85 1365.93C270.85 1363.94 270.06 1362.03 268.653 1360.63C267.247 1359.22 265.339 1358.43 263.35 1358.43C261.361 1358.43 259.453 1359.22 258.047 1360.63C256.64 1362.03 255.85 1363.94 255.85 1365.93ZM515.67 315.93C515.67 317.919 516.46 319.827 517.867 321.233C519.273 322.64 521.181 323.43 523.17 323.43C525.159 323.43 527.067 322.64 528.473 321.233C529.88 319.827 530.67 317.919 530.67 315.93C530.67 313.941 529.88 312.033 528.473 310.627C527.067 309.22 525.159 308.43 523.17 308.43C521.181 308.43 519.273 309.22 517.867 310.627C516.46 312.033 515.67 313.941 515.67 315.93ZM580.62 353.43C580.62 355.419 581.41 357.327 582.817 358.733C584.223 360.14 586.131 360.93 588.12 360.93C590.109 360.93 592.017 360.14 593.423 358.733C594.83 357.327 595.62 355.419 595.62 353.43C595.62 351.441 594.83 349.533 593.423 348.127C592.017 346.72 590.109 345.93 588.12 345.93C586.131 345.93 584.223 346.72 582.817 348.127C581.41 349.533 580.62 351.441 580.62 353.43ZM580.62 428.43C580.62 430.419 581.41 432.327 582.817 433.733C584.223 435.14 586.131 435.93 588.12 435.93C590.109 435.93 592.017 435.14 593.423 433.733C594.83 432.327 595.62 430.419 595.62 428.43C595.62 426.441 594.83 424.533 593.423 423.127C592.017 421.72 590.109 420.93 588.12 420.93C586.131 420.93 584.223 421.72 582.817 423.127C581.41 424.533 580.62 426.441 580.62 428.43ZM515.67 465.93C515.67 467.919 516.46 469.827 517.867 471.233C519.273 472.64 521.181 473.43 523.17 473.43C525.159 473.43 527.067 472.64 528.473 471.233C529.88 469.827 530.67 467.919 530.67 465.93C530.67 463.941 529.88 462.033 528.473 460.627C527.067 459.22 525.159 458.43 523.17 458.43C521.181 458.43 519.273 459.22 517.867 460.627C516.46 462.033 515.67 463.941 515.67 465.93ZM515.67 540.93C515.67 542.919 516.46 544.827 517.867 546.233C519.273 547.64 521.181 548.43 523.17 548.43C525.159 548.43 527.067 547.64 528.473 546.233C529.88 544.827 530.67 542.919 530.67 540.93C530.67 538.941 529.88 537.033 528.473 535.627C527.067 534.22 525.159 533.43 523.17 533.43C521.181 533.43 519.273 534.22 517.867 535.627C516.46 537.033 515.67 538.941 515.67 540.93ZM580.62 578.43C580.62 580.419 581.41 582.327 582.817 583.733C584.223 585.14 586.131 585.93 588.12 585.93C590.109 585.93 592.017 585.14 593.423 583.733C594.83 582.327 595.62 580.419 595.62 578.43C595.62 576.441 594.83 574.533 593.423 573.127C592.017 571.72 590.109 570.93 588.12 570.93C586.131 570.93 584.223 571.72 582.817 573.127C581.41 574.533 580.62 576.441 580.62 578.43ZM580.62 653.43C580.62 655.419 581.41 657.327 582.817 658.733C584.223 660.14 586.131 660.93 588.12 660.93C590.109 660.93 592.017 660.14 593.423 658.733C594.83 657.327 595.62 655.419 595.62 653.43C595.62 651.441 594.83 649.533 593.423 648.127C592.017 646.72 590.109 645.93 588.12 645.93C586.131 645.93 584.223 646.72 582.817 648.127C581.41 649.533 580.62 651.441 580.62 653.43ZM515.67 690.93C515.67 692.919 516.46 694.827 517.867 696.233C519.273 697.64 521.181 698.43 523.17 698.43C525.159 698.43 527.067 697.64 528.473 696.233C529.88 694.827 530.67 692.919 530.67 690.93C530.67 688.941 529.88 687.033 528.473 685.627C527.067 684.22 525.159 683.43 523.17 683.43C521.181 683.43 519.273 684.22 517.867 685.627C516.46 687.033 515.67 688.941 515.67 690.93ZM450.71 653.43C450.71 655.419 451.5 657.327 452.907 658.733C454.313 660.14 456.221 660.93 458.21 660.93C460.199 660.93 462.107 660.14 463.513 658.733C464.92 657.327 465.71 655.419 465.71 653.43C465.71 651.441 464.92 649.533 463.513 648.127C462.107 646.72 460.199 645.93 458.21 645.93C456.221 645.93 454.313 646.72 452.907 648.127C451.5 649.533 450.71 651.441 450.71 653.43ZM450.71 578.43C450.71 580.419 451.5 582.327 452.907 583.733C454.313 585.14 456.221 585.93 458.21 585.93C460.199 585.93 462.107 585.14 463.513 583.733C464.92 582.327 465.71 580.419 465.71 578.43C465.71 576.441 464.92 574.533 463.513 573.127C462.107 571.72 460.199 570.93 458.21 570.93C456.221 570.93 454.313 571.72 452.907 573.127C451.5 574.533 450.71 576.441 450.71 578.43ZM515.67 990.93C515.67 992.919 516.46 994.827 517.867 996.233C519.273 997.64 521.181 998.43 523.17 998.43C525.159 998.43 527.067 997.64 528.473 996.233C529.88 994.827 530.67 992.919 530.67 990.93C530.67 988.941 529.88 987.033 528.473 985.627C527.067 984.22 525.159 983.43 523.17 983.43C521.181 983.43 519.273 984.22 517.867 985.627C516.46 987.033 515.67 988.941 515.67 990.93ZM580.62 1028.43C580.62 1030.42 581.41 1032.33 582.817 1033.73C584.223 1035.14 586.131 1035.93 588.12 1035.93C590.109 1035.93 592.017 1035.14 593.423 1033.73C594.83 1032.33 595.62 1030.42 595.62 1028.43C595.62 1026.44 594.83 1024.53 593.423 1023.13C592.017 1021.72 590.109 1020.93 588.12 1020.93C586.131 1020.93 584.223 1021.72 582.817 1023.13C581.41 1024.53 580.62 1026.44 580.62 1028.43ZM580.62 1103.43C580.62 1105.42 581.41 1107.33 582.817 1108.73C584.223 1110.14 586.131 1110.93 588.12 1110.93C590.109 1110.93 592.017 1110.14 593.423 1108.73C594.83 1107.33 595.62 1105.42 595.62 1103.43C595.62 1101.44 594.83 1099.53 593.423 1098.13C592.017 1096.72 590.109 1095.93 588.12 1095.93C586.131 1095.93 584.223 1096.72 582.817 1098.13C581.41 1099.53 580.62 1101.44 580.62 1103.43ZM515.67 1140.93C515.67 1142.92 516.46 1144.83 517.867 1146.23C519.273 1147.64 521.181 1148.43 523.17 1148.43C525.159 1148.43 527.067 1147.64 528.473 1146.23C529.88 1144.83 530.67 1142.92 530.67 1140.93C530.67 1138.94 529.88 1137.03 528.473 1135.63C527.067 1134.22 525.159 1133.43 523.17 1133.43C521.181 1133.43 519.273 1134.22 517.867 1135.63C516.46 1137.03 515.67 1138.94 515.67 1140.93ZM450.71 1103.43C450.71 1105.42 451.5 1107.33 452.907 1108.73C454.313 1110.14 456.221 1110.93 458.21 1110.93C460.199 1110.93 462.107 1110.14 463.513 1108.73C464.92 1107.33 465.71 1105.42 465.71 1103.43C465.71 1101.44 464.92 1099.53 463.513 1098.13C462.107 1096.72 460.199 1095.93 458.21 1095.93C456.221 1095.93 454.313 1096.72 452.907 1098.13C451.5 1099.53 450.71 1101.44 450.71 1103.43ZM450.71 1028.43C450.71 1030.42 451.5 1032.33 452.907 1033.73C454.313 1035.14 456.221 1035.93 458.21 1035.93C460.199 1035.93 462.107 1035.14 463.513 1033.73C464.92 1032.33 465.71 1030.42 465.71 1028.43C465.71 1026.44 464.92 1024.53 463.513 1023.13C462.107 1021.72 460.199 1020.93 458.21 1020.93C456.221 1020.93 454.313 1021.72 452.907 1023.13C451.5 1024.53 450.71 1026.44 450.71 1028.43ZM515.67 1215.93C515.67 1217.92 516.46 1219.83 517.867 1221.23C519.273 1222.64 521.181 1223.43 523.17 1223.43C525.159 1223.43 527.067 1222.64 528.473 1221.23C529.88 1219.83 530.67 1217.92 530.67 1215.93C530.67 1213.94 529.88 1212.03 528.473 1210.63C527.067 1209.22 525.159 1208.43 523.17 1208.43C521.181 1208.43 519.273 1209.22 517.867 1210.63C516.46 1212.03 515.67 1213.94 515.67 1215.93ZM385.76 1140.93C385.76 1142.92 386.55 1144.83 387.957 1146.23C389.363 1147.64 391.271 1148.43 393.26 1148.43C395.249 1148.43 397.157 1147.64 398.563 1146.23C399.97 1144.83 400.76 1142.92 400.76 1140.93C400.76 1138.94 399.97 1137.03 398.563 1135.63C397.157 1134.22 395.249 1133.43 393.26 1133.43C391.271 1133.43 389.363 1134.22 387.957 1135.63C386.55 1137.03 385.76 1138.94 385.76 1140.93ZM645.57 465.93C645.57 467.919 646.36 469.827 647.767 471.233C649.173 472.64 651.081 473.43 653.07 473.43C655.059 473.43 656.967 472.64 658.373 471.233C659.78 469.827 660.57 467.919 660.57 465.93C660.57 463.941 659.78 462.033 658.373 460.627C656.967 459.22 655.059 458.43 653.07 458.43C651.081 458.43 649.173 459.22 647.767 460.627C646.36 462.033 645.57 463.941 645.57 465.93ZM645.57 540.93C645.57 542.919 646.36 544.827 647.767 546.233C649.173 547.64 651.081 548.43 653.07 548.43C655.059 548.43 656.967 547.64 658.373 546.233C659.78 544.827 660.57 542.919 660.57 540.93C660.57 538.941 659.78 537.033 658.373 535.627C656.967 534.22 655.059 533.43 653.07 533.43C651.081 533.43 649.173 534.22 647.767 535.627C646.36 537.033 645.57 538.941 645.57 540.93ZM645.57 690.93C645.57 692.919 646.36 694.827 647.767 696.233C649.173 697.64 651.081 698.43 653.07 698.43C655.059 698.43 656.967 697.64 658.373 696.233C659.78 694.827 660.57 692.919 660.57 690.93C660.57 688.941 659.78 687.033 658.373 685.627C656.967 684.22 655.059 683.43 653.07 683.43C651.081 683.43 649.173 684.22 647.767 685.627C646.36 687.033 645.57 688.941 645.57 690.93ZM645.57 765.93C645.57 767.919 646.36 769.827 647.767 771.233C649.173 772.64 651.081 773.43 653.07 773.43C655.059 773.43 656.967 772.64 658.373 771.233C659.78 769.827 660.57 767.919 660.57 765.93C660.57 763.941 659.78 762.033 658.373 760.627C656.967 759.22 655.059 758.43 653.07 758.43C651.081 758.43 649.173 759.22 647.767 760.627C646.36 762.033 645.57 763.941 645.57 765.93ZM580.62 803.43C580.62 805.419 581.41 807.327 582.817 808.733C584.223 810.14 586.131 810.93 588.12 810.93C590.109 810.93 592.017 810.14 593.423 808.733C594.83 807.327 595.62 805.419 595.62 803.43C595.62 801.441 594.83 799.533 593.423 798.127C592.017 796.72 590.109 795.93 588.12 795.93C586.131 795.93 584.223 796.72 582.817 798.127C581.41 799.533 580.62 801.441 580.62 803.43ZM515.67 765.93C515.67 767.919 516.46 769.827 517.867 771.233C519.273 772.64 521.181 773.43 523.17 773.43C525.159 773.43 527.067 772.64 528.473 771.233C529.88 769.827 530.67 767.919 530.67 765.93C530.67 763.941 529.88 762.033 528.473 760.627C527.067 759.22 525.159 758.43 523.17 758.43C521.181 758.43 519.273 759.22 517.867 760.627C516.46 762.033 515.67 763.941 515.67 765.93ZM580.62 878.43C580.62 880.419 581.41 882.327 582.817 883.733C584.223 885.14 586.131 885.93 588.12 885.93C590.109 885.93 592.017 885.14 593.423 883.733C594.83 882.327 595.62 880.419 595.62 878.43C595.62 876.441 594.83 874.533 593.423 873.127C592.017 871.72 590.109 870.93 588.12 870.93C586.131 870.93 584.223 871.72 582.817 873.127C581.41 874.533 580.62 876.441 580.62 878.43ZM645.57 915.93C645.57 917.919 646.36 919.827 647.767 921.233C649.173 922.64 651.081 923.43 653.07 923.43C655.059 923.43 656.967 922.64 658.373 921.233C659.78 919.827 660.57 917.919 660.57 915.93C660.57 913.941 659.78 912.033 658.373 910.627C656.967 909.22 655.059 908.43 653.07 908.43C651.081 908.43 649.173 909.22 647.767 910.627C646.36 912.033 645.57 913.941 645.57 915.93ZM645.57 990.93C645.57 992.919 646.36 994.827 647.767 996.233C649.173 997.64 651.081 998.43 653.07 998.43C655.059 998.43 656.967 997.64 658.373 996.233C659.78 994.827 660.57 992.919 660.57 990.93C660.57 988.941 659.78 987.033 658.373 985.627C656.967 984.22 655.059 983.43 653.07 983.43C651.081 983.43 649.173 984.22 647.767 985.627C646.36 987.033 645.57 988.941 645.57 990.93ZM515.67 915.93C515.67 917.919 516.46 919.827 517.867 921.233C519.273 922.64 521.181 923.43 523.17 923.43C525.159 923.43 527.067 922.64 528.473 921.233C529.88 919.827 530.67 917.919 530.67 915.93C530.67 913.941 529.88 912.033 528.473 910.627C527.067 909.22 525.159 908.43 523.17 908.43C521.181 908.43 519.273 909.22 517.867 910.627C516.46 912.033 515.67 913.941 515.67 915.93ZM645.57 1140.93C645.57 1142.92 646.36 1144.83 647.767 1146.23C649.173 1147.64 651.081 1148.43 653.07 1148.43C655.059 1148.43 656.967 1147.64 658.373 1146.23C659.78 1144.83 660.57 1142.92 660.57 1140.93C660.57 1138.94 659.78 1137.03 658.373 1135.63C656.967 1134.22 655.059 1133.43 653.07 1133.43C651.081 1133.43 649.173 1134.22 647.767 1135.63C646.36 1137.03 645.57 1138.94 645.57 1140.93ZM645.57 1215.93C645.57 1217.92 646.36 1219.83 647.767 1221.23C649.173 1222.64 651.081 1223.43 653.07 1223.43C655.059 1223.43 656.967 1222.64 658.373 1221.23C659.78 1219.83 660.57 1217.92 660.57 1215.93C660.57 1213.94 659.78 1212.03 658.373 1210.63C656.967 1209.22 655.059 1208.43 653.07 1208.43C651.081 1208.43 649.173 1209.22 647.767 1210.63C646.36 1212.03 645.57 1213.94 645.57 1215.93ZM580.62 1253.43C580.62 1255.42 581.41 1257.33 582.817 1258.73C584.223 1260.14 586.131 1260.93 588.12 1260.93C590.109 1260.93 592.017 1260.14 593.423 1258.73C594.83 1257.33 595.62 1255.42 595.62 1253.43C595.62 1251.44 594.83 1249.53 593.423 1248.13C592.017 1246.72 590.109 1245.93 588.12 1245.93C586.131 1245.93 584.223 1246.72 582.817 1248.13C581.41 1249.53 580.62 1251.44 580.62 1253.43ZM710.53 203.43C710.53 205.419 711.32 207.327 712.727 208.733C714.133 210.14 716.041 210.93 718.03 210.93C720.019 210.93 721.927 210.14 723.333 208.733C724.74 207.327 725.53 205.419 725.53 203.43C725.53 201.441 724.74 199.533 723.333 198.127C721.927 196.72 720.019 195.93 718.03 195.93C716.041 195.93 714.133 196.72 712.727 198.127C711.32 199.533 710.53 201.441 710.53 203.43ZM775.48 240.93C775.48 242.919 776.27 244.827 777.677 246.233C779.083 247.64 780.991 248.43 782.98 248.43C784.969 248.43 786.877 247.64 788.283 246.233C789.69 244.827 790.48 242.919 790.48 240.93C790.48 238.941 789.69 237.033 788.283 235.627C786.877 234.22 784.969 233.43 782.98 233.43C780.991 233.43 779.083 234.22 777.677 235.627C776.27 237.033 775.48 238.941 775.48 240.93ZM775.48 315.93C775.48 317.919 776.27 319.827 777.677 321.233C779.083 322.64 780.991 323.43 782.98 323.43C784.969 323.43 786.877 322.64 788.283 321.233C789.69 319.827 790.48 317.919 790.48 315.93C790.48 313.941 789.69 312.033 788.283 310.627C786.877 309.22 784.969 308.43 782.98 308.43C780.991 308.43 779.083 309.22 777.677 310.627C776.27 312.033 775.48 313.941 775.48 315.93ZM710.53 353.43C710.53 355.419 711.32 357.327 712.727 358.733C714.133 360.14 716.041 360.93 718.03 360.93C720.019 360.93 721.927 360.14 723.333 358.733C724.74 357.327 725.53 355.419 725.53 353.43C725.53 351.441 724.74 349.533 723.333 348.127C721.927 346.72 720.019 345.93 718.03 345.93C716.041 345.93 714.133 346.72 712.727 348.127C711.32 349.533 710.53 351.441 710.53 353.43ZM645.57 315.93C645.57 317.919 646.36 319.827 647.767 321.233C649.173 322.64 651.081 323.43 653.07 323.43C655.059 323.43 656.967 322.64 658.373 321.233C659.78 319.827 660.57 317.919 660.57 315.93C660.57 313.941 659.78 312.033 658.373 310.627C656.967 309.22 655.059 308.43 653.07 308.43C651.081 308.43 649.173 309.22 647.767 310.627C646.36 312.033 645.57 313.941 645.57 315.93ZM645.57 240.93C645.57 242.919 646.36 244.827 647.767 246.233C649.173 247.64 651.081 248.43 653.07 248.43C655.059 248.43 656.967 247.64 658.373 246.233C659.78 244.827 660.57 242.919 660.57 240.93C660.57 238.941 659.78 237.033 658.373 235.627C656.967 234.22 655.059 233.43 653.07 233.43C651.081 233.43 649.173 234.22 647.767 235.627C646.36 237.033 645.57 238.941 645.57 240.93ZM775.48 765.93C775.48 767.919 776.27 769.827 777.677 771.233C779.083 772.64 780.991 773.43 782.98 773.43C784.969 773.43 786.877 772.64 788.283 771.233C789.69 769.827 790.48 767.919 790.48 765.93C790.48 763.941 789.69 762.033 788.283 760.627C786.877 759.22 784.969 758.43 782.98 758.43C780.991 758.43 779.083 759.22 777.677 760.627C776.27 762.033 775.48 763.941 775.48 765.93ZM840.44 803.43C840.44 805.419 841.23 807.327 842.637 808.733C844.043 810.14 845.951 810.93 847.94 810.93C849.929 810.93 851.837 810.14 853.243 808.733C854.65 807.327 855.44 805.419 855.44 803.43C855.44 801.441 854.65 799.533 853.243 798.127C851.837 796.72 849.929 795.93 847.94 795.93C845.951 795.93 844.043 796.72 842.637 798.127C841.23 799.533 840.44 801.441 840.44 803.43ZM840.44 878.43C840.44 880.419 841.23 882.327 842.637 883.733C844.043 885.14 845.951 885.93 847.94 885.93C849.929 885.93 851.837 885.14 853.243 883.733C854.65 882.327 855.44 880.419 855.44 878.43C855.44 876.441 854.65 874.533 853.243 873.127C851.837 871.72 849.929 870.93 847.94 870.93C845.951 870.93 844.043 871.72 842.637 873.127C841.23 874.533 840.44 876.441 840.44 878.43ZM775.48 915.93C775.48 917.919 776.27 919.827 777.677 921.233C779.083 922.64 780.991 923.43 782.98 923.43C784.969 923.43 786.877 922.64 788.283 921.233C789.69 919.827 790.48 917.919 790.48 915.93C790.48 913.941 789.69 912.033 788.283 910.627C786.877 909.22 784.969 908.43 782.98 908.43C780.991 908.43 779.083 909.22 777.677 910.627C776.27 912.033 775.48 913.941 775.48 915.93ZM710.53 878.43C710.53 880.419 711.32 882.327 712.727 883.733C714.133 885.14 716.041 885.93 718.03 885.93C720.019 885.93 721.927 885.14 723.333 883.733C724.74 882.327 725.53 880.419 725.53 878.43C725.53 876.441 724.74 874.533 723.333 873.127C721.927 871.72 720.019 870.93 718.03 870.93C716.041 870.93 714.133 871.72 712.727 873.127C711.32 874.533 710.53 876.441 710.53 878.43ZM710.53 803.43C710.53 805.419 711.32 807.327 712.727 808.733C714.133 810.14 716.041 810.93 718.03 810.93C720.019 810.93 721.927 810.14 723.333 808.733C724.74 807.327 725.53 805.419 725.53 803.43C725.53 801.441 724.74 799.533 723.333 798.127C721.927 796.72 720.019 795.93 718.03 795.93C716.041 795.93 714.133 796.72 712.727 798.127C711.32 799.533 710.53 801.441 710.53 803.43ZM775.48 990.93C775.48 992.919 776.27 994.827 777.677 996.233C779.083 997.64 780.991 998.43 782.98 998.43C784.969 998.43 786.877 997.64 788.283 996.233C789.69 994.827 790.48 992.919 790.48 990.93C790.48 988.941 789.69 987.033 788.283 985.627C786.877 984.22 784.969 983.43 782.98 983.43C780.991 983.43 779.083 984.22 777.677 985.627C776.27 987.033 775.48 988.941 775.48 990.93ZM840.44 1028.43C840.44 1030.42 841.23 1032.33 842.637 1033.73C844.043 1035.14 845.951 1035.93 847.94 1035.93C849.929 1035.93 851.837 1035.14 853.243 1033.73C854.65 1032.33 855.44 1030.42 855.44 1028.43C855.44 1026.44 854.65 1024.53 853.243 1023.13C851.837 1021.72 849.929 1020.93 847.94 1020.93C845.951 1020.93 844.043 1021.72 842.637 1023.13C841.23 1024.53 840.44 1026.44 840.44 1028.43ZM840.44 1103.43C840.44 1105.42 841.23 1107.33 842.637 1108.73C844.043 1110.14 845.951 1110.93 847.94 1110.93C849.929 1110.93 851.837 1110.14 853.243 1108.73C854.65 1107.33 855.44 1105.42 855.44 1103.43C855.44 1101.44 854.65 1099.53 853.243 1098.13C851.837 1096.72 849.929 1095.93 847.94 1095.93C845.951 1095.93 844.043 1096.72 842.637 1098.13C841.23 1099.53 840.44 1101.44 840.44 1103.43ZM775.48 1140.93C775.48 1142.92 776.27 1144.83 777.677 1146.23C779.083 1147.64 780.991 1148.43 782.98 1148.43C784.969 1148.43 786.877 1147.64 788.283 1146.23C789.69 1144.83 790.48 1142.92 790.48 1140.93C790.48 1138.94 789.69 1137.03 788.283 1135.63C786.877 1134.22 784.969 1133.43 782.98 1133.43C780.991 1133.43 779.083 1134.22 777.677 1135.63C776.27 1137.03 775.48 1138.94 775.48 1140.93ZM710.53 1103.43C710.53 1105.42 711.32 1107.33 712.727 1108.73C714.133 1110.14 716.041 1110.93 718.03 1110.93C720.019 1110.93 721.927 1110.14 723.333 1108.73C724.74 1107.33 725.53 1105.42 725.53 1103.43C725.53 1101.44 724.74 1099.53 723.333 1098.13C721.927 1096.72 720.019 1095.93 718.03 1095.93C716.041 1095.93 714.133 1096.72 712.727 1098.13C711.32 1099.53 710.53 1101.44 710.53 1103.43ZM710.53 1028.43C710.53 1030.42 711.32 1032.33 712.727 1033.73C714.133 1035.14 716.041 1035.93 718.03 1035.93C720.019 1035.93 721.927 1035.14 723.333 1033.73C724.74 1032.33 725.53 1030.42 725.53 1028.43C725.53 1026.44 724.74 1024.53 723.333 1023.13C721.927 1021.72 720.019 1020.93 718.03 1020.93C716.041 1020.93 714.133 1021.72 712.727 1023.13C711.32 1024.53 710.53 1026.44 710.53 1028.43ZM775.48 1215.93C775.48 1217.92 776.27 1219.83 777.677 1221.23C779.083 1222.64 780.991 1223.43 782.98 1223.43C784.969 1223.43 786.877 1222.64 788.283 1221.23C789.69 1219.83 790.48 1217.92 790.48 1215.93C790.48 1213.94 789.69 1212.03 788.283 1210.63C786.877 1209.22 784.969 1208.43 782.98 1208.43C780.991 1208.43 779.083 1209.22 777.677 1210.63C776.27 1212.03 775.48 1213.94 775.48 1215.93ZM840.44 1253.43C840.44 1255.42 841.23 1257.33 842.637 1258.73C844.043 1260.14 845.951 1260.93 847.94 1260.93C849.929 1260.93 851.837 1260.14 853.243 1258.73C854.65 1257.33 855.44 1255.42 855.44 1253.43C855.44 1251.44 854.65 1249.53 853.243 1248.13C851.837 1246.72 849.929 1245.93 847.94 1245.93C845.951 1245.93 844.043 1246.72 842.637 1248.13C841.23 1249.53 840.44 1251.44 840.44 1253.43ZM840.44 1328.43C840.44 1330.42 841.23 1332.33 842.637 1333.73C844.043 1335.14 845.951 1335.93 847.94 1335.93C849.929 1335.93 851.837 1335.14 853.243 1333.73C854.65 1332.33 855.44 1330.42 855.44 1328.43C855.44 1326.44 854.65 1324.53 853.243 1323.13C851.837 1321.72 849.929 1320.93 847.94 1320.93C845.951 1320.93 844.043 1321.72 842.637 1323.13C841.23 1324.53 840.44 1326.44 840.44 1328.43ZM775.48 1365.93C775.48 1367.92 776.27 1369.83 777.677 1371.23C779.083 1372.64 780.991 1373.43 782.98 1373.43C784.969 1373.43 786.877 1372.64 788.283 1371.23C789.69 1369.83 790.48 1367.92 790.48 1365.93C790.48 1363.94 789.69 1362.03 788.283 1360.63C786.877 1359.22 784.969 1358.43 782.98 1358.43C780.991 1358.43 779.083 1359.22 777.677 1360.63C776.27 1362.03 775.48 1363.94 775.48 1365.93ZM710.53 1328.43C710.53 1330.42 711.32 1332.33 712.727 1333.73C714.133 1335.14 716.041 1335.93 718.03 1335.93C720.019 1335.93 721.927 1335.14 723.333 1333.73C724.74 1332.33 725.53 1330.42 725.53 1328.43C725.53 1326.44 724.74 1324.53 723.333 1323.13C721.927 1321.72 720.019 1320.93 718.03 1320.93C716.041 1320.93 714.133 1321.72 712.727 1323.13C711.32 1324.53 710.53 1326.44 710.53 1328.43ZM710.53 1253.43C710.53 1255.42 711.32 1257.33 712.727 1258.73C714.133 1260.14 716.041 1260.93 718.03 1260.93C720.019 1260.93 721.927 1260.14 723.333 1258.73C724.74 1257.33 725.53 1255.42 725.53 1253.43C725.53 1251.44 724.74 1249.53 723.333 1248.13C721.927 1246.72 720.019 1245.93 718.03 1245.93C716.041 1245.93 714.133 1246.72 712.727 1248.13C711.32 1249.53 710.53 1251.44 710.53 1253.43ZM775.48 1440.93C775.48 1442.92 776.27 1444.83 777.677 1446.23C779.083 1447.64 780.991 1448.43 782.98 1448.43C784.969 1448.43 786.877 1447.64 788.283 1446.23C789.69 1444.83 790.48 1442.92 790.48 1440.93C790.48 1438.94 789.69 1437.03 788.283 1435.63C786.877 1434.22 784.969 1433.43 782.98 1433.43C780.991 1433.43 779.083 1434.22 777.677 1435.63C776.27 1437.03 775.48 1438.94 775.48 1440.93ZM710.53 1478.43C710.53 1480.42 711.32 1482.33 712.727 1483.73C714.133 1485.14 716.041 1485.93 718.03 1485.93C720.019 1485.93 721.927 1485.14 723.333 1483.73C724.74 1482.33 725.53 1480.42 725.53 1478.43C725.53 1476.44 724.74 1474.53 723.333 1473.13C721.927 1471.72 720.019 1470.93 718.03 1470.93C716.041 1470.93 714.133 1471.72 712.727 1473.13C711.32 1474.53 710.53 1476.44 710.53 1478.43ZM645.57 1440.93C645.57 1442.92 646.36 1444.83 647.767 1446.23C649.173 1447.64 651.081 1448.43 653.07 1448.43C655.059 1448.43 656.967 1447.64 658.373 1446.23C659.78 1444.83 660.57 1442.92 660.57 1440.93C660.57 1438.94 659.78 1437.03 658.373 1435.63C656.967 1434.22 655.059 1433.43 653.07 1433.43C651.081 1433.43 649.173 1434.22 647.767 1435.63C646.36 1437.03 645.57 1438.94 645.57 1440.93ZM645.57 1365.93C645.57 1367.92 646.36 1369.83 647.767 1371.23C649.173 1372.64 651.081 1373.43 653.07 1373.43C655.059 1373.43 656.967 1372.64 658.373 1371.23C659.78 1369.83 660.57 1367.92 660.57 1365.93C660.57 1363.94 659.78 1362.03 658.373 1360.63C656.967 1359.22 655.059 1358.43 653.07 1358.43C651.081 1358.43 649.173 1359.22 647.767 1360.63C646.36 1362.03 645.57 1363.94 645.57 1365.93ZM840.43 -21.5701C840.43 -19.5809 841.22 -17.6733 842.627 -16.2668C844.033 -14.8602 845.941 -14.0701 847.93 -14.0701C849.919 -14.0701 851.827 -14.8602 853.233 -16.2668C854.64 -17.6733 855.43 -19.5809 855.43 -21.5701C855.43 -23.5592 854.64 -25.4668 853.233 -26.8734C851.827 -28.2799 849.919 -29.0701 847.93 -29.0701C845.941 -29.0701 844.033 -28.2799 842.627 -26.8734C841.22 -25.4668 840.43 -23.5592 840.43 -21.5701ZM905.39 15.9299C905.39 17.9191 906.18 19.8267 907.587 21.2332C908.993 22.6398 910.901 23.4299 912.89 23.4299C914.879 23.4299 916.787 22.6398 918.193 21.2332C919.6 19.8267 920.39 17.9191 920.39 15.9299C920.39 13.9408 919.6 12.0332 918.193 10.6266C916.787 9.22011 914.879 8.42993 912.89 8.42993C910.901 8.42993 908.993 9.22011 907.587 10.6266C906.18 12.0332 905.39 13.9408 905.39 15.9299ZM905.39 90.9299C905.39 92.9191 906.18 94.8267 907.587 96.2332C908.993 97.6398 910.901 98.4299 912.89 98.4299C914.879 98.4299 916.787 97.6398 918.193 96.2332C919.6 94.8267 920.39 92.9191 920.39 90.9299C920.39 88.9408 919.6 87.0332 918.193 85.6266C916.787 84.2201 914.879 83.4299 912.89 83.4299C910.901 83.4299 908.993 84.2201 907.587 85.6266C906.18 87.0332 905.39 88.9408 905.39 90.9299ZM840.43 128.43C840.43 130.419 841.22 132.327 842.627 133.733C844.033 135.14 845.941 135.93 847.93 135.93C849.919 135.93 851.827 135.14 853.233 133.733C854.64 132.327 855.43 130.419 855.43 128.43C855.43 126.441 854.64 124.533 853.233 123.127C851.827 121.72 849.919 120.93 847.93 120.93C845.941 120.93 844.033 121.72 842.627 123.127C841.22 124.533 840.43 126.441 840.43 128.43ZM775.48 90.9299C775.48 92.9191 776.27 94.8267 777.677 96.2332C779.083 97.6398 780.991 98.4299 782.98 98.4299C784.969 98.4299 786.877 97.6398 788.283 96.2332C789.69 94.8267 790.48 92.9191 790.48 90.9299C790.48 88.9408 789.69 87.0332 788.283 85.6266C786.877 84.2201 784.969 83.4299 782.98 83.4299C780.991 83.4299 779.083 84.2201 777.677 85.6266C776.27 87.0332 775.48 88.9408 775.48 90.9299ZM775.48 15.9299C775.48 17.9191 776.27 19.8267 777.677 21.2332C779.083 22.6398 780.991 23.4299 782.98 23.4299C784.969 23.4299 786.877 22.6398 788.283 21.2332C789.69 19.8267 790.48 17.9191 790.48 15.9299C790.48 13.9408 789.69 12.0332 788.283 10.6266C786.877 9.22011 784.969 8.42993 782.98 8.42993C780.991 8.42993 779.083 9.22011 777.677 10.6266C776.27 12.0332 775.48 13.9408 775.48 15.9299ZM905.39 315.93C905.39 317.919 906.18 319.827 907.587 321.233C908.993 322.64 910.901 323.43 912.89 323.43C914.879 323.43 916.787 322.64 918.193 321.233C919.6 319.827 920.39 317.919 920.39 315.93C920.39 313.941 919.6 312.033 918.193 310.627C916.787 309.22 914.879 308.43 912.89 308.43C910.901 308.43 908.993 309.22 907.587 310.627C906.18 312.033 905.39 313.941 905.39 315.93ZM970.34 353.43C970.34 355.419 971.13 357.327 972.537 358.733C973.943 360.14 975.851 360.93 977.84 360.93C979.829 360.93 981.737 360.14 983.143 358.733C984.55 357.327 985.34 355.419 985.34 353.43C985.34 351.441 984.55 349.533 983.143 348.127C981.737 346.72 979.829 345.93 977.84 345.93C975.851 345.93 973.943 346.72 972.537 348.127C971.13 349.533 970.34 351.441 970.34 353.43ZM970.34 428.43C970.34 430.419 971.13 432.327 972.537 433.733C973.943 435.14 975.851 435.93 977.84 435.93C979.829 435.93 981.737 435.14 983.143 433.733C984.55 432.327 985.34 430.419 985.34 428.43C985.34 426.441 984.55 424.533 983.143 423.127C981.737 421.72 979.829 420.93 977.84 420.93C975.851 420.93 973.943 421.72 972.537 423.127C971.13 424.533 970.34 426.441 970.34 428.43ZM905.39 465.93C905.39 467.919 906.18 469.827 907.587 471.233C908.993 472.64 910.901 473.43 912.89 473.43C914.879 473.43 916.787 472.64 918.193 471.233C919.6 469.827 920.39 467.919 920.39 465.93C920.39 463.941 919.6 462.033 918.193 460.627C916.787 459.22 914.879 458.43 912.89 458.43C910.901 458.43 908.993 459.22 907.587 460.627C906.18 462.033 905.39 463.941 905.39 465.93ZM840.43 428.43C840.43 430.419 841.22 432.327 842.627 433.733C844.033 435.14 845.941 435.93 847.93 435.93C849.919 435.93 851.827 435.14 853.233 433.733C854.64 432.327 855.43 430.419 855.43 428.43C855.43 426.441 854.64 424.533 853.233 423.127C851.827 421.72 849.919 420.93 847.93 420.93C845.941 420.93 844.033 421.72 842.627 423.127C841.22 424.533 840.43 426.441 840.43 428.43ZM840.43 353.43C840.43 355.419 841.22 357.327 842.627 358.733C844.033 360.14 845.941 360.93 847.93 360.93C849.919 360.93 851.827 360.14 853.233 358.733C854.64 357.327 855.43 355.419 855.43 353.43C855.43 351.441 854.64 349.533 853.233 348.127C851.827 346.72 849.919 345.93 847.93 345.93C845.941 345.93 844.033 346.72 842.627 348.127C841.22 349.533 840.43 351.441 840.43 353.43ZM840.43 653.43C840.43 655.419 841.22 657.327 842.627 658.733C844.033 660.14 845.941 660.93 847.93 660.93C849.919 660.93 851.827 660.14 853.233 658.733C854.64 657.327 855.43 655.419 855.43 653.43C855.43 651.441 854.64 649.533 853.233 648.127C851.827 646.72 849.919 645.93 847.93 645.93C845.941 645.93 844.033 646.72 842.627 648.127C841.22 649.533 840.43 651.441 840.43 653.43ZM905.39 690.93C905.39 692.919 906.18 694.827 907.587 696.233C908.993 697.64 910.901 698.43 912.89 698.43C914.879 698.43 916.787 697.64 918.193 696.233C919.6 694.827 920.39 692.919 920.39 690.93C920.39 688.941 919.6 687.033 918.193 685.627C916.787 684.22 914.879 683.43 912.89 683.43C910.901 683.43 908.993 684.22 907.587 685.627C906.18 687.033 905.39 688.941 905.39 690.93ZM905.39 765.93C905.39 767.919 906.18 769.827 907.587 771.233C908.993 772.64 910.901 773.43 912.89 773.43C914.879 773.43 916.787 772.64 918.193 771.233C919.6 769.827 920.39 767.919 920.39 765.93C920.39 763.941 919.6 762.033 918.193 760.627C916.787 759.22 914.879 758.43 912.89 758.43C910.901 758.43 908.993 759.22 907.587 760.627C906.18 762.033 905.39 763.941 905.39 765.93ZM840.43 803.43C840.43 805.419 841.22 807.327 842.627 808.733C844.033 810.14 845.941 810.93 847.93 810.93C849.919 810.93 851.827 810.14 853.233 808.733C854.64 807.327 855.43 805.419 855.43 803.43C855.43 801.441 854.64 799.533 853.233 798.127C851.827 796.72 849.919 795.93 847.93 795.93C845.941 795.93 844.033 796.72 842.627 798.127C841.22 799.533 840.43 801.441 840.43 803.43ZM775.48 690.93C775.48 692.919 776.27 694.827 777.677 696.233C779.083 697.64 780.991 698.43 782.98 698.43C784.969 698.43 786.877 697.64 788.283 696.233C789.69 694.827 790.48 692.919 790.48 690.93C790.48 688.941 789.69 687.033 788.283 685.627C786.877 684.22 784.969 683.43 782.98 683.43C780.991 683.43 779.083 684.22 777.677 685.627C776.27 687.033 775.48 688.941 775.48 690.93ZM840.43 878.43C840.43 880.419 841.22 882.327 842.627 883.733C844.033 885.14 845.941 885.93 847.93 885.93C849.919 885.93 851.827 885.14 853.233 883.733C854.64 882.327 855.43 880.419 855.43 878.43C855.43 876.441 854.64 874.533 853.233 873.127C851.827 871.72 849.919 870.93 847.93 870.93C845.941 870.93 844.033 871.72 842.627 873.127C841.22 874.533 840.43 876.441 840.43 878.43ZM905.39 915.93C905.39 917.919 906.18 919.827 907.587 921.233C908.993 922.64 910.901 923.43 912.89 923.43C914.879 923.43 916.787 922.64 918.193 921.233C919.6 919.827 920.39 917.919 920.39 915.93C920.39 913.941 919.6 912.033 918.193 910.627C916.787 909.22 914.879 908.43 912.89 908.43C910.901 908.43 908.993 909.22 907.587 910.627C906.18 912.033 905.39 913.941 905.39 915.93ZM905.39 990.93C905.39 992.919 906.18 994.827 907.587 996.233C908.993 997.64 910.901 998.43 912.89 998.43C914.879 998.43 916.787 997.64 918.193 996.233C919.6 994.827 920.39 992.919 920.39 990.93C920.39 988.941 919.6 987.033 918.193 985.627C916.787 984.22 914.879 983.43 912.89 983.43C910.901 983.43 908.993 984.22 907.587 985.627C906.18 987.033 905.39 988.941 905.39 990.93ZM840.43 1028.43C840.43 1030.42 841.22 1032.33 842.627 1033.73C844.033 1035.14 845.941 1035.93 847.93 1035.93C849.919 1035.93 851.827 1035.14 853.233 1033.73C854.64 1032.33 855.43 1030.42 855.43 1028.43C855.43 1026.44 854.64 1024.53 853.233 1023.13C851.827 1021.72 849.919 1020.93 847.93 1020.93C845.941 1020.93 844.033 1021.72 842.627 1023.13C841.22 1024.53 840.43 1026.44 840.43 1028.43ZM970.34 1028.43C970.34 1030.42 971.13 1032.33 972.537 1033.73C973.943 1035.14 975.851 1035.93 977.84 1035.93C979.829 1035.93 981.737 1035.14 983.143 1033.73C984.55 1032.33 985.34 1030.42 985.34 1028.43C985.34 1026.44 984.55 1024.53 983.143 1023.13C981.737 1021.72 979.829 1020.93 977.84 1020.93C975.851 1020.93 973.943 1021.72 972.537 1023.13C971.13 1024.53 970.34 1026.44 970.34 1028.43ZM970.34 1103.43C970.34 1105.42 971.13 1107.33 972.537 1108.73C973.943 1110.14 975.851 1110.93 977.84 1110.93C979.829 1110.93 981.737 1110.14 983.143 1108.73C984.55 1107.33 985.34 1105.42 985.34 1103.43C985.34 1101.44 984.55 1099.53 983.143 1098.13C981.737 1096.72 979.829 1095.93 977.84 1095.93C975.851 1095.93 973.943 1096.72 972.537 1098.13C971.13 1099.53 970.34 1101.44 970.34 1103.43ZM905.39 1140.93C905.39 1142.92 906.18 1144.83 907.587 1146.23C908.993 1147.64 910.901 1148.43 912.89 1148.43C914.879 1148.43 916.787 1147.64 918.193 1146.23C919.6 1144.83 920.39 1142.92 920.39 1140.93C920.39 1138.94 919.6 1137.03 918.193 1135.63C916.787 1134.22 914.879 1133.43 912.89 1133.43C910.901 1133.43 908.993 1134.22 907.587 1135.63C906.18 1137.03 905.39 1138.94 905.39 1140.93ZM840.43 1103.43C840.43 1105.42 841.22 1107.33 842.627 1108.73C844.033 1110.14 845.941 1110.93 847.93 1110.93C849.919 1110.93 851.827 1110.14 853.233 1108.73C854.64 1107.33 855.43 1105.42 855.43 1103.43C855.43 1101.44 854.64 1099.53 853.233 1098.13C851.827 1096.72 849.919 1095.93 847.93 1095.93C845.941 1095.93 844.033 1096.72 842.627 1098.13C841.22 1099.53 840.43 1101.44 840.43 1103.43ZM1035.3 465.93C1035.3 467.919 1036.09 469.827 1037.5 471.233C1038.9 472.64 1040.81 473.43 1042.8 473.43C1044.79 473.43 1046.7 472.64 1048.1 471.233C1049.51 469.827 1050.3 467.919 1050.3 465.93C1050.3 463.941 1049.51 462.033 1048.1 460.627C1046.7 459.22 1044.79 458.43 1042.8 458.43C1040.81 458.43 1038.9 459.22 1037.5 460.627C1036.09 462.033 1035.3 463.941 1035.3 465.93ZM1035.3 540.93C1035.3 542.919 1036.09 544.827 1037.5 546.233C1038.9 547.64 1040.81 548.43 1042.8 548.43C1044.79 548.43 1046.7 547.64 1048.1 546.233C1049.51 544.827 1050.3 542.919 1050.3 540.93C1050.3 538.941 1049.51 537.033 1048.1 535.627C1046.7 534.22 1044.79 533.43 1042.8 533.43C1040.81 533.43 1038.9 534.22 1037.5 535.627C1036.09 537.033 1035.3 538.941 1035.3 540.93ZM970.34 578.43C970.34 580.419 971.13 582.327 972.537 583.733C973.943 585.14 975.851 585.93 977.84 585.93C979.829 585.93 981.737 585.14 983.143 583.733C984.55 582.327 985.34 580.419 985.34 578.43C985.34 576.441 984.55 574.533 983.143 573.127C981.737 571.72 979.829 570.93 977.84 570.93C975.851 570.93 973.943 571.72 972.537 573.127C971.13 574.533 970.34 576.441 970.34 578.43ZM905.39 540.93C905.39 542.919 906.18 544.827 907.587 546.233C908.993 547.64 910.901 548.43 912.89 548.43C914.879 548.43 916.787 547.64 918.193 546.233C919.6 544.827 920.39 542.919 920.39 540.93C920.39 538.941 919.6 537.033 918.193 535.627C916.787 534.22 914.879 533.43 912.89 533.43C910.901 533.43 908.993 534.22 907.587 535.627C906.18 537.033 905.39 538.941 905.39 540.93ZM970.34 653.43C970.34 655.419 971.13 657.327 972.537 658.733C973.943 660.14 975.851 660.93 977.84 660.93C979.829 660.93 981.737 660.14 983.143 658.733C984.55 657.327 985.34 655.419 985.34 653.43C985.34 651.441 984.55 649.533 983.143 648.127C981.737 646.72 979.829 645.93 977.84 645.93C975.851 645.93 973.943 646.72 972.537 648.127C971.13 649.533 970.34 651.441 970.34 653.43ZM1035.3 690.93C1035.3 692.919 1036.09 694.827 1037.5 696.233C1038.9 697.64 1040.81 698.43 1042.8 698.43C1044.79 698.43 1046.7 697.64 1048.1 696.233C1049.51 694.827 1050.3 692.919 1050.3 690.93C1050.3 688.941 1049.51 687.033 1048.1 685.627C1046.7 684.22 1044.79 683.43 1042.8 683.43C1040.81 683.43 1038.9 684.22 1037.5 685.627C1036.09 687.033 1035.3 688.941 1035.3 690.93ZM1035.3 765.93C1035.3 767.919 1036.09 769.827 1037.5 771.233C1038.9 772.64 1040.81 773.43 1042.8 773.43C1044.79 773.43 1046.7 772.64 1048.1 771.233C1049.51 769.827 1050.3 767.919 1050.3 765.93C1050.3 763.941 1049.51 762.033 1048.1 760.627C1046.7 759.22 1044.79 758.43 1042.8 758.43C1040.81 758.43 1038.9 759.22 1037.5 760.627C1036.09 762.033 1035.3 763.941 1035.3 765.93ZM970.34 803.43C970.34 805.419 971.13 807.327 972.537 808.733C973.943 810.14 975.851 810.93 977.84 810.93C979.829 810.93 981.737 810.14 983.143 808.733C984.55 807.327 985.34 805.419 985.34 803.43C985.34 801.441 984.55 799.533 983.143 798.127C981.737 796.72 979.829 795.93 977.84 795.93C975.851 795.93 973.943 796.72 972.537 798.127C971.13 799.533 970.34 801.441 970.34 803.43ZM970.34 878.43C970.34 880.419 971.13 882.327 972.537 883.733C973.943 885.14 975.851 885.93 977.84 885.93C979.829 885.93 981.737 885.14 983.143 883.733C984.55 882.327 985.34 880.419 985.34 878.43C985.34 876.441 984.55 874.533 983.143 873.127C981.737 871.72 979.829 870.93 977.84 870.93C975.851 870.93 973.943 871.72 972.537 873.127C971.13 874.533 970.34 876.441 970.34 878.43ZM1035.3 915.93C1035.3 917.919 1036.09 919.827 1037.5 921.233C1038.9 922.64 1040.81 923.43 1042.8 923.43C1044.79 923.43 1046.7 922.64 1048.1 921.233C1049.51 919.827 1050.3 917.919 1050.3 915.93C1050.3 913.941 1049.51 912.033 1048.1 910.627C1046.7 909.22 1044.79 908.43 1042.8 908.43C1040.81 908.43 1038.9 909.22 1037.5 910.627C1036.09 912.033 1035.3 913.941 1035.3 915.93ZM1035.3 990.93C1035.3 992.919 1036.09 994.827 1037.5 996.233C1038.9 997.64 1040.81 998.43 1042.8 998.43C1044.79 998.43 1046.7 997.64 1048.1 996.233C1049.51 994.827 1050.3 992.919 1050.3 990.93C1050.3 988.941 1049.51 987.033 1048.1 985.627C1046.7 984.22 1044.79 983.43 1042.8 983.43C1040.81 983.43 1038.9 984.22 1037.5 985.627C1036.09 987.033 1035.3 988.941 1035.3 990.93Z" fill="#7A2182" fill-opacity="0.75"/>
<path d="M122.62 87.5798L79.31 62.5798L36.01 87.5798V137.58L79.31 162.58M122.62 87.5798V137.58M122.62 87.5798L165.92 62.5798M122.62 137.58L79.31 162.58M122.62 137.58L165.92 162.58M79.31 162.58V212.58M79.31 212.58L122.62 237.58M79.31 212.58L36.01 237.58V287.58L79.31 312.58L122.62 287.58V237.58M122.62 237.58L165.92 212.58V162.58M122.62 537.58L79.31 512.58L36.01 537.58V587.58L79.31 612.58M122.62 537.58V587.58M122.62 537.58L165.92 512.58M122.62 587.58L79.31 612.58M122.62 587.58L165.92 612.58M79.31 612.58V662.58L122.62 687.58M79.31 962.58L122.62 987.58M79.31 962.58L36.01 987.58V1037.58L79.31 1062.58L122.62 1037.58V987.58M79.31 962.58V912.58L122.62 887.58M122.62 987.58L165.92 962.58M165.92 62.5798L209.22 87.5798M165.92 62.5798V12.5798L209.22 -12.4202L252.52 12.5798M209.22 87.5798V137.58L165.92 162.58M209.22 87.5798L252.52 62.5798M209.22 437.58V387.58L165.92 362.58L122.62 387.58V437.58L165.92 462.58M209.22 437.58L165.92 462.58M209.22 437.58L252.52 462.58V512.58M165.92 462.58V512.58M165.92 512.58L209.22 537.58M209.22 537.58V587.58M209.22 537.58L252.52 512.58M209.22 587.58L165.92 612.58M209.22 587.58L252.52 612.58M165.92 612.58V662.58M165.92 662.58L122.62 687.58M165.92 662.58L209.22 687.58M122.62 687.58V737.58L165.92 762.58L209.22 737.58V687.58M209.22 687.58L252.52 662.58V612.58M209.22 887.58V837.58L165.92 812.58L122.62 837.58V887.58M209.22 887.58L165.92 912.58M209.22 887.58L252.52 912.58V962.58L209.22 987.58L165.92 962.58M165.92 912.58L122.62 887.58M165.92 912.58V962.58M209.22 1187.58V1137.58L165.92 1112.58L122.62 1137.58V1187.58L165.92 1212.58M209.22 1187.58L165.92 1212.58M209.22 1187.58L252.52 1212.58V1262.58L209.22 1287.58M165.92 1212.58V1262.58M165.92 1262.58L209.22 1287.58M165.92 1262.58L122.62 1287.58V1337.58M209.22 1287.58V1337.58M209.22 1337.58L165.92 1362.58M209.22 1337.58L252.52 1362.58M165.92 1362.58L122.62 1337.58M165.92 1362.58V1412.58M122.62 1337.58L79.31 1362.58V1412.58L122.62 1437.58L165.92 1412.58M165.92 1412.58L209.22 1437.58L252.52 1412.58M252.52 12.5798V62.5798M252.52 12.5798L295.82 -12.4202L339.13 12.5798V62.5798M252.52 62.5798L295.82 87.5798M252.52 512.58L295.82 537.58V587.58L252.52 612.58M252.52 1362.58V1412.58M252.52 1362.58L295.82 1337.58L339.13 1362.58V1412.58L295.82 1437.58L252.52 1412.58M339.13 62.5798L295.82 87.5798M339.13 62.5798L382.43 87.5798V137.58M295.82 87.5798V137.58L339.13 162.58M382.43 137.58L339.13 162.58M382.43 137.58L425.73 162.58V212.58M339.13 162.58V212.58L382.43 237.58M339.13 662.58L382.43 687.58M339.13 662.58L295.82 687.58V737.58L339.13 762.58M339.13 662.58V612.58L382.43 587.58M382.43 687.58V737.58M382.43 687.58L425.73 662.58V612.58M382.43 737.58L339.13 762.58M382.43 737.58L425.73 762.58V812.58L382.43 837.58L339.13 812.58V762.58M425.73 212.58L382.43 237.58M425.73 212.58L469.04 237.58M382.43 237.58V287.58L425.73 312.58L469.04 287.58M469.04 237.58V287.58M469.04 237.58L512.34 212.58L555.64 237.58M469.04 287.58L512.34 312.58M469.04 387.58L425.73 362.58L382.43 387.58V437.58L425.73 462.58L469.04 437.58M469.04 387.58V437.58M469.04 387.58L512.34 362.58M469.04 437.58L512.34 462.58M469.04 537.58L425.73 512.58L382.43 537.58V587.58M469.04 537.58V587.58M469.04 537.58L512.34 512.58M469.04 587.58L425.73 612.58M469.04 587.58L512.34 612.58L555.64 587.58V537.58M425.73 612.58L382.43 587.58M469.04 1037.58V987.58L425.73 962.58L382.43 987.58V1037.58L425.73 1062.58M469.04 1037.58L425.73 1062.58M469.04 1037.58L512.34 1062.58V1112.58L469.04 1137.58M425.73 1062.58V1112.58M425.73 1112.58L469.04 1137.58M425.73 1112.58L382.43 1137.58V1187.58L425.73 1212.58L469.04 1187.58V1137.58M555.64 237.58V287.58M555.64 237.58L598.94 212.58L642.25 237.58V287.58L598.94 312.58M555.64 287.58L512.34 312.58M555.64 287.58L598.94 312.58M512.34 312.58V362.58M512.34 362.58L555.64 387.58M555.64 387.58V437.58M555.64 387.58L598.94 362.58M555.64 437.58L512.34 462.58M555.64 437.58L598.94 462.58M512.34 462.58V512.58M512.34 512.58L555.64 537.58M555.64 537.58L598.94 512.58M512.34 1362.58L469.04 1337.58L425.73 1362.58V1412.58L469.04 1437.58L512.34 1412.58M512.34 1362.58V1412.58M512.34 1362.58L555.64 1337.58L598.94 1362.58M512.34 1412.58L555.64 1437.58L598.94 1412.58M598.94 312.58V362.58M598.94 362.58L642.25 387.58M642.25 387.58V437.58M642.25 387.58L685.55 362.58M642.25 437.58L598.94 462.58M642.25 437.58L685.55 462.58M598.94 462.58V512.58M598.94 512.58L642.25 537.58L685.55 512.58V462.58M598.94 812.58L642.25 837.58M598.94 812.58L555.64 837.58V887.58L598.94 912.58L642.25 887.58M598.94 812.58V762.58L642.25 737.58L685.55 762.58V812.58M642.25 837.58V887.58M642.25 837.58L685.55 812.58M642.25 887.58L685.55 912.58M642.25 987.58L598.94 962.58L555.64 987.58V1037.58L598.94 1062.58L642.25 1037.58M642.25 987.58V1037.58M642.25 987.58L685.55 962.58M642.25 1037.58L685.55 1062.58L728.85 1037.58V987.58M598.94 1362.58V1412.58M598.94 1362.58L642.25 1337.58L685.55 1362.58M598.94 1412.58L642.25 1437.58L685.55 1412.58M685.55 362.58L728.85 387.58M685.55 362.58V312.58L728.85 287.58L772.15 312.58V362.58M728.85 387.58V437.58M728.85 387.58L772.15 362.58M728.85 437.58L685.55 462.58M728.85 437.58L772.15 462.58L815.46 437.58V387.58L772.15 362.58M685.55 812.58L728.85 837.58V887.58M728.85 887.58L685.55 912.58M728.85 887.58L772.15 912.58V962.58L728.85 987.58M685.55 912.58V962.58M685.55 962.58L728.85 987.58M685.55 1362.58V1412.58M685.55 1362.58L728.85 1337.58M685.55 1412.58L728.85 1437.58L772.15 1412.58M772.15 62.5798V12.5798L728.85 -12.4202L685.55 12.5798V62.5798L728.85 87.5798M772.15 62.5798L728.85 87.5798M772.15 62.5798L815.46 87.5798V137.58L772.15 162.58M728.85 87.5798V137.58M772.15 162.58L728.85 137.58M772.15 162.58V212.58L728.85 237.58L685.55 212.58V162.58L728.85 137.58M815.46 537.58L772.15 512.58L728.85 537.58V587.58L772.15 612.58M815.46 537.58V587.58M815.46 537.58L858.76 512.58L902.06 537.58V587.58M815.46 587.58L772.15 612.58M815.46 587.58L858.76 612.58M772.15 612.58V662.58M772.15 662.58L815.46 687.58M772.15 662.58L728.85 687.58V737.58L772.15 762.58M815.46 687.58V737.58M815.46 687.58L858.76 662.58M815.46 737.58L772.15 762.58M815.46 737.58L858.76 762.58V812.58L815.46 837.58L772.15 812.58V762.58M815.46 1137.58L772.15 1112.58L728.85 1137.58V1187.58L772.15 1212.58M815.46 1137.58V1187.58M815.46 1137.58L858.76 1112.58M815.46 1187.58L772.15 1212.58M815.46 1187.58L858.76 1212.58M772.15 1212.58V1262.58M772.15 1262.58L815.46 1287.58M772.15 1262.58L728.85 1287.58V1337.58M815.46 1287.58V1337.58M815.46 1287.58L858.76 1262.58M815.46 1337.58L772.15 1362.58M815.46 1337.58L858.76 1362.58M772.15 1362.58L728.85 1337.58M772.15 1362.58V1412.58M772.15 1412.58L815.46 1437.58L858.76 1412.58M858.76 212.58L902.06 237.58M858.76 212.58L815.46 237.58V287.58L858.76 312.58L902.06 287.58M858.76 212.58V162.58L902.06 137.58M902.06 237.58V287.58M902.06 237.58L945.36 212.58M902.06 287.58L945.36 312.58L988.67 287.58V237.58L945.36 212.58M902.06 587.58L858.76 612.58M902.06 587.58L945.36 612.58M858.76 612.58V662.58M858.76 662.58L902.06 687.58L945.36 662.58M902.06 1037.58V987.58L858.76 962.58L815.46 987.58V1037.58L858.76 1062.58M902.06 1037.58L858.76 1062.58M902.06 1037.58L945.36 1062.58V1112.58M858.76 1062.58V1112.58M858.76 1112.58L902.06 1137.58M902.06 1137.58V1187.58M902.06 1137.58L945.36 1112.58M902.06 1187.58L858.76 1212.58M902.06 1187.58L945.36 1212.58M858.76 1212.58V1262.58M858.76 1262.58L902.06 1287.58L945.36 1262.58V1212.58M858.76 1362.58V1412.58M858.76 1362.58L902.06 1337.58L945.36 1362.58V1412.58L902.06 1437.58L858.76 1412.58M945.36 62.5798V12.5798L902.06 -12.4202L858.76 12.5798V62.5798L902.06 87.5798M945.36 62.5798L902.06 87.5798M945.36 62.5798L988.67 87.5798V137.58L945.36 162.58M902.06 87.5798V137.58M945.36 162.58L902.06 137.58M945.36 162.58V212.58M945.36 612.58V662.58M945.36 612.58L988.67 587.58M945.36 662.58L988.67 687.58M988.67 887.58V837.58L945.36 812.58L902.06 837.58V887.58L945.36 912.58M988.67 887.58L945.36 912.58M988.67 887.58L1031.97 912.58V962.58M945.36 912.58V962.58L988.67 987.58M945.36 1112.58L988.67 1137.58M988.67 1137.58V1187.58M988.67 1137.58L1031.97 1112.58L1075.27 1137.58V1187.58L1031.97 1212.58L988.67 1187.58M988.67 1187.58L945.36 1212.58M1031.97 612.58L1075.27 587.58V537.58L1031.97 512.58L988.67 537.58V587.58M1031.97 612.58L988.67 587.58M1031.97 612.58V662.58M1031.97 662.58L988.67 687.58M1031.97 662.58L1075.27 687.58V737.58L1031.97 762.58L988.67 737.58V687.58M1031.97 962.58L988.67 987.58M1031.97 962.58L1075.27 987.58V1037.58L1031.97 1062.58L988.67 1037.58V987.58M36.01 737.58L79.31 762.58V812.58L36.01 837.58L-7.29001 812.58V762.58L36.01 737.58ZM36.01 1187.58L79.31 1212.58V1262.58L36.01 1287.58L-7.29001 1262.58V1212.58L36.01 1187.58ZM252.52 212.58L295.82 237.58V287.58L252.52 312.58L209.22 287.58V237.58L252.52 212.58ZM512.34 662.58L555.64 687.58V737.58L512.34 762.58L469.04 737.58V687.58L512.34 662.58ZM555.64 -12.4202L598.94 12.5798V62.5798L555.64 87.5798L512.34 62.5798V12.5798L555.64 -12.4202ZM598.94 1112.58L642.25 1137.58V1187.58L598.94 1212.58L555.64 1187.58V1137.58L598.94 1112.58ZM945.36 362.58L988.67 387.58V437.58L945.36 462.58L902.06 437.58V387.58L945.36 362.58Z" stroke="#B300C2" stroke-opacity="0.75" stroke-width="2"/>
</g>
</g>
<defs>
<clipPath id="clip0_6_20">
<rect width="1024" height="1366" fill="white"/>
</clipPath>
</defs>
</svg>
